P3
41 41
65535
55401 52199 58142  55401 52199 58142  55401 52199 58142  55401 52199 58142  55401 52199 58142  55401 52199 58142
55401 52199 58142  55401 52199 58142  55401 52199 58142  55401 52199 58142  55401 52199 58142  55401 52199 58142
55401 52199 58142  55401 52199 58142  55401 52199 58142  55401 52199 58142  55401 52199 58142  55401 52199 58142
55401 52199 58142  55401 52199 58142  55401 52199 58142  55401 52199 58142  55401 52199 58142  55401 52199 58142
55401 52199 58142  55401 52199 58142  55401 52199 58142  55401 52199 58142  55401 52199 58142  55401 52199 58142
55401 52199 58142  55401 52199 58142  55401 52199 58142  55401 52199 58142  55401 52199 58142  55401 52199 58142
55401 52199 58142  55401 52199 58142  55401 52199 58142  55401 52199 58142  55401 52199 58142
55401 52199 58142  55401 52199 58142  55401 52199 58142  55401 52199 58142  55401 52199 58142  55401 52199 58142
55401 52199 58142  55401 52199 58142  55401 52199 58142  55401 52199 58142  55401 52199 58142  55401 52199 58142
55401 52199 58142  55401 52199 58142  55401 52199 58142  55401 52199 58142  55401 52199 58142  0 0 0
0 0 0  0 0 0  0 0 0  0 0 0  0 0 0  0 0 0
55401 52199 58142  55401 52199 58142  55401 52199 58142  55401 52199 58142  55401 52199 58142  55401 52199 58142
55401 52199 58142  55401 52199 58142  55401 52199 58142  55401 52199 58142  55401 52199 58142  55401 52199 58142
55401 52199 58142  55401 52199 58142  55401 52199 58142  55401 52199 58142  55401 52199 58142
55401 52199 58142  55401 52199 58142  55401 52199 58142  55401 52199 58142  55401 52199 58142  55401 52199 58142
55401 52199 58142  55401 52199 58142  55401 52199 58142  55401 52199 58142  55401 52199 58142  55401 52199 58142
55401 52199 58142  0 0 0  0 0 0  0 0 0  0 0 0  223 78 403
772 265 1394  1192 406 2152  1490 508 2691  1671 572 3018  1731 593 3126  1662 568 3003
1450 498 2619  1068 367 1929  468 159 845  0 0 0  55401 52199 58142  55401 52199 58142
55401 52199 58142  55401 52199 58142  55401 52199 58142  55401 52199 58142  55401 52199 58142  55401 52199 58142
55401 52199 58142  55401 52199 58142  55401 52199 58142  55401 52199 58142  55401 52199 58142
55401 52199 58142  55401 52199 58142  55401 52199 58142  55401 52199 58142  55401 52199 58142  55401 52199 58142
55401 52199 58142  55401 52199 58142  55401 52199 58142  55401 52199 58142  55401 52199 58142  0 0 0
0 0 0  0 0 0  408 138 736  1278 438 2309  2005 685 3621  2607 893 4710
3099 1059 5598  3487 1193 6298  3776 1292 6819  3967 1356 7165  4058 1387 7331  4046 1384 7310
3924 1341 7087  3677 1257 6641  3286 1123 5935  2716 928 4907  1909 653 3447  731 251 1320
55401 52199 58142  55401 52199 58142  55401 52199 58142  55401 52199 58142  55401 52199 58142  55401 52199 58142
55401 52199 58142  55401 52199 58142  55401 52199 58142  55401 52199 58142  55401 52199 58142
55401 52199 58142  55401 52199 58142  55401 52199 58142  55401 52199 58142  55401 52199 58142  55401 52199 58142
55401 52199 58142  55401 52199 58142  55401 52199 58142  55401 52199 58142  0 0 0  150 194 90
1808 1740 1855  3541 2969 4181  4838 3788 6050  5778 4271 7544  6409 4462 8715  6764 4391 9596
6864 4084 10208  6722 3548 10569  6347 2792 10682  5894 2016 10647  6004 2054 10846  6024 2062 10882
5951 2037 10749  5774 1977 10429  5482 1874 9903  5059 1730 9137  4473 1529 8079  3677 1257 6641
2575 883 4651  55401 52199 58142  55401 52199 58142  55401 52199 58142  55401 52199 58142  55401 52199 58142
55401 52199 58142  55401 52199 58142  55401 52199 58142  55401 52199 58142  55401 52199 58142
55401 52199 58142  55401 52199 58142  55401 52199 58142  55401 52199 58142  55401 52199 58142  55401 52199 58142
55401 52199 58142  55401 52199 58142  0 0 0  1851 2400 1115  3684 4511 2555  6061 6347 5558
7898 7674 7994  9316 8610 9990  10390 9217 11625  11167 9545 12948  11679 9626 13995  11949 9478 14785
11992 9115 15339  11818 8550 15664  11431 7780 15767  10836 6816 15649  10028 5655 15312  9005 4285 14744
7753 2704 13939  7566 2588 13667  7335 2510 13250  6994 2393 12633  6525 2231 11785  5900 2019 10659
5076 1737 9168  3966 1356 7164  2374 812 4289  55401 52199 58142  55401 52199 58142  55401 52199 58142
55401 52199 58142  55401 52199 58142  55401 52199 58142  55401 52199 58142  55401 52199 58142
55401 52199 58142  55401 52199 58142  55401 52199 58142  55401 52199 58142  55401 52199 58142  55401 52199 58142
55401 52199 58142  2084 2700 1255  4540 5888 2736  7103 8334 5384  9625 10308 8538  11606 11773 11126
13170 12842 13275  14390 13587 15064  15317 14060 16545  15983 14283 17752  16412 14286 18710  16622 14081 19438
16624 13679 19948  16426 13089 20250  16032 12316 20343  15444 11360 20235  14661 10219 19922  13677 8889 19397
12486 7364 18654  11075 5630 17681  9427 3675 16461  8669 2965 15659  8274 2831 14946  7751 2651 14001
7073 2418 12776  6194 2118 11188  5030 1723 9086  3388 1158 6119  55401 52199 58142  55401 52199 58142
55401 52199 58142  55401 52199 58142  55401 52199 58142  55401 52199 58142  55401 52199 58142
55401 52199 58142  55401 52199 58142  55401 52199 58142  55401 52199 58142  55401 52199 58142  55401 52199 58142
4080 5292 2458  6759 8765 4072  9876 11547 7534  12600 13714 10901  14762 15345 13678  16492 16573 16002
17872 17470 17959  18955 18088 19602  19775 18459 20971  20361 18607 22095  20729 18550 22989  20894 18303 23671
20865 17876 24148  20650 17269 24430  20250 16489 24519  19668 15539 24416  18902 14413 24120  17949 13114 23628
16803 11628 22933  15453 9955 22024  13886 8077 20889  12084 5973 19505  10020 3625 17847  9356 3202 16901
8771 3001 15843  8026 2746 14498  7072 2418 12774  5817 1991 10508  4043 1384 7303  55401 52199 58142
55401 52199 58142  55401 52199 58142  55401 52199 58142  55401 52199 58142  55401 52199 58142
55401 52199 58142  55401 52199 58142  55401 52199 58142  55401 52199 58142  55401 52199 58142  5470 7092 3295
8532 11063 5140  12047 14198 9053  15034 16609 12697  17413 18448 15702  19336 19856 18226  20891 20919 20368
22139 21692 22185  23119 22211 23722  23861 22507 25009  24385 22599 26067  24706 22497 26912  24837 22218 27556
24785 21766 28011  24555 21148 28278  24151 20365 28361  23573 19415 28263  22822 18303 27983  21892 17025 27515
20780 15574 26856  19477 13944 25997  17972 12126 24926  16248 10096 23625  14287 7847 22074  12057 5344 20243
10261 3512 18534  9605 3286 17350  8779 3004 15858  7727 2644 13959  6341 2171 11453  4340 1486 7839
55401 52199 58142  55401 52199 58142  55401 52199 58142  55401 52199 58142  55401 52199 58142
55401 52199 58142  55401 52199 58142  55401 52199 58142  55401 52199 58142  55401 52199 58142  9836 12754 5926
13618 16280 9942  16944 19009 13940  19585 21095 17221  21728 22712 19978  23479 23958 22324  24906 24901 24329
26054 25579 26042  26956 26027 27497  27636 26263 28719  28112 26309 29726  28397 26175 30533  28500 25868 31150
28428 25399 31583  28188 24770 31838  27780 23983 31919  27206 23037 31824  26465 21936 31555  25555 20675 31109
24470 19253 30477  23204 17657 29657  21747 15882 28635  20085 13912 27400  18201 11734 25931  16072 9326 24204
13664 6654 22185  10998 3763 19866  10260 3509 18533  9337 3195 16865  8159 2792 14739  6587 2252 11899
55401 52199 58142  55401 52199 58142  55401 52199 58142  55401 52199 58142  55401 52199 58142
55401 52199 58142  55401 52199 58142  55401 52199 58142  55401 52199 58142  10587 13728 6378  14543 17753 10154
18312 20901 14616  21276 23291 18236  23679 25151 21265  25651 26606 23843  27274 27732 26054  28601 28583 27956
29672 29186 29588  30513 29575 30979  31144 29769 32148  31581 29776 33116  31836 29613 33892  31917 29289 34485
31831 28805 34902  31581 28166 35148  31170 27375 35225  30599 26433 35135  29868 25342 34874  28973 24096 34443
27910 22691 33836  26674 21124 33047  25255 19383 32066  23642 17463 30882  21820 15342 29477  19767 13005 27832
17458 10428 25916  14854 7572 23691  11900 4384 21099  10737 3675 19394  9694 3318 17509  8352 2856 15085
6506 2227 11753  55401 52199 58142  55401 52199 58142  55401 52199 58142  55401 52199 58142
55401 52199 58142  55401 52199 58142  55401 52199 58142  10570 13704 6367  14711 18515 9571  19091 22236 14675
22465 25014 18725  25179 27167 22080  27406 28862 24926  29249 30196 27368  30773 31230 29477  32024 32003 31296
33033 32554 32863  33825 32896 34202  34416 33052 35332  34823 33030 36267  35054 32843 37016  35116 32501 37592
35018 32007 37995  34760 31361 38233  34347 30567 38308  33778 29631 38220  33054 28544 37967  32172 27308 37549
31127 25921 36962  29915 24378 36198  28527 22666 35248  26953 20781 34105  25180 18709 32752  23190 16429 31171
20957 13922 29337  18452 11158 27215  15627 8094 24760  12418 4670 21900  11027 3774 19918  9831 3364 17759
8263 2828 14926  5973 2044 10788  55401 52199 58142  55401 52199 58142  55401 52199 58142
55401 52199 58142  55401 52199 58142  55401 52199 58142  14236 18459 8576  19182 22924 14011  23100 26214 18631
26200 28731 22393  28730 30711 25557  30825 32282 28263  32569 33525 30600  34016 34485 32627  35204 35201 34384
36164 35703 35899  36917 36006 37196  37476 36133 38292  37857 36087 39201  38069 35886 39929  38117 35526 40488
38007 35021 40882  37744 34372 41113  37329 33578 41187  36763 32639 41100  36044 31562 40854  35172 30337 40447
34142 28964 39875  32950 27435 39130  31587 25748 38208  30045 23895 37100  28312 21858 35788  26370 19627 34259
24200 17177 32488  21771 14487 30448  19047 11518 28097  15970 8214 25377  12458 4504 22198  11112 3802 20071
9714 3325 17547  7806 2672 14100  55401 52199 58142  55401 52199 58142  55401 52199 58142
55401 52199 58142  55401 52199 58142  13342 17297 8036  18389 22779 12420  23086 26804 17857  26690 29793 22147
29592 32127 25701  31984 33977 28721  33977 35452 31320  35643 36617 33575  37028 37521 35537  38168 38191 37241
39088 38657 38715  39808 38933 39980  40343 39032 41049  40703 38968 41935  40898 38749 42646  40934 38382 43193
40816 37867 43578  40548 37210 43804  40131 36416 43875  39566 35480 43791  38853 34407 43550  37989 33189 43152
36971 31827 42592  35795 30316 41866  34453 28650 40965  32937 26818 39883  31235 24813 38605  29333 22617 37116
27212 20216 35399  24845 17583 33423  22199 14685 31153  19224 11480 28540  15850 7900 25508  12236 4187 22101
10955 3749 19789  9268 3170 16742  6754 2312 12200  55401 52199 58142  55401 52199 58142
55401 52199 58142  55401 52199 58142  16572 21487 9983  22248 26613 16219  26555 30270 21245  29935 33052 25301
32690 35244 28701  34977 36995 31609  36891 38396 34126  38495 39505 36317  39831 40362 38228  40932 40994 39891
41820 41428 41331  42514 41679 42568  43028 41760 43614  43371 41683 44483  43553 41450 45182  43579 41072 45718
43454 40553 46095  43182 39893 46318  42764 39095 46387  42201 38163 46304  41491 37090 46068  40634 35879 45677
39626 34527 45126  38463 33030 44414  37138 31378 43532  35643 29568 42471  33967 27584 41221  32097 25420 39766
30015 23055 38089  27697 20467 36165  25112 17629 33959  22216 14498 31428  18948 11017 28507  15212 7092 25094
12034 4116 21739  10493 3590 18952  8330 2849 15048  55401 52199 58142  55401 52199 58142
55401 52199 58142  55401 52199 58142  20212 25300 13322  25628 29998 19513  29666 33401 24260  32883 36027 28145
35527 38117 31427  37734 39794 34251  39587 41135 36703  41142 42198 38843  42440 43017 40714  43510 43624 42345
44373 44034 43758  45046 44267 44974  45542 44330 46004  45873 44238 46858  46044 43998 47545  46062 43610 48073
45932 43088 48444  45657 42424 48664  45238 41626 48731  44675 40694 48649  43969 39625 48416  43118 38421 48031
42118 37076 47489  40965 35586 46788  39653 33948 45920  38175 32152 44877  36520 30189 43648  34675 28050 42220
32624 25713 40575  30344 23161 38692  27807 20368 36537  24974 17297 34071  21785 13891 31233  18160 10071 27937
13961 5712 24038  11539 3947 20843  9586 3279 17314  55401 52199 58142  55401 52199 58142
55401 52199 58142  55401 52199 58142  23567 28660 16592  28619 33016 22402  32469 36239 26949  35568 38756 30710
38129 40768 33907  40274 42385 36665  42079 43684 39068  43598 44711 41170  44866 45502 43009  45912 46085 44614
46755 46476 46008  47413 46695 47206  47896 46748 48221  48216 46646 49066  48379 46395 49745  48391 46003 50264
48257 45474 50632  47978 44810 50848  47559 44012 50916  46997 43080 50835  46293 42014 50604  45446 40814 50223
44452 39473 49689  43308 37994 48995  42007 36363 48139  40542 34580 47109  38902 32632 45897  37078 30510 44490
35050 28198 42871  32801 25677 41018  30301 22917 38902  27513 19888 36485  24387 16538 33711  20844 12800 30502
16764 8553 26728  12441 4257 22472  10623 3636 19189  55401 52199 58142  55401 52199 58142
55401 52199 58142  19624 25444 11822  26466 31590 19382  31277 35720 24940  34995 38820 29350  38009 41255 33021
40510 43211 36153  42610 44785 38866  44382 46053 41233  45873 47055 43306  47119 47825 45121  48146 48390 46709
48975 48767 48086  49621 48972 49272  50094 49018 50278  50406 48909 51112  50563 48654 51785  50570 48256 52301
50432 47726 52664  50152 47059 52879  49732 46258 52946  49171 45326 52866  48469 44263 52636  47625 43066 52259
46636 41732 51729  45498 40256 51043  44205 38633 50194  42750 36861 49174  41122 34923 47975  39312 32815 46584
37303 30521 44983  35076 28018 43153  32603 25286 41067  29850 22289 38686  26768 18981 35960  23285 15299 32813
19290 11130 29127  14590 6301 24704  11491 3932 20755  8945 3061 16156  55401 52199 58142
55401 52199 58142  22351 28314 14305  28978 34153 21767  33635 38142 27163  37267 41160 31483  40223 43543 35094
42684 45456 38184  44754 47006 40864  46501 48248 43206  47973 49233 45259  49204 49989 47058  50219 50543 48633
51038 50910 49999  51674 51108 51176  52141 51147 52173  52447 51030 53003  52600 50772 53671  52604 50374 54184
52464 49837 54545  52183 49170 54758  51762 48372 54824  51201 47440 54745  50501 46378 54517  49659 45181 54143
48674 43850 53617  47539 42378 52934  46252 40761 52091  44803 38993 51078  43185 37065 49889  41385 34968 48508
39388 32685 46920  37176 30196 45106  34722 27481 43040  31993 24509 40683  28941 21230 37990  25500 17583 34886
21561 13471 31261  16948 8723 26928  12214 4180 22062  9811 3357 17722  55401 52199 58142
55401 52199 58142  24720 30747 16540  31143 36395 23787  35715 40299 29095  39297 43271 33362  42221 45622 36937
44657 47518 40004  46709 49046 42664  48443 50278 44992  49904 51253 47034  51126 52001 48824  52133 52544 50389
52946 52908 51750  53578 53102 52921  54040 53134 53915  54344 53018 54742  54494 52756 55408  54496 52354 55918
54355 51817 56279  54072 51150 56490  53651 50349 56556  53091 49420 56475  52391 48358 56251  51551 47161 55877
50567 45834 55352  49436 44365 54673  48151 42752 53833  46707 40987 52825  45093 39063 51640  43299 36970 50264
41310 34693 48685  39107 32215 46881  36664 29511 44826  33949 26549 42486  30915 23288 39809  27497 19666 36731
23592 15582 33141  19028 10880 28858  13474 5246 23538  10482 3587 18934  55401 52199 58142
55401 52199 58142  26624 32737 18287  32983 38329 25468  37528 42205 30746  41093 45163 34996  44007 47504 38561
46435 49392 41618  48482 50917 44273  50210 52142 46596  51668 53113 48634  52887 53858 50420  53892 54401 51983
54702 54761 53343  55333 54952 54512  55794 54984 55504  56096 54867 56329  56245 54606 56994  56247 54204 57504
56105 53667 57863  55823 52996 58076  55401 52199 58142  54841 51267 58061  54142 50204 57837  53302 49011 57463
52319 47684 56939  51188 46215 56260  49905 44602 55421  48462 42840 54415  46850 40917 53231  45058 38827 51859
43071 36553 50282  40870 34075 48482  38431 31375 46430  35721 28420 44093  32693 25162 41425  29283 21547 38353
25388 17474 34774  20841 12786 30510  15315 7177 25219  10981 3756 19835  55401 52199 58142
55401 52199 58142  28082 34312 19564  34504 39960 26813  39077 43864 32120  42659 46836 36386  45582 49187 39963
48019 51083 43029  50071 52612 45690  51805 53844 48018  53265 54818 50059  54488 55566 51850  55495 56110 53415
56308 56473 54776  56939 56668 55947  57402 56699 56941  57705 56583 57768  57855 56322 58432  57858 55919 58944
57716 55383 59303  57434 54715 59514  57013 53914 59582  56453 52986 59501  55753 51923 59275  54913 50730 58901
53929 49399 58378  52797 47931 57697  51513 46318 56857  50068 44553 55850  48455 42629 54665  46661 40535 53290
44672 38258 51711  42468 35780 49907  40026 33076 47852  37311 30115 45510  34277 26853 42835  30859 23231 39755
26953 19147 36165  22390 14445 31884  16836 8811 26564  11313 3869 20435  55401 52199 58142
55401 52199 58142  29075 35445 20355  35701 41287 27817  40359 45273 33214  43990 48291 37533  46947 50674 41144
49407 52590 44234  51477 54137 46914  53224 55379 49256  54697 56364 51309  55927 57119 53110  56943 57674 54683
57761 58044 56051  58397 58238 57226  58864 58277 58224  59170 58161 59054  59323 57903 59723  59327 57504 60234
59187 56971 60595  58907 56300 60808  58485 55503 60876  57925 54571 60795  57224 53508 60569  56383 52312 60193
55397 50981 59667  54263 49509 58985  52975 47892 58142  51526 46127 57130  49908 44200 55939  48108 42099 54558
46111 39815 52971  43899 37327 51157  41446 34612 49090  38717 31640 46735  35665 28360 44040  32223 24717 40936
28285 20601 37311  23672 15853 32978  18032 10138 27568  11473 3925 20724  55401 52199 58142
55401 52199 58142  29540 36084 20593  36551 42286 28458  41362 46416 34015  45080 49516 38427  48094 51955 42097
50595 53907 45229  52696 55485 47942  54467 56749 50309  55958 57751 52382  57204 58524 54197  58232 59089 55785
59060 59467 57163  59706 59672 58347  60179 59714 59352  60491 59605 60188  60648 59350 60861  60655 58955 61376
60517 58422 61740  60238 57755 61955  59817 56957 62022  59256 56025 61940  58554 54963 61712  57710 53762 61335
56721 52428 60805  55583 50952 60118  54290 49332 59270  52835 47557 58250  51207 45622 57051  49398 43515 55660
47388 41217 54060  45161 38717 52229  42688 35985 50143  39935 32988 47762  36853 29680 45036  33371 25995 41889
29375 21830 38203  24676 16997 33780  18882 11137 28209  11437 3911 20658  55401 52199 58142
55401 52199 58142  55401 52199 58142  37015 42922 28693  42066 47281 34504  45916 50504 39051  49015 53021 42810
51576 55030 46007  53721 56650 48767  55526 57949 51170  57045 58976 53271  58313 59767 55111  59359 60349 56716
60202 60741 58109  60860 60957 59308  61343 61010 60323  61663 60907 61166  61825 60660 61845  61838 60268 62366
61703 59739 62734  61425 59075 62950  61005 58274 63018  60444 57342 62936  59740 56279 62706  58893 55076 62325
57899 53738 61789  56755 52255 61097  55453 50628 60239  53989 48845 59209  52349 46896 57999  50524 44775 56592
48497 42463 54971  46248 39939 53118  43747 37182 51004  40960 34153 48587  37834 30803 45813  34291 27061 42604
30211 22815 38830  25379 17862 34267  19346 11773 28443  55401 52199 58142  55401 52199 58142
55401 52199 58142  55401 52199 58142  37021 43126 28448  42436 47828 34640  46475 51231 39386  49692 53858 43271
52336 55947 46555  54543 57621 49377  56395 58966 51829  57950 60028 53971  59248 60847 55841  60318 61454 57471
61181 61864 58885  61855 62093 60100  62351 62160 61130  62682 62069 61984  62853 61825 62671  62871 61440 63200
62741 60914 63570  62466 60254 63790  62046 59456 63859  61484 58521 63777  60778 57455 63544  59926 56247 63157
58926 54903 62616  57773 53416 61915  56462 51775 61046  54984 49982 60003  53329 48019 58775  51484 45876 57346
49432 43543 55703  47153 40991 53818  44616 38198 51663  41782 35124 49197  38594 31717 46359  34969 27901 43063
30770 23542 39165  25749 18409 34405  19353 11977 28199  55401 52199 58142  55401 52199 58142
55401 52199 58142  55401 52199 58142  36439 42780 27586  42418 48008 34369  46725 51666 39397  50106 54447 43453
52860 56639 46853  55147 58390 49761  57061 59792 52278  58665 60900 54468  60001 61758 56379  61102 62390 58043
61990 62824 59483  62684 63075 60720  63198 63156 61766  63541 63078 62635  63723 62845 63334  63750 62467 63870
63625 61948 64248  63352 61288 64469  62935 60491 64539  62371 59559 64456  61662 58486 64220  60805 57275 63828
59797 55923 63278  58633 54426 62567  57308 52774 61684  55813 50963 60623  54138 48979 59372  52267 46815 57919
50186 44450 56241  47867 41863 54317  45283 39024 52111  42387 35893 49581  39118 32413 46658  35382 28487 43245
31020 23976 39176  25732 18589 34134  18771 11628 27336  55401 52199 58142  55401 52199 58142
55401 52199 58142  55401 52199 58142  34994 41616 25819  41921 47740 33597  46618 51764 39033  50222 54754 43324
53124 57088 46878  55517 58937 49897  57510 60413 52497  59175 61581 54752  60560 62482 56715  61700 63152 58419
62620 63618 59893  63340 63894 61156  63875 63992 62225  64234 63929 63111  64429 63710 63824  64465 63343 64371
64348 62827 64754  64080 62174 64982  63663 61377 65053  63098 60441 64968  62385 59368 64726  61521 58150 64328
60503 56788 63769  59327 55277 63042  57985 53611 62142  56469 51778 61059  54768 49773 59782  52866 47578 58294
50744 45177 56575  48377 42544 54601  45731 39646 52331  42756 36440 49717  39382 32861 46684  35498 28798 43117
30913 24075 38812  25234 18321 33360  17325 10467 25570  55401 52199 58142  55401 52199 58142
55401 52199 58142  55401 52199 58142  55401 52199 58142  40781 46865 32148  46076 51450 38213  49993 54740 42833
53094 57257 46596  55625 59241 49759  57719 60812 52465  59463 62051 54802  60909 63011 56830  62098 63728 58586
63058 64229 60101  63810 64536 61399  64371 64660 62494  64751 64617 63403  64962 64412 64131  65011 64056 64690
64901 63548 65084  64638 62898 65315  64223 62104 65389  63656 61168 65302  62938 60088 65056  62066 58863 64649
61036 57490 64077  59843 55962 63332  58481 54278 62411  56939 52421 61302  55205 50384 59990  53264 48153 58461
51094 45703 56690  48666 43013 54652  45940 40045 52300  42863 36744 49579  39352 33030 46400  35269 28780 42625
30370 23764 37992  24094 17445 31914  55401 52199 58142  55401 52199 58142  55401 52199 58142
55401 52199 58142  55401 52199 58142  55401 52199 58142  38643 45050 29654  44967 50607 36798  49347 54331 41903
52720 57105 45951  55434 59259 49308  57662 60957 52154  59504 62287 54596  61029 63322 56703  62279 64098 58524
63288 64645 60092  64080 64988 61430  64672 65143 62560  65078 65122 63495  65309 64938 64244  65372 64596 64818
65273 64098 65223  65016 63452 65461  64603 62662 65535  64034 61723 65446  63310 60639 65196  62427 59403 64777
61382 58016 64189  60170 56470 63424  58783 54761 62476  57209 52876 61333  55436 50801 59980  53445 48524 58399
51213 46017 56566  48707 43253 54443  45883 40189 51988  42674 36762 49128  38978 32879 45758  34623 28371 41695
29262 22917 36577  21957 15631 29419  55401 52199 58142  55401 52199 58142  55401 52199 58142
55401 52199 58142  55401 52199 58142  55401 52199 58142  55401 52199 58142  43036 48986 34520  48160 53409 40406
51929 56558 44870  54894 58948 48490  57296 60812 51519  59268 62266 54097  60891 63392 56308  62219 64239 58209
63290 64847 59841  64130 65235 61231  64761 65426 62402  65199 65436 63368  65454 65274 64144  65535 64945 64738
65448 64462 65155  65198 63823 65401  64787 63036 65478  64217 62093 65387  63485 61002 65128  62590 59756 64697
61528 58351 64090  60291 56784 63300  58872 55044 62319  57259 53120 61135  55437 51002 59731  53385 48665 58084
51075 46088 56169  48471 43229 53945  45517 40045 51352  42133 36451 48309  38187 32332 44675  33436 27453 40198
27331 21297 34298  55401 52199 58142  55401 52199 58142  55401 52199 58142  55401 52199 58142
55401 52199 58142  55401 52199 58142  55401 52199 58142  55401 52199 58142  55401 52199 58142  46207 51771 38105
50597 55503 43220  53922 58235 47219  56564 60321 50499  58708 61938 53256  60458 63184 55603  61885 64123 57607
63033 64804 59321  63935 65249 60776  64615 65489 61997  65091 65535 63004  65375 65397 63811  65478 65094 64428
65408 64624 64861  65166 63992 65117  64759 63205 65197  64185 62263 65102  63444 61161 64833  62534 59901 64385
61449 58478 63756  60183 56879 62936  58726 55104 61914  57064 53138 60679  55180 50960 59209  53051 48548 57482
50642 45876 55463  47910 42900 53103  44785 39554 50333  41162 35738 47038  36855 31276 43027  31483 25812 37898
55401 52199 58142  55401 52199 58142  55401 52199 58142  55401 52199 58142  55401 52199 58142
55401 52199 58142  55401 52199 58142  55401 52199 58142  55401 52199 58142  55401 52199 58142  42955 48905 34441
48499 53727 40767  52388 56989 45357  55376 59400 49000  57754 61239 52005  59676 62647 54530  61232 63710 56670
62480 64483 58489  63460 65002 60026  64202 65298 61312  64726 65390 62370  65047 65288 63216  65178 65009 63861
65125 64557 64313  64896 63936 64580  64491 63152 64664  63914 62206 64567  63162 61094 64285  62233 59816 63820
61121 58366 63160  59817 56735 62301  58312 54913 61228  56589 52887 59929  54627 50638 58378  52398 48132 56546
49861 45340 54392  46957 42202 51852  43596 38633 48834  39628 34492 45177  34756 29497 40573  28232 22949 34235
55401 52199 58142  55401 52199 58142  55401 52199 58142  55401 52199 58142  55401 52199 58142
55401 52199 58142  55401 52199 58142  55401 52199 58142  55401 52199 58142  55401 52199 58142  55401 52199 58142
45110 50734 36960  50043 54977 42645  53578 57907 46863  56303 60071 50230  58464 61701 53007  60194 62930 55331
61575 63826 57287  62657 64444 58931  63478 64815 60302  64063 64963 61423  64431 64907 62317  64596 64660 62999
64568 64232 63477  64352 63625 63759  63952 62845 63847  63371 61896 63746  62605 60769 63450  61652 59470 62958
60505 57984 62263  59155 56311 61355  57588 54433 60218  55786 52333 58834  53722 49985 57177  51360 47355 55206
48648 44397 52867  45505 41033 50077  41799 37139 46697  37283 32480 42464  31368 26503 36765  55401 52199 58142
55401 52199 58142  55401 52199 58142  55401 52199 58142  55401 52199 58142  55401 52199 58142
55401 52199 58142  55401 52199 58142  55401 52199 58142  55401 52199 58142  55401 52199 58142  55401 52199 58142
55401 52199 58142  46300 51651 38466  50878 55559 43778  54167 58256 47737  56689 60229 50893  58671 61694 53481
60235 62764 55629  61455 63512 57418  62381 63982 58898  63047 64204 60105  63476 64208 61064  63686 64003 61792
63688 63601 62302  63490 63011 62603  63097 62238 62698  62508 61281 62589  61725 60141 62275  60742 58810 61751
59550 57285 61008  58139 55552 60036  56492 53596 58816  54584 51397 57322  52381 48919 55519  49837 46120 53356
46874 42925 50755  43370 39222 47586  39099 34796 43612  33540 29155 38285  55401 52199 58142  55401 52199 58142
55401 52199 58142  55401 52199 58142  55401 52199 58142  55401 52199 58142  55401 52199 58142
55401 52199 58142  55401 52199 58142  55401 52199 58142  55401 52199 58142  55401 52199 58142  55401 52199 58142
55401 52199 58142  55401 52199 58142  46526 51658 38960  50968 55443 44129  54111 57998 47936  56487 59834 50937
58324 61165 53372  59742 62097 55370  60816 62707 57005  61593 63036 58329  62105 63113 59373  62375 62965 60165
62418 62605 60718  62243 62037 61043  61858 61271 61146  61262 60307 61030  60455 59142 60690  59430 57776 60124
58179 56191 59319  56685 54384 58260  54927 52322 56921  52871 49982 55273  50471 47320 53262  47653 44260 50812
44294 40694 47796  40170 36405 43976  34746 30891 38792  55401 52199 58142  55401 52199 58142  55401 52199 58142
55401 52199 58142  55401 52199 58142  55401 52199 58142  55401 52199 58142  55401 52199 58142
55401 52199 58142  55401 52199 58142  55401 52199 58142  55401 52199 58142  55401 52199 58142  55401 52199 58142
55401 52199 58142  55401 52199 58142  55401 52199 58142  55401 52199 58142  50176 54493 43555  53297 57031 47339
55597 58793 50260  57329 60021 52585  58626 60840 54455  59566 61324 55949  60196 61514 57120  60551 61447 58001
60651 61140 58612  60510 60604 58973  60134 59845 59086  59528 58870 58958  58688 57677 58586  57607 56255 57958
56270 54595 57064  54658 52672 55880  52736 50458 54371  50458 47910 52488  47744 44948 50148  44463 41457 47214
40360 37185 43417  55401 52199 58142  55401 52199 58142  55401 52199 58142  55401 52199 58142  55401 52199 58142
55401 52199 58142  55401 52199 58142  55401 52199 58142  55401 52199 58142  55401 52199 58142
55401 52199 58142  55401 52199 58142  55401 52199 58142  55401 52199 58142  55401 52199 58142  55401 52199 58142
55401 52199 58142  55401 52199 58142  55401 52199 58142  55401 52199 58142  55401 52199 58142  48164 52393 41700
51492 55125 45700  53822 56918 48654  55509 58104 50932  56717 58839 52708  57537 59209 54078  58023 59266 55096
58210 59036 55800  58118 58549 56211  57759 57808 56342  57136 56819 56198  56247 55577 55772  55079 54073 55053
53611 52287 54022  51809 50186 52639  49619 47722 50850  46951 44803 48557  43639 41280 45589  39330 36818 41575
55401 52199 58142  55401 52199 58142  55401 52199 58142  55401 52199 58142  55401 52199 58142  55401 52199 58142
55401 52199 58142  55401 52199 58142  55401 52199 58142  55401 52199 58142  55401 52199 58142
55401 52199 58142  55401 52199 58142  55401 52199 58142  55401 52199 58142  55401 52199 58142  55401 52199 58142
55401 52199 58142  55401 52199 58142  55401 52199 58142  55401 52199 58142  55401 52199 58142  55401 52199 58142
55401 52199 58142  48085 51711 42382  50720 53791 45656  52492 55058 48022  53676 55771 49774  54402 56053 51043
54742 55969 51909  54736 55559 52411  54404 54846 52570  53754 53829 52397  52779 52509 51882  51457 50861 51002
49749 48849 49718  47584 46406 47954  44830 43409 45572  41214 39596 42286  55401 52199 58142  55401 52199 58142
55401 52199 58142  55401 52199 58142  55401 52199 58142  55401 52199 58142  55401 52199 58142  55401 52199 58142
55401 52199 58142  55401 52199 58142  55401 52199 58142  55401 52199 58142  55401 52199 58142
55401 52199 58142  55401 52199 58142  55401 52199 58142  55401 52199 58142  55401 52199 58142  55401 52199 58142
55401 52199 58142  55401 52199 58142  55401 52199 58142  55401 52199 58142  55401 52199 58142  55401 52199 58142
55401 52199 58142  55401 52199 58142  55401 52199 58142  55401 52199 58142  55401 52199 58142  48581 50765 44683
49306 51048 45953  49503 50829 46668  49235 50176 46896  48522 49099 46653  47342 47585 45925  45636 45576 44642
55401 52199 58142  55401 52199 58142  55401 52199 58142  55401 52199 58142  55401 52199 58142  55401 52199 58142
55401 52199 58142  55401 52199 58142  55401 52199 58142  55401 52199 58142  55401 52199 58142  55401 52199 58142
55401 52199 58142  55401 52199 58142  55401 52199 58142  55401 52199 58142  55401 52199 58142
55401 52199 58142  55401 52199 58142  55401 52199 58142  55401 52199 58142  55401 52199 58142  55401 52199 58142
55401 52199 58142  55401 52199 58142  55401 52199 58142  55401 52199 58142  55401 52199 58142  55401 52199 58142
55401 52199 58142  55401 52199 58142  55401 52199 58142  55401 52199 58142  55401 52199 58142  55401 52199 58142
55401 52199 58142  55401 52199 58142  55401 52199 58142  55401 52199 58142  55401 52199 58142  55401 52199 58142
55401 52199 58142  55401 52199 58142  55401 52199 58142  55401 52199 58142  55401 52199 58142  55401 52199 58142
55401 52199 58142  55401 52199 58142  55401 52199 58142  55401 52199 58142  55401 52199 58142  55401 52199 58142
55401 52199 58142  55401 52199 58142  55401 52199 58142  55401 52199 58142  55401 52199 58142
