P2
64 48
65535
50213 50213 50213 50213 50213 50213 50213 50213 50213 50213 50213 50213 50213 50213 50213 50213 50213
50213 50213 50213 50213 50213 50213 50213 50213 50213 50213 50213 50213 50213 50213 50213 50213 50213
50213 50213 50213 50213 50213 50213 50213 50213 50213 50213 50213 50213 50213 50213 50213 50213 50213
50213 50213 50213 50213 50213 50213 50213 50213 50213 50213 50213 50213 50213
50213 50213 50213 50213 50213 50213 50213 50213 50213 50213 50213 50213 50213 50213 50213 50213 50213
50213 50213 50213 50213 50213 50213 50213 50213 50213 50213 50213 50213 50213 50213 50213 50213 50213
50213 50213 50213 50213 50213 50213 50213 50213 50213 50213 50213 50213 50213 50213 50213 50213 50213
50213 50213 50213 50213 50213 50213 50213 50213 50213 50213 50213 50213 50213
50213 50213 50213 50213 50213 50213 50213 50213 50213 50213 50213 50213 50213 50213 50213 50213 50213
50213 50213 50213 50213 50213 50213 50213 50213 50213 50213 50213 50213 50213 50213 50213 50213 50213
50213 50213 50213 50213 50213 50213 50213 50213 50213 50213 50213 50213 50213 50213 50213 50213 50213
50213 50213 50213 50213 50213 50213 50213 50213 50213 50213 50213 50213 50213
50213 50213 50213 50213 50213 50213 50213 50213 50213 50213 50213 50213 50213 50213 50213 50213 50213
50213 50213 50213 50213 50213 50213 50213 50213 50213 50213 50213 50213 50213 50213 50213 50213 50213
50213 50213 50213 50213 50213 50213 50213 50213 50213 50213 50213 50213 50213 50213 50213 50213 50213
50213 50213 50213 50213 50213 50213 50213 50213 50213 50213 50213 50213 50213
50213 50213 50213 50213 50213 50213 50213 50213 50213 50213 50213 50213 50213 50213 50213 50213 50213
50213 50213 50213 50213 50213 50213 50213 50213 50213 50213 50213 50213 50213 55529 57697 58792 56730
50213 50213 50213 50213 50213 50213 50213 50213 50213 50213 50213 50213 50213 50213 50213 50213 50213
50213 50213 50213 50213 50213 50213 50213 50213 50213 50213 50213 50213 50213
50213 50213 50213 50213 50213 50213 50213 50213 50213 50213 50213 50213 50213 50213 50213 50213 50213
50213 50213 50213 50213 50213 50213 50213 50213 56917 43047 40335 41079 43784 46223 47937 49077 49654
49547 48689 50280 55030 64935 50213 50213 50213 50213 50213 50213 50213 50213 50213 50213 50213 50213
50213 50213 50213 50213 50213 50213 50213 50213 50213 50213 50213 50213 50213
50213 50213 50213 50213 50213 50213 50213 50213 50213 50213 50213 50213 50213 50213 50213 50213 50213
50213 50213 50213 50213 50213 50213 47243 35644 37135 41855 45229 47927 50139 51951 53409 54531 55319
55759 55807 55389 54338 52157 51148 58928 50213 50213 50213 50213 50213 50213 50213 50213 50213 50213
50213 50213 50213 50213 50213 50213 50213 50213 50213 50213 50213 50213 50213
50213 50213 50213 50213 50213 50213 50213 50213 50213 50213 50213 50213 50213 50213 50213 50213 50213
50213 50213 50213 50213 53488 31382 34258 39482 43354 46526 49205 51494 53452 55114 56498 57616 58466
59042 59325 59284 58865 57975 56430 53729 51706 65399 50213 50213 50213 50213 50213 50213 50213 50213
50213 50213 50213 50213 50213 50213 50213 50213 50213 50213 50213 50213 50213
50213 50213 50213 50213 50213 50213 50213 50213 50213 50213 50213 50213 50213 50213 50213 50213 50213
50213 50213 50213 32433 28349 34842 39534 43308 46499 49256 51661 53763 55595 57178 58523 59638 60522
61170 61571 61705 61543 61039 60118 58644 56333 52045 54202 50213 50213 50213 50213 50213 50213 50213
50213 50213 50213 50213 50213 50213 50213 50213 50213 50213 50213 50213 50213
50213 50213 50213 50213 50213 50213 50213 50213 50213 50213 50213 50213 50213 50213 50213 50213 50213
50213 50213 24863 27525 33863 38508 42339 45624 48497 51033 53279 55269 57023 58556 59877 60989 61894
62588 63063 63304 63292 62997 62374 61354 59815 57522 53807 50659 50213 50213 50213 50213 50213 50213
50213 50213 50213 50213 50213 50213 50213 50213 50213 50213 50213 50213 50213
50213 50213 50213 50213 50213 50213 50213 50213 50213 50213 50213 50213 50213 50213 50213 50213 50213
50213 22877 25590 31939 36711 40677 44102 47116 49794 52188 54330 56243 57943 59442 60745 61856 62776
63502 64027 64341 64429 64269 63831 63067 61906 60230 57809 54030 50799 50213 50213 50213 50213 50213
50213 50213 50213 50213 50213 50213 50213 50213 50213 50213 50213 50213 50213
50213 50213 50213 50213 50213 50213 50213 50213 50213 50213 50213 50213 50213 50213 50213 50213 50213
19606 22505 29247 34266 38432 42034 45210 48046 50593 52887 54954 56811 58471 59944 61234 62344 63276
64025 64587 64955 65115 65051 64738 64143 63217 61883 60012 57353 53225 49077 50213 50213 50213 50213
50213 50213 50213 50213 50213 50213 50213 50213 50213 50213 50213 50213 50213
50213 50213 50213 50213 50213 50213 50213 50213 50213 50213 50213 50213 50213 50213 50213 50213 24241
18227 25828 31222 35654 39471 42837 45845 48554 51004 53225 55235 57049 58679 60132 61412 62522 63462
64229 64821 65228 65443 65450 65230 64756 63991 62879 61334 59208 56200 51389 51198 50213 50213 50213
50213 50213 50213 50213 50213 50213 50213 50213 50213 50213 50213 50213 50213
50213 50213 50213 50213 50213 50213 50213 50213 50213 50213 50213 50213 50213 50213 50213 48984 12497
21623 27576 32357 36438 40023 43223 46107 48722 51099 53263 55229 57011 58616 60054 61326 62435 63382
64164 64778 65217 65473 65535 65386 65002 64355 63401 62075 60275 57818 54304 48008 62102 50213 50213
50213 50213 50213 50213 50213 50213 50213 50213 50213 50213 50213 50213 50213
50213 50213 50213 50213 50213 50213 50213 50213 50213 50213 50213 50213 50213 50213 50213 11944 16420
23268 28521 32931 36775 40194 43272 46063 48605 50926 53045 54976 56731 58318 59743 61008 62117 63069
63863 64495 64959 65249 65354 65259 64946 64389 63552 62383 60806 58691 55793 51503 46097 50213 50213
50213 50213 50213 50213 50213 50213 50213 50213 50213 50213 50213 50213 50213
50213 50213 50213 50213 50213 50213 50213 50213 50213 50213 50213 50213 50213 50213 30672 9384 18155
24088 28925 33084 36758 40053 43038 45757 48242 50517 52600 54503 56237 57808 59223 60483 61592 62548
63352 63998 64483 64800 64939 64888 64630 64143 63395 62345 60928 59047 56529 53012 47279 52387 50213
50213 50213 50213 50213 50213 50213 50213 50213 50213 50213 50213 50213 50213
50213 50213 50213 50213 50213 50213 50213 50213 50213 50213 50213 50213 50213 50213 6749 11872 18937
24360 28918 32898 36444 39646 42557 45219 47659 49898 51952 53832 55549 57108 58514 59770 60879 61838
62649 63308 63809 64148 64315 64299 64084 63652 62975 62014 60719 59008 56746 53683 49186 43170 50213
50213 50213 50213 50213 50213 50213 50213 50213 50213 50213 50213 50213 50213
50213 50213 50213 50213 50213 50213 50213 50213 50213 50213 50213 50213 50213 50213 3309 12801 19123
24216 28577 32424 35873 39001 41856 44473 46876 49087 51117 52979 54682 56231 57630 58883 59990 60954
61771 62439 62954 63310 63500 63512 63332 62943 62321 61431 60228 58643 56566 53803 49929 43283 58428
50213 50213 50213 50213 50213 50213 50213 50213 50213 50213 50213 50213 50213
50213 50213 50213 50213 50213 50213 50213 50213 50213 50213 50213 50213 50213 13446 4892 12988 18868
23734 27951 31697 35073 38144 40954 43535 45909 48097 50108 51956 53647 55188 56582 57832 58940 59905
60727 61403 61929 62300 62507 62541 62389 62035 61455 60621 59489 57999 56057 53503 50017 44673 45196
50213 50213 50213 50213 50213 50213 50213 50213 50213 50213 50213 50213 50213
50213 50213 50213 50213 50213 50213 50213 50213 50213 50213 50213 50213 50213 943 5379 12666 18258
22961 27073 30743 34062 37089 39865 42418 44770 46939 48936 50772 52455 53989 55378 56626 57734 58701
59527 60209 60743 61126 61347 61399 61269 60941 60395 59603 58525 57108 55266 52861 49633 44925 39150
50213 50213 50213 50213 50213 50213 50213 50213 50213 50213 50213 50213 50213
50213 50213 50213 50213 50213 50213 50213 50213 50213 50213 50213 50213 50213 0 5112 11943 17341
21931 25965 29580 32857 35851 38600 41132 43467 45622 47608 49436 51111 52641 54027 55273 56380 57349
58178 58865 59406 59796 60028 60093 59981 59673 59153 58392 57355 55990 54221 51923 48872 44542 36571
50213 50213 50213 50213 50213 50213 50213 50213 50213 50213 50213 50213 50213
50213 50213 50213 50213 50213 50213 50213 50213 50213 50213 50213 50213 50213 0 4325 10883 16152
20663 24643 28219 31466 34437 37167 39684 42007 44152 46130 47951 49621 51147 52531 53776 54884 55853
56684 57374 57920 58316 58556 58632 58530 58238 57736 56997 55989 54661 52943 50719 47785 43690 36638
50213 50213 50213 50213 50213 50213 50213 50213 50213 50213 50213 50213 50213
50213 50213 50213 50213 50213 50213 50213 50213 50213 50213 50213 50213 50213 0 3121 9519 14710
19171 23118 26669 29898 32853 35571 38078 40394 42532 44505 46322 47989 49513 50895 52139 53247 54217
55049 55742 56291 56691 56936 57017 56923 56641 56149 55426 54436 53132 51446 49267 46406 42449 35948
44098 50213 50213 50213 50213 50213 50213 50213 50213 50213 50213 50213 50213
50213 50213 50213 50213 50213 50213 50213 50213 50213 50213 50213 50213 50213 0 1544 7872 13026
17465 21397 24936 28155 31104 33817 36319 38631 40766 42737 44552 46218 47740 49121 50365 51472 52443
53276 53970 54520 54922 55169 55254 55163 54885 54399 53683 52701 51408 49737 47580 44751 40856 34569
46331 50213 50213 50213 50213 50213 50213 50213 50213 50213 50213 50213 50213
50213 50213 50213 50213 50213 50213 50213 50213 50213 50213 50213 50213 50213 0 0 5950 11107
15549 19481 23022 26241 29191 31904 34407 36719 38855 40826 42641 44307 45829 47211 48454 49562 50533
51366 52059 52609 53011 53258 53342 53251 52973 52486 51769 50787 49494 47821 45662 42829 38929 32622
44493 50213 50213 50213 50213 50213 50213 50213 50213 50213 50213 50213 50213
50213 50213 50213 50213 50213 50213 50213 50213 50213 50213 50213 50213 50213 0 0 3752 8952
13421 17372 20926 24156 27114 29834 32342 34659 36798 38771 40589 42256 43780 45162 46407 47514 48485
49317 50009 50557 50957 51202 51282 51187 50903 50411 49685 48693 47386 45696 43512 40641 36666 30097
41275 50213 50213 50213 50213 50213 50213 50213 50213 50213 50213 50213 50213
50213 50213 50213 50213 50213 50213 50213 50213 50213 50213 50213 50213 50213 0 0 1269 6556
11078 15065 18646 21897 24871 27604 30123 32448 34594 36574 38395 40066 41592 42976 44222 45329 46299
47129 47819 48364 48759 48999 49072 48969 48675 48170 47429 46417 45084 43359 41125 38175 34047 26835
50213 50213 50213 50213 50213 50213 50213 50213 50213 50213 50213 50213 50213
50213 50213 50213 50213 50213 50213 50213 50213 50213 50213 50213 50213 50213 0 0 0 3903
8509 12554 16176 19460 22458 25211 27746 30084 32240 34228 36057 37733 39263 40649 41896 43004 43972
44800 45487 46027 46415 46646 46710 46594 46284 45761 44995 43952 42580 40801 38488 35411 31028 23370
50213 50213 50213 50213 50213 50213 50213 50213 50213 50213 50213 50213 50213
50213 50213 50213 50213 50213 50213 50213 50213 50213 50213 50213 50213 50213 0 0 0 973
5700 9827 13507 16835 19868 22649 25206 27561 29732 31732 33569 35253 36788 38178 39427 40534 41501
42327 43008 43541 43921 44140 44190 44057 43726 43175 42376 41291 39863 38007 35581 32316 27519 22080
50213 50213 50213 50213 50213 50213 50213 50213 50213 50213 50213 50213 50213
50213 50213 50213 50213 50213 50213 50213 50213 50213 50213 50213 50213 50213 0 0 0 0
2628 6867 10627 14013 17092 19909 22495 24874 27064 29079 30929 32621 34163 35558 36808 37916 38881
39702 40377 40902 41270 41475 41506 41350 40991 40405 39562 38421 36917 34955 32371 28830 23326 24763
50213 50213 50213 50213 50213 50213 50213 50213 50213 50213 50213 50213 50213
50213 50213 50213 50213 50213 50213 50213 50213 50213 50213 50213 50213 50213 50213 0 0 0
0 3650 7515 10979 14117 16980 19603 22012 24226 26260 28125 29830 31380 32780 34034 35141 36104
36920 37587 38100 38454 38640 38648 38464 38069 37438 36538 35322 33718 31615 28808 24848 17753 45653
50213 50213 50213 50213 50213 50213 50213 50213 50213 50213 50213 50213 50213
50213 50213 50213 50213 50213 50213 50213 50213 50213 50213 50213 50213 50213 50213 0 0 0
0 140 4146 7711 10925 13848 16518 18964 21209 23267 25151 26869 28430 29837 31094 32203 33162
33972 34629 35128 35463 35626 35605 35384 34944 34256 33284 31971 30234 27936 24809 20158 15862 50213
50213 50213 50213 50213 50213 50213 50213 50213 50213 50213 50213 50213 50213
50213 50213 50213 50213 50213 50213 50213 50213 50213 50213 50213 50213 50213 50213 25989 0 0
0 0 482 4180 7493 10492 13221 15714 17996 20084 21991 23728 25302 26718 27979 29087 30043
30845 31490 31971 32285 32419 32361 32095 31598 30837 29770 28330 26416 23844 20224 14091 30014 50213
50213 50213 50213 50213 50213 50213 50213 50213 50213 50213 50213 50213 50213
50213 50213 50213 50213 50213 50213 50213 50213 50213 50213 50213 50213 50213 50213 50213 0 0
0 0 0 345 3787 6883 9688 12240 14569 16694 18631 20389 21979 23406 24672 25781 26732
27524 28154 28615 28900 28998 28896 28572 28002 27148 25957 24348 22185 19204 14711 10803 50213 50213
50213 50213 50213 50213 50213 50213 50213 50213 50213 50213 50213 50213 50213
50213 50213 50213 50213 50213 50213 50213 50213 50213 50213 50213 50213 50213 50213 50213 50213 0
0 0 0 0 0 2984 5886 8515 10903 13074 15046 16833 18442 19882 21155 22265 23210
23990 24601 25036 25286 25339 25180 24783 24119 23143 21786 19940 17409 13742 7389 43683 50213 50213
50213 50213 50213 50213 50213 50213 50213 50213 50213 50213 50213 50213 50213
50213 50213 50213 50213 50213 50213 50213 50213 50213 50213 50213 50213 50213 50213 50213 50213 0
0 0 0 0 0 0 1769 4496 6960 9192 11210 13030 14665 16121 17402 18512 19451
20215 20803 21205 21411 21408 21174 20684 19896 18752 17162 14965 11823 6555 12098 50213 50213 50213
50213 50213 50213 50213 50213 50213 50213 50213 50213 50213 50213 50213 50213
50213 50213 50213 50213 50213 50213 50213 50213 50213 50213 50213 50213 50213 50213 50213 50213 50213
0 0 0 0 0 0 0 127 2693 5001 7078 8943 10610 12086 13378 14489 15418
16164 16721 17081 17230 17153 16823 16204 15246 13865 11921 9132 4634 3690 50213 50213 50213 50213
50213 50213 50213 50213 50213 50213 50213 50213 50213 50213 50213 50213 50213
50213 50213 50213 50213 50213 50213 50213 50213 50213 50213 50213 50213 50213 50213 50213 50213 50213
50213 0 0 0 0 0 0 0 0 437 2593 4517 6224 7728 9033 10145 11063
11784 12302 12605 12680 12501 12037 11238 10027 8273 5711 1548 1758 50213 50213 50213 50213 50213
50213 50213 50213 50213 50213 50213 50213 50213 50213 50213 50213 50213 50213
50213 50213 50213 50213 50213 50213 50213 50213 50213 50213 50213 50213 50213 50213 50213 50213 50213
50213 50213 0 0 0 0 0 0 0 0 0 0 1432 2972 4296 5409 6311
6999 7463 7689 7657 7334 6671 5593 3963 1502 0 0 50213 50213 50213 50213 50213 50213
50213 50213 50213 50213 50213 50213 50213 50213 50213 50213 50213 50213 50213
50213 50213 50213 50213 50213 50213 50213 50213 50213 50213 50213 50213 50213 50213 50213 50213 50213
50213 50213 50213 0 0 0 0 0 0 0 0 0 0 0 0 164 1044
1682 2067 2178 1984 1432 437 0 0 0 4438 50213 50213 50213 50213 50213 50213 50213
50213 50213 50213 50213 50213 50213 50213 50213 50213 50213 50213 50213 50213
50213 50213 50213 50213 50213 50213 50213 50213 50213 50213 50213 50213 50213 50213 50213 50213 50213
50213 50213 50213 50213 50213 0 0 0 0 0 0 0 0 0 0 0 0
0 0 0 0 0 0 0 0 43725 50213 50213 50213 50213 50213 50213 50213 50213
50213 50213 50213 50213 50213 50213 50213 50213 50213 50213 50213 50213 50213
50213 50213 50213 50213 50213 50213 50213 50213 50213 50213 50213 50213 50213 50213 50213 50213 50213
50213 50213 50213 50213 50213 50213 22381 0 0 0 0 0 0 0 0 0 0
0 0 0 0 0 0 15267 50213 50213 50213 50213 50213 50213 50213 50213 50213 50213
50213 50213 50213 50213 50213 50213 50213 50213 50213 50213 50213 50213 50213
50213 50213 50213 50213 50213 50213 50213 50213 50213 50213 50213 50213 50213 50213 50213 50213 50213
50213 50213 50213 50213 50213 50213 50213 50213 50213 0 0 0 0 0 0 0 0
0 0 0 0 50213 50213 50213 50213 50213 50213 50213 50213 50213 50213 50213 50213 50213
50213 50213 50213 50213 50213 50213 50213 50213 50213 50213 50213 50213 50213
50213 50213 50213 50213 50213 50213 50213 50213 50213 50213 50213 50213 50213 50213 50213 50213 50213
50213 50213 50213 50213 50213 50213 50213 50213 50213 50213 50213 50213 50213 50213 50213 50213 50213
50213 50213 50213 50213 50213 50213 50213 50213 50213 50213 50213 50213 50213 50213 50213 50213 50213
50213 50213 50213 50213 50213 50213 50213 50213 50213 50213 50213 50213 50213
50213 50213 50213 50213 50213 50213 50213 50213 50213 50213 50213 50213 50213 50213 50213 50213 50213
50213 50213 50213 50213 50213 50213 50213 50213 50213 50213 50213 50213 50213 50213 50213 50213 50213
50213 50213 50213 50213 50213 50213 50213 50213 50213 50213 50213 50213 50213 50213 50213 50213 50213
50213 50213 50213 50213 50213 50213 50213 50213 50213 50213 50213 50213 50213
50213 50213 50213 50213 50213 50213 50213 50213 50213 50213 50213 50213 50213 50213 50213 50213 50213
50213 50213 50213 50213 50213 50213 50213 50213 50213 50213 50213 50213 50213 50213 50213 50213 50213
50213 50213 50213 50213 50213 50213 50213 50213 50213 50213 50213 50213 50213 50213 50213 50213 50213
50213 50213 50213 50213 50213 50213 50213 50213 50213 50213 50213 50213 50213
50213 50213 50213 50213 50213 50213 50213 50213 50213 50213 50213 50213 50213 50213 50213 50213 50213
50213 50213 50213 50213 50213 50213 50213 50213 50213 50213 50213 50213 50213 50213 50213 50213 50213
50213 50213 50213 50213 50213 50213 50213 50213 50213 50213 50213 50213 50213 50213 50213 50213 50213
50213 50213 50213 50213 50213 50213 50213 50213 50213 50213 50213 50213 50213
50213 50213 50213 50213 50213 50213 50213 50213 50213 50213 50213 50213 50213 50213 50213 50213 50213
50213 50213 50213 50213 50213 50213 50213 50213 50213 50213 50213 50213 50213 50213 50213 50213 50213
50213 50213 50213 50213 50213 50213 50213 50213 50213 50213 50213 50213 50213 50213 50213 50213 50213
50213 50213 50213 50213 50213 50213 50213 50213 50213 50213 50213 50213 50213
