P2
64 48
65535
50222 50222 50222 50222 50222 50222 50222 50222 50222 50222 50222 50222 50222 50222 50222 50222 50222
50222 50222 50222 50222 50222 50222 50222 50222 50222 50222 50222 50222 50222 50222 50222 50222 50222
50222 50222 50222 50222 50222 50222 50222 50222 50222 50222 50222 50222 50222 50222 50222 50222 50222
50222 50222 50222 50222 50222 50222 50222 50222 50222 50222 50222 50222 50222
50222 50222 50222 50222 50222 50222 50222 50222 50222 50222 50222 50222 50222 50222 50222 50222 50222
50222 50222 50222 50222 50222 50222 50222 50222 50222 50222 50222 50222 50222 50222 50222 50222 50222
50222 50222 50222 50222 50222 50222 50222 50222 50222 50222 50222 50222 50222 50222 50222 50222 50222
50222 50222 50222 50222 50222 50222 50222 50222 50222 50222 50222 50222 50222
50222 50222 50222 50222 50222 50222 50222 50222 50222 50222 50222 50222 50222 50222 50222 50222 50222
50222 50222 50222 50222 50222 50222 50222 50222 50222 50222 50222 50222 50222 50222 50222 50222 50222
50222 50222 50222 50222 50222 50222 50222 50222 50222 50222 50222 50222 50222 50222 50222 50222 50222
50222 50222 50222 50222 50222 50222 50222 50222 50222 50222 50222 50222 50222
50222 50222 50222 50222 50222 50222 50222 50222 50222 50222 50222 50222 50222 50222 50222 50222 50222
50222 50222 50222 50222 50222 50222 50222 50222 50222 50222 50222 50222 50222 50222 50222 50222 50222
50222 50222 50222 50222 50222 50222 50222 50222 50222 50222 50222 50222 50222 50222 50222 50222 50222
50222 50222 50222 50222 50222 50222 50222 50222 50222 50222 50222 50222 50222
50222 50222 50222 50222 50222 50222 50222 50222 50222 50222 50222 50222 50222 50222 50222 50222 50222
50222 50222 50222 50222 50222 50222 50222 50222 50222 50222 50222 50222 50222 28630 28977 27438 20073
50222 50222 50222 50222 50222 50222 50222 50222 50222 50222 50222 50222 50222 50222 50222 50222 50222
50222 50222 50222 50222 50222 50222 50222 50222 50222 50222 50222 50222 50222
50222 50222 50222 50222 50222 50222 50222 50222 50222 50222 50222 50222 50222 50222 50222 50222 50222
50222 50222 50222 50222 50222 50222 50222 50222 49095 27477 20615 17659 17109 16264 14683 12521 9781
6332 2191 1240 4920 27350 50222 50222 50222 50222 50222 50222 50222 50222 50222 50222 50222 50222
50222 50222 50222 50222 50222 50222 50222 50222 50222 50222 50222 50222 50222
50222 50222 50222 50222 50222 50222 50222 50222 50222 50222 50222 50222 50222 50222 50222 50222 50222
50222 50222 50222 50222 50222 50222 43148 27637 25602 27036 27121 26527 25445 23963 22125 19951 17441
14579 11322 7589 3206 0 0 3893 50222 50222 50222 50222 50222 50222 50222 50222 50222 50222
50222 50222 50222 50222 50222 50222 50222 50222 50222 50222 50222 50222 50222
50222 50222 50222 50222 50222 50222 50222 50222 50222 50222 50222 50222 50222 50222 50222 50222 50222
50222 50222 50222 50222 55051 31632 31250 33175 33754 33632 33017 32013 30677 29044 27134 24955 22510
19789 16774 13432 9708 5506 632 0 0 20881 50222 50222 50222 50222 50222 50222 50222 50222
50222 50222 50222 50222 50222 50222 50222 50222 50222 50222 50222 50222 50222
50222 50222 50222 50222 50222 50222 50222 50222 50222 50222 50222 50222 50222 50222 50222 50222 50222
50222 50222 50222 40764 33839 37041 38433 38911 38808 38271 37381 36190 34728 33017 31068 28888 26477
23829 20934 17771 14310 10505 6276 1487 0 0 0 50222 50222 50222 50222 50222 50222 50222
50222 50222 50222 50222 50222 50222 50222 50222 50222 50222 50222 50222 50222
50222 50222 50222 50222 50222 50222 50222 50222 50222 50222 50222 50222 50222 50222 50222 50222 50222
50222 50222 38533 38248 41263 42607 43142 43132 42710 41952 40905 39601 38061 36301 34327 32146 29756
27156 24335 21279 17971 14378 10455 6131 1280 0 0 0 50222 50222 50222 50222 50222 50222
50222 50222 50222 50222 50222 50222 50222 50222 50222 50222 50222 50222 50222
50222 50222 50222 50222 50222 50222 50222 50222 50222 50222 50222 50222 50222 50222 50222 50222 50222
50222 41545 41514 44539 46008 46678 46807 46526 45911 45011 43860 42479 40885 39090 37100 34917 32543
29974 27205 24224 21016 17560 13823 9760 5296 310 0 0 0 50222 50222 50222 50222 50222
50222 50222 50222 50222 50222 50222 50222 50222 50222 50222 50222 50222 50222
50222 50222 50222 50222 50222 50222 50222 50222 50222 50222 50222 50222 50222 50222 50222 50222 50222
43157 43639 47048 48761 49630 49935 49818 49359 48612 47612 46386 44949 43316 41495 39492 37309 34946
32401 29670 26743 23607 20248 16638 12746 8520 3883 0 0 0 0 50222 50222 50222 50222
50222 50222 50222 50222 50222 50222 50222 50222 50222 50222 50222 50222 50222
50222 50222 50222 50222 50222 50222 50222 50222 50222 50222 50222 50222 50222 50222 50222 50222 51021
44591 48832 50917 52049 52569 52640 52354 51769 50926 49852 48569 47090 45426 43586 41573 39389 37035
34509 31806 28920 25839 22551 19035 15265 11202 6791 1942 0 0 0 0 50222 50222 50222
50222 50222 50222 50222 50222 50222 50222 50222 50222 50222 50222 50222 50222
50222 50222 50222 50222 50222 50222 50222 50222 50222 50222 50222 50222 50222 50222 50222 57522 44109
49835 52471 53949 54733 55022 54927 54518 53838 52923 51792 50465 48954 47266 45410 43389 41204 38857
36346 33666 30811 27774 24540 21096 17417 13473 9220 4594 0 0 0 0 11874 50222 50222
50222 50222 50222 50222 50222 50222 50222 50222 50222 50222 50222 50222 50222
50222 50222 50222 50222 50222 50222 50222 50222 50222 50222 50222 50222 50222 50222 50222 47742 49854
53366 55312 56423 56970 57094 56878 56375 55624 54651 53476 52114 50576 48869 47001 44973 42788 40447
37947 35285 32456 29452 26263 22873 19264 15411 11277 6810 1931 0 0 0 0 50222 50222
50222 50222 50222 50222 50222 50222 50222 50222 50222 50222 50222 50222 50222
50222 50222 50222 50222 50222 50222 50222 50222 50222 50222 50222 50222 50222 50222 61776 48107 53464
56081 57615 58476 58854 58854 58545 57970 57162 56144 54933 53543 51983 50262 48383 46350 44165 41828
39338 36691 33882 30905 27750 24405 20851 17069 13025 8677 3960 0 0 0 0 0 50222
50222 50222 50222 50222 50222 50222 50222 50222 50222 50222 50222 50222 50222
50222 50222 50222 50222 50222 50222 50222 50222 50222 50222 50222 50222 50222 50222 49474 52413 56136
58250 59508 60190 60442 60348 59965 59333 58479 57425 56186 54773 53197 51462 49575 47538 45353 43020
40537 37902 35110 32155 29028 25718 22208 18481 14508 10251 5657 644 0 0 0 0 50222
50222 50222 50222 50222 50222 50222 50222 50222 50222 50222 50222 50222 50222
50222 50222 50222 50222 50222 50222 50222 50222 50222 50222 50222 50222 50222 50222 49140 55218 58217
60005 61067 61616 61771 61605 61165 60488 59598 58515 57252 55822 54231 52486 50593 48552 46367 44037
41560 38935 36156 33219 30114 26832 23358 19675 15757 11571 7071 2186 0 0 0 0 9569
50222 50222 50222 50222 50222 50222 50222 50222 50222 50222 50222 50222 50222
50222 50222 50222 50222 50222 50222 50222 50222 50222 50222 50222 50222 50222 58528 52579 57295 59860
61422 62342 62791 62871 62648 62164 61451 60533 59426 58145 56699 55097 53345 51446 49403 47217 44890
42418 39801 37033 34110 31024 27764 24318 20669 16794 12664 8235 3446 0 0 0 0 0
50222 50222 50222 50222 50222 50222 50222 50222 50222 50222 50222 50222 50222
50222 50222 50222 50222 50222 50222 50222 50222 50222 50222 50222 50222 50222 52256 54930 58867 61148
62550 63364 63738 63762 63495 62976 62235 61295 60170 58874 57417 55807 54047 52144 50098 47913 45587
43119 40508 37749 34837 31765 28523 25099 21477 17636 13548 9174 4458 0 0 0 0 0
50222 50222 50222 50222 50222 50222 50222 50222 50222 50222 50222 50222 50222
50222 50222 50222 50222 50222 50222 50222 50222 50222 50222 50222 50222 50222 51333 56547 60043 62132
63420 64156 64475 64457 64157 63612 62851 61892 60754 59447 57981 56364 54600 52693 50646 48461 46136
43671 41065 38313 35410 32348 29119 25712 22111 18295 14239 9905 5243 174 0 0 0 0
50222 50222 50222 50222 50222 50222 50222 50222 50222 50222 50222 50222 50222
50222 50222 50222 50222 50222 50222 50222 50222 50222 50222 50222 50222 50222 50461 57654 60881 62842
64053 64736 65015 64968 64644 64081 63304 62334 61185 59870 58398 56776 55007 53098 51050 48864 46541
44079 41476 38728 35831 32777 29559 26164 22577 18780 14746 10442 5817 800 0 0 0 0
50222 50222 50222 50222 50222 50222 50222 50222 50222 50222 50222 50222 50222
50222 50222 50222 50222 50222 50222 50222 50222 50222 50222 50222 50222 50222 52141 58346 61418 63301
64462 65112 65367 65300 64961 64386 63600 62622 61466 60147 58670 57044 55274 53364 51315 49129 46806
44345 41745 39000 36107 33059 29846 26458 22881 19096 15077 10791 6190 1205 0 0 0 0
0 50222 50222 50222 50222 50222 50222 50222 50222 50222 50222 50222 50222
50222 50222 50222 50222 50222 50222 50222 50222 50222 50222 50222 50222 50222 52786 58671 61672 63519
64658 65292 65535 65459 65113 64533 63741 62759 61601 60279 58801 57173 55402 53491 51442 49256 46934
44473 41874 39131 36239 33193 29983 26600 23027 19246 15235 10957 6368 1398 0 0 0 0
0 50222 50222 50222 50222 50222 50222 50222 50222 50222 50222 50222 50222
50222 50222 50222 50222 50222 50222 50222 50222 50222 50222 50222 50222 50222 52739 58646 61652 63502
64643 65278 65522 65447 65102 64521 63731 62749 61591 60269 58791 57164 55392 53481 51432 49246 46924
44463 41864 39120 36229 33182 29973 26588 23015 19235 15222 10945 6355 1383 0 0 0 0
0 50222 50222 50222 50222 50222 50222 50222 50222 50222 50222 50222 50222
50222 50222 50222 50222 50222 50222 50222 50222 50222 50222 50222 50222 50222 51982 58271 61359 63250
64417 65070 65328 65264 64927 64352 63567 62589 61436 60116 58640 57014 55245 53334 51286 49100 46777
44316 41715 38970 36076 33027 29814 26426 22848 19060 15040 10752 6149 1160 0 0 0 0
0 50222 50222 50222 50222 50222 50222 50222 50222 50222 50222 50222 50222
50222 50222 50222 50222 50222 50222 50222 50222 50222 50222 50222 50222 50222 50030 57523 60781 62757
63976 64666 64950 64906 64585 64024 63249 62280 61133 59819 58347 56725 54958 53049 51001 48815 46492
44029 41426 38678 35780 32726 29505 26109 22520 18721 14685 10377 5748 724 0 0 0 0
50222 50222 50222 50222 50222 50222 50222 50222 50222 50222 50222 50222 50222
50222 50222 50222 50222 50222 50222 50222 50222 50222 50222 50222 50222 50222 51427 56351 59897 62009
63311 64057 64382 64369 64074 63532 62773 61817 60680 59375 57910 56293 54529 52624 50577 48391 46066
43602 40995 38241 35337 32274 29044 25635 22031 18212 14152 9813 5144 66 0 0 0 0
50222 50222 50222 50222 50222 50222 50222 50222 50222 50222 50222 50222 50222
50222 50222 50222 50222 50222 50222 50222 50222 50222 50222 50222 50222 50222 52079 54647 58669 60984
62405 63232 63615 63647 63385 62871 62134 61196 60074 58780 57324 55714 53956 52053 50008 47823 45497
43029 40416 37656 34743 31669 28425 24998 21373 17527 13434 9053 4328 0 0 0 0 0
50222 50222 50222 50222 50222 50222 50222 50222 50222 50222 50222 50222 50222
50222 50222 50222 50222 50222 50222 50222 50222 50222 50222 50222 50222 50222 58277 52154 57033 59649
61239 62175 62637 62728 62511 62033 61325 60410 59306 58028 56584 54984 53232 51333 49291 47105 44777
42305 39687 36918 33993 30904 27641 24192 20539 16658 12521 8083 3282 0 0 0 0 0
50222 50222 50222 50222 50222 50222 50222 50222 50222 50222 50222 50222 50222
50222 50222 50222 50222 50222 50222 50222 50222 50222 50222 50222 50222 50222 50222 48873 54870 57949
59776 60863 61429 61596 61438 61006 60335 59450 58371 57111 55682 54093 52350 50458 48417 46232 43902
41424 38798 36017 33078 29971 26685 23206 19517 15591 11397 6884 1983 0 0 0 0 18315
50222 50222 50222 50222 50222 50222 50222 50222 50222 50222 50222 50222 50222
50222 50222 50222 50222 50222 50222 50222 50222 50222 50222 50222 50222 50222 50222 50568 51925 55795
57967 59259 59964 60231 60149 59776 59151 58304 57254 56018 54609 53034 51302 49416 47379 45194 42860
40377 37740 34946 31988 28858 25543 22028 18293 14310 10042 5433 399 0 0 0 0 50222
50222 50222 50222 50222 50222 50222 50222 50222 50222 50222 50222 50222 50222
50222 50222 50222 50222 50222 50222 50222 50222 50222 50222 50222 50222 50222 50222 62486 47103 53018
55731 57313 58205 58605 58620 58323 57757 56956 55944 54737 53351 51794 50075 48197 46165 43980 41643
39151 36502 33691 30710 27551 24199 20640 16848 12792 8429 3692 0 0 0 0 0 50222
50222 50222 50222 50222 50222 50222 50222 50222 50222 50222 50222 50222 50222
50222 50222 50222 50222 50222 50222 50222 50222 50222 50222 50222 50222 50222 50222 50222 48213 49215
52922 54944 56098 56674 56819 56618 56126 55384 54419 53250 51892 50357 48653 46786 44760 42575 40233
37732 35067 32235 29227 26031 22635 19017 15152 11003 6516 1609 0 0 0 0 50222 50222
50222 50222 50222 50222 50222 50222 50222 50222 50222 50222 50222 50222 50222
50222 50222 50222 50222 50222 50222 50222 50222 50222 50222 50222 50222 50222 50222 50222 50222 43911
49232 52009 53555 54379 54697 54623 54229 53561 52654 51532 50210 48702 47018 45164 43144 40960 38612
36099 33416 30557 27514 24274 20820 17129 13170 8898 4244 0 0 0 0 28260 50222 50222
50222 50222 50222 50222 50222 50222 50222 50222 50222 50222 50222 50222 50222
50222 50222 50222 50222 50222 50222 50222 50222 50222 50222 50222 50222 50222 50222 50222 50222 53964
43431 48217 50425 51622 52182 52281 52016 51447 50616 49551 48276 46803 45143 43305 41292 39109 36754
34226 31519 28627 25540 22243 18715 14930 10847 6408 1520 0 0 0 0 50222 50222 50222
50222 50222 50222 50222 50222 50222 50222 50222 50222 50222 50222 50222 50222
50222 50222 50222 50222 50222 50222 50222 50222 50222 50222 50222 50222 50222 50222 50222 50222 50222
45398 42607 46395 48227 49161 49508 49420 48982 48251 47265 46047 44618 42990 41172 39170 36988 34624
32075 29339 26405 23261 19889 16264 12351 8097 3419 0 0 0 0 50222 50222 50222 50222
50222 50222 50222 50222 50222 50222 50222 50222 50222 50222 50222 50222 50222
50222 50222 50222 50222 50222 50222 50222 50222 50222 50222 50222 50222 50222 50222 50222 50222 50222
50222 44518 40405 43819 45415 46155 46329 46080 45487 44605 43466 42095 40508 38717 36729 34546 32170
29598 26822 23832 20612 17139 13380 9286 4779 0 0 0 0 50222 50222 50222 50222 50222
50222 50222 50222 50222 50222 50222 50222 50222 50222 50222 50222 50222 50222
50222 50222 50222 50222 50222 50222 50222 50222 50222 50222 50222 50222 50222 50222 50222 50222 50222
50222 50222 41253 36815 40433 41931 42546 42588 42202 41469 40441 39150 37620 35865 33895 31713 29322
26715 23885 20817 17491 13874 9917 5542 615 0 0 0 50222 50222 50222 50222 50222 50222
50222 50222 50222 50222 50222 50222 50222 50222 50222 50222 50222 50222 50222
50222 50222 50222 50222 50222 50222 50222 50222 50222 50222 50222 50222 50222 50222 50222 50222 50222
50222 50222 50222 46407 32874 36009 37627 38212 38172 37678 36818 35648 34200 32497 30554 28374 25958
23303 20394 17211 13722 9875 5586 696 0 0 0 50222 50222 50222 50222 50222 50222 50222
50222 50222 50222 50222 50222 50222 50222 50222 50222 50222 50222 50222 50222
50222 50222 50222 50222 50222 50222 50222 50222 50222 50222 50222 50222 50222 50222 50222 50222 50222
50222 50222 50222 50222 50222 33376 29450 32120 32880 32852 32296 31330 30019 28401 26498 24320 21868
19133 16094 12715 8936 4644 0 0 0 43152 50222 50222 50222 50222 50222 50222 50222 50222
50222 50222 50222 50222 50222 50222 50222 50222 50222 50222 50222 50222 50222
50222 50222 50222 50222 50222 50222 50222 50222 50222 50222 50222 50222 50222 50222 50222 50222 50222
50222 50222 50222 50222 50222 50222 52628 29452 24639 25726 26044 25560 24542 23095 21274 19100 16576
13680 10364 6526 1930 0 0 19681 50222 50222 50222 50222 50222 50222 50222 50222 50222 50222
50222 50222 50222 50222 50222 50222 50222 50222 50222 50222 50222 50222 50222
50222 50222 50222 50222 50222 50222 50222 50222 50222 50222 50222 50222 50222 50222 50222 50222 50222
50222 50222 50222 50222 50222 50222 50222 50222 50222 33061 22248 18795 14666 14483 13057 10900 8025
4038 3402 3095 11643 50222 50222 50222 50222 50222 50222 50222 50222 50222 50222 50222 50222 50222
50222 50222 50222 50222 50222 50222 50222 50222 50222 50222 50222 50222 50222
50222 50222 50222 50222 50222 50222 50222 50222 50222 50222 50222 50222 50222 50222 50222 50222 50222
50222 50222 50222 50222 50222 50222 50222 50222 50222 50222 50222 50222 50222 50222 50222 50222 50222
50222 50222 50222 50222 50222 50222 50222 50222 50222 50222 50222 50222 50222 50222 50222 50222 50222
50222 50222 50222 50222 50222 50222 50222 50222 50222 50222 50222 50222 50222
50222 50222 50222 50222 50222 50222 50222 50222 50222 50222 50222 50222 50222 50222 50222 50222 50222
50222 50222 50222 50222 50222 50222 50222 50222 50222 50222 50222 50222 50222 50222 50222 50222 50222
50222 50222 50222 50222 50222 50222 50222 50222 50222 50222 50222 50222 50222 50222 50222 50222 50222
50222 50222 50222 50222 50222 50222 50222 50222 50222 50222 50222 50222 50222
50222 50222 50222 50222 50222 50222 50222 50222 50222 50222 50222 50222 50222 50222 50222 50222 50222
50222 50222 50222 50222 50222 50222 50222 50222 50222 50222 50222 50222 50222 50222 50222 50222 50222
50222 50222 50222 50222 50222 50222 50222 50222 50222 50222 50222 50222 50222 50222 50222 50222 50222
50222 50222 50222 50222 50222 50222 50222 50222 50222 50222 50222 50222 50222
50222 50222 50222 50222 50222 50222 50222 50222 50222 50222 50222 50222 50222 50222 50222 50222 50222
50222 50222 50222 50222 50222 50222 50222 50222 50222 50222 50222 50222 50222 50222 50222 50222 50222
50222 50222 50222 50222 50222 50222 50222 50222 50222 50222 50222 50222 50222 50222 50222 50222 50222
50222 50222 50222 50222 50222 50222 50222 50222 50222 50222 50222 50222 50222
50222 50222 50222 50222 50222 50222 50222 50222 50222 50222 50222 50222 50222 50222 50222 50222 50222
50222 50222 50222 50222 50222 50222 50222 50222 50222 50222 50222 50222 50222 50222 50222 50222 50222
50222 50222 50222 50222 50222 50222 50222 50222 50222 50222 50222 50222 50222 50222 50222 50222 50222
50222 50222 50222 50222 50222 50222 50222 50222 50222 50222 50222 50222 50222
