P2
41 41
65535
50220 50220 50220 50220 50220 50220 50220 50220 50220 50220 50220 50220 50220 50220 50220 50220 50220
50220 50220 50220 50220 50220 50220 50220 50220 50220 50220 50220 50220 50220 50220 50220 50220 50220
50220 50220 50220 50220 50220 50220 50220
50220 50220 50220 50220 50220 50220 50220 50220 50220 50220 50220 50220 50220 50220 50220 50220 50220
0 0 0 0 0 0 0 50220 50220 50220 50220 50220 50220 50220 50220 50220 50220
50220 50220 50220 50220 50220 50220 50220
50220 50220 50220 50220 50220 50220 50220 50220 50220 50220 50220 50220 50220 0 0 0 0
0 0 0 0 0 0 0 0 0 0 0 50220 50220 50220 50220 50220 50220
50220 50220 50220 50220 50220 50220 50220
50220 50220 50220 50220 50220 50220 50220 50220 50220 50220 50220 0 0 0 0 0 0
0 0 0 0 0 0 0 0 0 0 0 0 0 50220 50220 50220 50220
50220 50220 50220 50220 50220 50220 50220
50220 50220 50220 50220 50220 50220 50220 50220 50220 50220 0 216 1692 2653 3221 3464 3427
3140 2622 1885 937 0 0 0 0 0 0 0 0 0 0 50220 50220 50220
50220 50220 50220 50220 50220 50220 50220
50220 50220 50220 50220 50220 50220 50220 50220 0 2670 4910 6456 7512 8190 8555 8650 8506
8142 7572 6806 5847 4698 3358 1821 78 0 0 0 0 0 0 0 0 50220
50220 50220 50220 50220 50220 50220 50220
50220 50220 50220 50220 50220 50220 50220 3004 6546 8919 10596 11784 12593 13090 13321 13317 13097
12679 12072 11284 10319 9177 7858 6358 4670 2782 680 0 0 0 0 0 0 0
50220 50220 50220 50220 50220 50220 50220
50220 50220 50220 50220 50220 50220 5883 9746 12342 14203 15553 16513 17156 17529 17664 17586 17311
16852 16218 15414 14443 13307 12004 10532 8884 7051 5022 2780 300 0 0 0 0 0
0 50220 50220 50220 50220 50220 50220
50220 50220 50220 50220 50220 7887 12302 15220 17320 18867 20001 20803 21325 21605 21669 21535 21218
20727 20072 19255 18279 17148 15858 14407 12790 11000 9027 6856 4469 1840 0 0 0 0
0 0 50220 50220 50220 50220 50220
50220 50220 50220 50220 50220 14183 17554 19959 21745 23079 24058 24743 25175 25384 25392 25215 24864
24349 23675 22849 21870 20742 19461 18028 16436 14680 12750 10635 8319 5780 2989 0 0 0
0 0 50220 50220 50220 50220 50220
50220 50220 50220 50220 15265 19301 22109 24188 25757 26936 27799 28394 28755 28909 28873 28660 28283
27748 27061 26226 25245 24119 22847 21427 19855 18126 16231 14160 11900 9431 6729 3760 474 0
0 0 0 50220 50220 50220 50220
50220 50220 50220 15240 20364 23725 26174 28026 29437 30499 31272 31797 32103 32212 32140 31900 31500
30949 30251 29408 28426 27302 26037 24628 23072 21365 19498 17463 15247 12834 10202 7322 4154 636
0 0 0 0 50220 50220 50220
50220 50220 50220 20526 24717 27659 29861 31547 32838 33809 34512 34981 35243 35316 35215 34952 34534
33970 33262 32415 31429 30308 29048 27649 26107 24417 22573 20567 18387 16018 13443 10633 7554 4156
364 0 0 0 50220 50220 50220
50220 50220 19237 24908 28557 31215 33238 34798 35996 36896 37543 37968 38194 38238 38114 37832 37400
36824 36109 35257 34271 33150 31895 30503 28972 27297 25472 23489 21338 19006 16474 13720 10712 7407
3740 0 0 0 0 50220 50220
50220 50220 23896 28707 32002 34458 36347 37811 38938 39783 40385 40775 40971 40992 40849 40552 40108
39523 38801 37946 36959 35840 34587 33202 31680 30017 28207 26243 24116 21812 19316 16606 13654 10421
6849 2854 0 0 0 50220 50220
50220 50220 27771 32072 35124 37432 39220 40611 41682 42483 43051 43413 43586 43588 43430 43120 42667
42075 41349 40490 39502 38383 37135 35754 34239 32585 30788 28839 26730 24450 21982 19307 16399 13221
9723 5827 1413 0 0 50220 50220
50220 50220 31114 35084 37966 40166 41879 43215 44243 45011 45552 45891 46047 46034 45864 45545 45084
44487 43756 42896 41906 40789 39543 38166 36656 35010 33222 31286 29191 26928 24482 21835 18960 15824
12382 8562 4254 0 0 50220 50220
50220 28295 34042 37795 40556 42680 44339 45634 46631 47374 47895 48218 48360 48337 48158 47831 47365
46763 46030 45168 44178 43061 41816 40442 38937 37297 35516 33588 31505 29255 26825 24197 21347 18244
14842 11076 6845 1977 0 0 50220
50220 31222 36620 40234 42916 44988 46610 47878 48853 49579 50086 50398 50531 50499 50314 49983 49513
48908 48173 47309 46319 45202 43959 42587 41085 39448 37672 35751 33675 31435 29016 26403 23570 20487
17113 13384 9206 4415 0 0 50220
50220 33670 38884 42420 45058 47100 48700 49951 50914 51630 52129 52434 52562 52526 52337 52003 51531
50924 50187 49323 48332 47216 45973 44603 43103 41468 39696 37777 35706 33472 31060 28454 25631 22562
19203 15496 11347 6602 958 0 50220
50220 35697 40853 44364 46988 49020 50613 51859 52818 53530 54026 54329 54455 54418 54228 53893 53419
52812 52075 51211 50220 49104 47861 46491 44991 43358 41586 39669 37600 35366 32957 30354 27534 24469
21115 17415 13277 8546 2928 0 50220
50220 37320 42533 46069 48708 50749 52349 53601 54564 55280 55779 56084 56211 56175 55987 55652 55180
54573 53837 52972 51982 50865 49623 48252 46752 45118 43345 41427 39355 37121 34709 32103 29281 26210
22852 19145 14996 10251 4608 0 50220
50220 38521 43918 47532 50216 52287 53909 55176 56152 56878 57385 57696 57829 57799 57613 57282 56811
56207 55471 54608 53617 52501 51257 49886 48384 46747 44971 43050 40974 38734 36315 33701 30868 27786
24412 20683 16504 11714 5993 0 50220
50220 39243 44990 48743 51505 53628 55287 56582 57579 58322 58843 59166 59308 59285 59106 58779 58313
57711 56978 56116 55126 54009 52764 51390 49885 48245 46464 44536 42453 40204 37773 35146 32295 29192
25790 22024 17794 12925 7065 0 50220
50220 50220 45712 49682 52563 54763 56476 57812 58840 59609 60149 60488 60644 60632 60462 60143 59682
59084 58354 57493 56504 55387 54140 52764 51254 49608 47820 45883 43789 41526 39080 36432 33557 30422
26979 23159 18852 13864 7786 50220 50220
50220 50220 46018 50318 53371 55679 57467 58858 59929 60730 61298 61659 61833 61835 61676 61368 60914
60322 59596 58737 57749 56630 55381 54001 52486 50832 49035 47087 44978 42697 40229 37554 34646 31468
27969 24075 19659 14501 8093 50220 50220
50220 50220 45792 50603 53899 56354 58243 59708 60834 61679 62281 62671 62867 62888 62745 62448 62004
61419 60698 59843 58855 57736 56484 55098 53576 51913 50103 48139 46012 43708 41212 38502 35550 32317
28746 24750 20188 14785 7867 50220 50220
50220 50220 44783 50454 54102 56761 58783 60344 61541 62442 63089 63514 63739 63783 63659 63378 62945
62370 61655 60802 59816 58696 57441 56049 54517 52842 51018 49035 46884 44551 42020 39266 36258 32953
29286 25156 20392 14636 6858 50220 50220
50220 50220 50220 49721 53912 56855 59057 60742 62033 63004 63707 64176 64438 64511 64410 64146 63730
63164 62457 61609 60625 59503 58243 56844 55302 53612 51769 49762 47582 45214 42637 39828 36749 33352
29559 25251 20201 13903 50220 50220 50220
50220 50220 50220 48085 53208 56569 59019 60871 62281 63343 64116 64641 64948 65056 64984 64744 64344
63793 63095 62253 61270 60146 58881 57472 55917 54209 52343 50308 48092 45679 43047 40167 36998 33480
29522 24965 19497 12266 50220 50220 50220
50220 50220 50220 50220 51759 55795 58603 60682 62251 63430 64293 64887 65249 65403 65367 65154 64777
64242 63555 62719 61739 60612 59340 57921 56349 54620 52725 50654 48394 45925 43223 40253 36968 33291
29105 24191 18047 50220 50220 50220 50220
50220 50220 50220 50220 50220 54326 57696 60102 61889 63223 64201 64886 65318 65527 65535 65357 65007
64492 63819 62992 62013 60885 59605 58171 56579 54823 52894 50779 48462 45923 43131 40046 36605 32712
28199 22722 50220 50220 50220 50220 50220
50220 50220 50220 50220 50220 51679 56095 59013 61112 62660 63793 64595 65117 65397 65462 65327 65011
64520 63864 63047 62072 60940 59650 58199 56582 54793 52820 50649 48262 45632 42724 39483 35828 31622
26598 20075 50220 50220 50220 50220 50220
50220 50220 50220 50220 50220 50220 53325 57188 59784 61645 62995 63956 64598 64971 65106 65028 64754
64295 63660 62856 61885 60749 59446 57974 56326 54493 52464 50222 47742 44993 41926 38468 34500 29798
23827 50220 50220 50220 50220 50220 50220
50220 50220 50220 50220 50220 50220 50220 54096 57637 60010 61687 62875 63684 64182 64413 64408 64188
63770 63163 62375 61410 60268 58950 57449 55761 53873 51771 49433 46828 43913 40618 36834 32354 26706
50220 50220 50220 50220 50220 50220 50220
50220 50220 50220 50220 50220 50220 50220 50220 53993 57410 59651 61196 62253 62930 63296 63391 63247
62883 62313 61546 60588 59439 58099 56562 54819 52856 50653 48182 45398 42234 38582 34234 28710 50220
50220 50220 50220 50220 50220 50220 50220
50220 50220 50220 50220 50220 50220 50220 50220 50220 50220 56386 58607 60082 61044 61611 61854 61818
61531 61013 60276 59327 58169 56799 55210 53390 51320 48969 46295 43227 39644 35316 50220 50220 50220
50220 50220 50220 50220 50220 50220 50220
50220 50220 50220 50220 50220 50220 50220 50220 50220 50220 50220 54255 56662 58166 59087 59573 59708
59540 59101 58409 57475 56302 54887 53219 51280 49038 46445 43417 39806 35292 50220 50220 50220 50220
50220 50220 50220 50220 50220 50220 50220
50220 50220 50220 50220 50220 50220 50220 50220 50220 50220 50220 50220 50220 53267 55046 56044 56508
56558 56258 55644 54735 53537 52044 50237 48081 45509 42404 38518 50220 50220 50220 50220 50220 50220
50220 50220 50220 50220 50220 50220 50220
50220 50220 50220 50220 50220 50220 50220 50220 50220 50220 50220 50220 50220 50220 50220 50220 50220
51583 51632 51202 50351 49095 47418 45262 50220 50220 50220 50220 50220 50220 50220 50220 50220 50220
50220 50220 50220 50220 50220 50220 50220
50220 50220 50220 50220 50220 50220 50220 50220 50220 50220 50220 50220 50220 50220 50220 50220 50220
50220 50220 50220 50220 50220 50220 50220 50220 50220 50220 50220 50220 50220 50220 50220 50220 50220
50220 50220 50220 50220 50220 50220 50220
