P3
41 41
65535
54804 53272 56200  54804 53272 56200  54804 53272 56200  54804 53272 56200  54804 53272 56200  54804 53272 56200
54804 53272 56200  54804 53272 56200  54804 53272 56200  54804 53272 56200  54804 53272 56200  54804 53272 56200
54804 53272 56200  54804 53272 56200  54804 53272 56200  54804 53272 56200  54804 53272 56200  54804 53272 56200
54804 53272 56200  54804 53272 56200  54804 53272 56200  54804 53272 56200  54804 53272 56200  54804 53272 56200
54804 53272 56200  54804 53272 56200  54804 53272 56200  54804 53272 56200  54804 53272 56200  54804 53272 56200
54804 53272 56200  54804 53272 56200  54804 53272 56200  54804 53272 56200  54804 53272 56200  54804 53272 56200
54804 53272 56200  54804 53272 56200  54804 53272 56200  54804 53272 56200  54804 53272 56200
54804 53272 56200  54804 53272 56200  54804 53272 56200  54804 53272 56200  54804 53272 56200  54804 53272 56200
54804 53272 56200  54804 53272 56200  54804 53272 56200  54804 53272 56200  54804 53272 56200  54804 53272 56200
54804 53272 56200  54804 53272 56200  54804 53272 56200  54804 53272 56200  54804 53272 56200  748 113 1576
477 71 1004  151 23 316  0 0 0  0 0 0  0 0 0  0 0 0
54804 53272 56200  54804 53272 56200  54804 53272 56200  54804 53272 56200  54804 53272 56200  54804 53272 56200
54804 53272 56200  54804 53272 56200  54804 53272 56200  54804 53272 56200  54804 53272 56200  54804 53272 56200
54804 53272 56200  54804 53272 56200  54804 53272 56200  54804 53272 56200  54804 53272 56200
54804 53272 56200  54804 53272 56200  54804 53272 56200  54804 53272 56200  54804 53272 56200  54804 53272 56200
54804 53272 56200  54804 53272 56200  54804 53272 56200  54804 53272 56200  54804 53272 56200  54804 53272 56200
54804 53272 56200  2367 353 4985  2295 342 4832  2132 319 4490  1908 286 4019  1835 365 3725
2009 620 3751  2034 797 3541  1917 902 3111  1663 940 2461  1535 947 2155  1474 909 2069
1286 793 1805  947 583 1329  415 256 582  0 0 0  54804 53272 56200  54804 53272 56200
54804 53272 56200  54804 53272 56200  54804 53272 56200  54804 53272 56200  54804 53272 56200  54804 53272 56200
54804 53272 56200  54804 53272 56200  54804 53272 56200  54804 53272 56200  54804 53272 56200
54804 53272 56200  54804 53272 56200  54804 53272 56200  54804 53272 56200  54804 53272 56200  54804 53272 56200
54804 53272 56200  54804 53272 56200  54804 53272 56200  54804 53272 56200  54804 53272 56200  3351 500 7057
3350 500 7055  3246 485 6837  3437 680 6983  3987 1124 7602  4370 1481 7956  4608 1766 8082
4716 1988 8004  4704 2146 7735  4576 2247 7286  4333 2289 6655  3975 2274 5844  3588 2210 5038
3479 2142 4885  3260 2011 4577  2914 1796 4091  2409 1484 3383  1693 1045 2377  648 398 910
54804 53272 56200  54804 53272 56200  54804 53272 56200  54804 53272 56200  54804 53272 56200  54804 53272 56200
54804 53272 56200  54804 53272 56200  54804 53272 56200  54804 53272 56200  54804 53272 56200
54804 53272 56200  54804 53272 56200  54804 53272 56200  54804 53272 56200  54804 53272 56200  54804 53272 56200
54804 53272 56200  54804 53272 56200  54804 53272 56200  54804 53272 56200  4189 624 8824  4300 800 8857
5661 2341 9962  7029 3687 11291  7966 4615 12178  8550 5198 12703  8828 5483 12915  8833 5506 12846
8586 5280 12518  8101 4825 11946  7383 4142 11137  6573 3420 10174  6237 3416 9396  5795 3360 8453
5277 3251 7409  5120 3153 7188  4862 2995 6827  4486 2762 6298  3966 2443 5568  3260 2011 4577
2284 1406 3206  54804 53272 56200  54804 53272 56200  54804 53272 56200  54804 53272 56200  54804 53272 56200
54804 53272 56200  54804 53272 56200  54804 53272 56200  54804 53272 56200  54804 53272 56200
54804 53272 56200  54804 53272 56200  54804 53272 56200  54804 53272 56200  54804 53272 56200  54804 53272 56200
54804 53272 56200  54804 53272 56200  4785 714 10077  6537 2920 11302  8139 4908 12429  10144 6870 14410
11616 8317 15845  12673 9362 16856  13389 10076 17518  13812 10500 17876  13973 10673 17967  13894 10613 17812
13590 10335 17427  13072 9846 16821  12344 9155 16002  11409 8260 14969  10265 7167 13721  8906 5859 12254
7322 4337 10555  6710 4134 9421  6505 4006 9133  6202 3822 8709  5786 3567 8124  5232 3225 7347
4501 2774 6320  3517 2168 4937  2105 1297 2956  54804 53272 56200  54804 53272 56200  54804 53272 56200
54804 53272 56200  54804 53272 56200  54804 53272 56200  54804 53272 56200  54804 53272 56200
54804 53272 56200  54804 53272 56200  54804 53272 56200  54804 53272 56200  54804 53272 56200  54804 53272 56200
54804 53272 56200  7233 3270 12456  9534 6190 14029  11798 8636 16032  13947 10741 18162  15561 12327 19743
16761 13511 20901  17623 14364 21710  18194 14935 22221  18506 15254 22469  18586 15348 22475  18447 15228 22260
18104 14909 21833  17562 14401 21203  16826 13702 20374  15899 12815 19350  14778 11741 18127  13459 10478 16700
11935 9012 15063  10193 7332 13203  8359 5449 11401  7688 4735 10795  7338 4521 10302  6874 4235 9651
6272 3863 8807  5493 3382 7712  4461 2747 6263  3004 1853 4217  54804 53272 56200  54804 53272 56200
54804 53272 56200  54804 53272 56200  54804 53272 56200  54804 53272 56200  54804 53272 56200
54804 53272 56200  54804 53272 56200  54804 53272 56200  54804 53272 56200  54804 53272 56200  54804 53272 56200
9502 5705 14574  12037 8896 16343  14817 11744 18980  17166 14044 21315  18959 15803 23079  20324 17149 24405
21344 18152 25377  22069 18874 26047  22535 19343 26451  22768 19588 26615  22787 19621 26560  22604 19460 26299
22230 19110 25842  21671 18584 25194  20930 17878 24359  20008 16998 23340  18905 15942 22135  17616 14706 20739
16136 13285 19148  14455 11665 17349  12559 9839 15332  10710 7828 13665  8885 5607 12326  8298 5111 11650
7779 4792 10921  7118 4386 9993  6272 3863 8805  5158 3179 7242  3585 2210 5033  54804 53272 56200
54804 53272 56200  54804 53272 56200  54804 53272 56200  54804 53272 56200  54804 53272 56200
54804 53272 56200  54804 53272 56200  54804 53272 56200  54804 53272 56200  54804 53272 56200  11134 7407 16162
14072 11060 18266  17242 14277 21318  19851 16829 23920  21859 18795 25904  23414 20324 27425  24607 21501 28575
25496 22380 29411  26120 23000 29978  26508 23395 30301  26680 23579 30404  26652 23567 30301  26436 23372 30005
26038 23004 29524  25464 22463 28861  24719 21752 28023  23802 20877 27009  22712 19836 25818  21448 18622 24445
20001 17231 22889  18367 15657 21138  16531 13890 19183  14481 11913 17006  12661 9775 15570  10689 7400 14099
9100 5607 12775  8518 5246 11959  7785 4795 10931  6853 4220 9621  5623 3465 7895  3849 2371 5403
54804 53272 56200  54804 53272 56200  54804 53272 56200  54804 53272 56200  54804 53272 56200
54804 53272 56200  54804 53272 56200  54804 53272 56200  54804 53272 56200  54804 53272 56200  15615 12661 19779
19073 16228 23046  22016 19107 25991  24283 21328 28242  26058 23068 29988  27444 24432 31336  28509 25480 32354
29300 26266 33089  29846 26815 33577  30173 27145 33837  30298 27284 33891  30234 27239 33752  29989 27017 33427
29573 26627 32926  28989 26078 32253  28240 25364 31410  27326 24492 30401  26248 23459 29220  25001 22263 27867
23583 20903 26339  21985 19362 24625  20197 17641 22719  18207 15724 20605  16125 13612 18532  14241 11331 17141
12111 8783 15529  9754 6009 13694  9099 5607 12775  8280 5100 11625  7236 4457 10159  5841 3600 8201
54804 53272 56200  54804 53272 56200  54804 53272 56200  54804 53272 56200  54804 53272 56200
54804 53272 56200  54804 53272 56200  54804 53272 56200  54804 53272 56200  16577 13593 20805  20264 17562 24119
23646 20865 27514  26234 23395 30093  28264 25386 32101  29869 26961 33673  31129 28201 34891  32097 29160 35809
32810 29866 36467  33295 30355 36891  33574 30644 37103  33661 30742 37118  33567 30667 36948  33302 30426 36601
32870 30024 36085  32277 29460 35402  31525 28746 34556  30614 27878 33548  29545 26856 32377  28314 25672 31041
26916 24330 29534  25348 22823 27852  23598 21140 25983  21657 19268 23919  19508 17194 21641  17512 14958 19930
15469 12503 18396  13165 9771 16628  10552 6712 14582  9522 5867 13369  8597 5295 12069  7407 4562 10398
5770 3555 8102  54804 53272 56200  54804 53272 56200  54804 53272 56200  54804 53272 56200
54804 53272 56200  54804 53272 56200  54804 53272 56200  16733 13597 21156  20708 18167 24425  24694 22057 28439
27686 24981 31433  30025 27269 33758  31882 29092 35589  33359 30543 37030  34521 31689 38147  35413 32572 38987
36065 33222 39582  36502 33662 39956  36742 33910 40127  36798 33981 40112  36680 33884 39917  36397 33624 39552
35953 33207 39024  35353 32640 38334  34598 31926 37486  33690 31058 36480  32628 30039 35316  31409 28870 33992
30030 27547 32505  28485 26063 30846  26766 24406 29009  24863 22575 26984  22764 20550 24756  20540 18329 22501
18565 15950 21029  16349 13308 19338  13850 10369 17395  11012 7065 15146  9779 6024 13729  8719 5370 12242
7328 4514 10289  5296 3262 7436  54804 53272 56200  54804 53272 56200  54804 53272 56200
54804 53272 56200  54804 53272 56200  54804 53272 56200  20478 18005 24158  25061 22587 28668  28590 26033 32212
31312 28694 34929  33469 30806 37067  35196 32501 38763  36575 33857 40104  37660 34928 41142  38490 35751 41921
39094 36357 42466  39492 36759 42799  39700 36977 42939  39731 37022 42897  39594 36905 42681  39296 36631 42303
38842 36206 41763  38236 35635 41066  37479 34913 40217  36573 34049 39214  35517 33038 38057  34308 31881 36743
32943 30569 35269  31418 29103 33631  29724 27472 31820  27853 25668 29827  25792 23684 27640  23526 21497 25243
21434 19148 23456  19286 16581 21828  16876 13736 19964  14154 10557 17820  11048 6968 15331  9854 6069 13835
8615 5307 12096  6922 4266 9719  54804 53272 56200  54804 53272 56200  54804 53272 56200
54804 53272 56200  54804 53272 56200  19714 16953 23740  24554 22267 27998  28853 26461 32333  32073 29607 35560
34598 32080 38077  36619 34060 40075  38245 35654 41668  39546 36935 42928  40570 37946 43904  41352 38724 44633
41917 39288 45137  42283 39660 45438  42466 39855 45553  42476 39882 45489  42324 39746 45258  42013 39465 44866
41551 39029 44318  40940 38450 43617  40182 37732 42765  39277 36868 41764  38226 35860 40612  37025 34710 39307
35673 33410 37846  34163 31959 36223  32490 30351 34433  30645 28573 32466  28616 26615 30313  26389 24466 27954
24100 22132 25702  22006 19621 24122  19665 16852 22321  17034 13770 20258  14049 10309 17878  10851 6686 15235
9715 5987 13640  8220 5062 11540  5990 3691 8410  54804 53272 56200  54804 53272 56200
54804 53272 56200  54804 53272 56200  23002 20835 26360  28302 26101 31619  32216 29923 35558  35214 32850 38560
37594 35180 40925  39510 37059 42816  41057 38578 44330  42298 39799 45528  43274 40765 46455  44017 41505 47143
44551 42039 47615  44891 42385 47891  45053 42558 47982  45047 42569 47903  44881 42422 47657  44561 42129 47255
44092 41689 46702  43477 41107 45997  42718 40385 45144  41814 39525 44143  40767 38521 42994  39573 37375 41697
38230 36086 40245  36734 34650 38637  35077 33053 36864  33252 31298 34919  31249 29366 32789  29053 27247 30464
26648 24924 27923  24530 22455 26240  22243 19742 24487  19681 16731 22487  16790 13372 20191  13484 9568 17523
10672 6577 14984  9306 5731 13065  7388 4551 10371  54804 53272 56200  54804 53272 56200
54804 53272 56200  54804 53272 56200  26565 24586 29689  31576 29472 34753  35225 33034 38422  38062 35808 41256
40332 38033 43511  42168 39833 45319  43655 41295 46771  44848 42467 47920  45786 43396 48808  46498 44106 49464
47006 44613 49910  47327 44944 50166  47472 45098 50240  47453 45098 50147  47277 44940 49891  46949 44640 49481
46474 44192 48921  45855 43610 48213  45095 42884 47360  44193 42024 46360  43149 41024 45215  41960 39885 43923
40626 38604 42479  39139 37176 40881  37496 35594 39121  35688 33854 37194  33705 31941 35086  31534 29847 32786
29160 27555 30276  26871 25090 28195  24628 22421 26481  22120 19475 24529  19301 16190 22297  16093 12492 19718
12378 8249 16682  10233 6306 14367  8501 5239 11936  54804 53272 56200  54804 53272 56200
54804 53272 56200  54804 53272 56200  29815 27934 32799  34466 32471 37495  37928 35853 40970  40648 38514 43686
42836 40656 45856  44612 42396 47602  46053 43813 49007  47208 44951 50117  48118 45853 50975  48805 46537 51607
49294 47030 52035  49599 47342 52272  49731 47485 52334  49701 47473 52230  49517 47308 51966  49183 47000 51550
48704 46552 50985  48083 45962 50275  47322 45241 49419  46421 44380 48421  45379 43384 47279  44195 42249 45990
42866 40972 44554  41388 39551 42964  39755 37980 41216  37960 36251 39300  35993 34357 37209  33842 32279 34929
31491 30013 32445  29045 27547 29998  26833 24913 28313  24368 22008 26398  21602 18783 24215  18467 15164 21701
14858 11034 18759  11033 6799 15490  9421 5803 13226  54804 53272 56200  54804 53272 56200
54804 53272 56200  26173 24515 28972  32613 30843 35446  37026 35150 39897  40358 38405 43240  42994 40983 45869
45123 43069 47977  46854 44767 49679  48261 46150 51047  49390 47263 52131  50276 48142 52967  50947 48807 53581
51421 49285 53993  51714 49585 54218  51836 49721 54270  51799 49702 54158  51608 49533 53889  51269 49217 53466
50788 48766 52899  50165 48176 52186  49403 47451 51330  48502 46594 50332  47462 45598 49193  46282 44467 47908
44957 43196 46475  43486 41780 44892  41860 40216 43152  40075 38499 41246  38120 36612 39167  35983 34553 36903
33650 32301 34436  31100 29836 31746  28870 27224 29993  26436 24353 28108  23709 21170 25959  20628 17603 23493
17093 13556 20618  12935 8843 17185  10190 6276 14306  7932 4886 11137  54804 53272 56200
54804 53272 56200  28820 27329 31407  35028 33380 37700  39290 37540 41997  42536 40712 45252  45116 43234 47822
47203 45278 49888  48905 46951 51560  50288 48311 52904  51398 49405 53969  52270 50269 54789  52928 50923 55389
53392 51389 55791  53676 51682 56008  53792 51814 56054  53749 51788 55936  53554 51615 55662  53213 51295 55236
52729 50841 54666  52104 50251 53952  51342 49525 53096  50442 48668 52099  49403 47672 50960  48225 46545 49678
46904 45275 48248  45436 43865 46670  43816 42306 44934  42038 40596 43036  40091 38717 40965  37965 36668 38711
35643 34429 36257  33109 31978 33583  30745 29363 31529  28331 26510 29662  25632 23357 27537  22587 19832 25103
19103 15837 22275  15021 11207 18911  10832 6675 15208  8701 5359 12217  54804 53272 56200
54804 53272 56200  31094 29731 33516  37101 35586 39603  41278 39660 43812  44476 42787 47016  47022 45278 49553
49087 47300 51597  50771 48954 53251  52140 50299 54580  53240 51385 55633  54102 52239 56444  54753 52889 57038
55211 53347 57433  55490 53637 57645  55602 53761 57687  55556 53731 57564  55358 53558 57288  55015 53238 56863
54530 52784 56291  53905 52190 55576  53142 51464 54720  52241 50608 53722  51204 49615 52583  50027 48484 51303
48707 47221 49876  47243 45812 48300  45626 44256 46567  43852 42546 44673  41910 40675 42609  39789 38630 40360
37476 36398 37914  34950 33959 35249  32463 31332 32922  30062 28494 31067  27378 25356 28957  24354 21854 26541
20899 17893 23739  16861 13308 20414  11948 7783 16301  9296 5727 13051  54804 53272 56200
54804 53272 56200  32908 31681 35153  38852 37476 41176  43003 41528 45358  46183 44636 48546  48719 47116 51072
50777 49131 53108  52455 50780 54755  53820 52122 56079  54915 53201 57129  55775 54054 57936  56424 54700 58528
56879 55159 58922  57157 55444 59132  57268 55568 59171  57220 55538 59050  57022 55362 58772  56678 55046 58345
56192 54587 57773  55567 53997 57058  54804 53272 56200  53904 52411 55204  52866 51419 54067  51690 50292 52785
50371 49025 51358  48907 47620 49784  47292 46064 48053  45518 44358 46160  43578 42486 44096  41459 40445 41850
39149 38213 39406  36626 35778 36744  34027 33136 34179  31629 30302 32327  28951 27172 30221  25934 23676 27811
22489 19723 25019  18465 15153 21705  13576 9659 17615  9738 5998 13672  54804 53272 56200
54804 53272 56200  34281 33207 36339  40289 39062 42425  44466 43140 46635  47663 46263 49839  50209 48755 52376
52275 50777 54420  53958 52430 56074  55327 53776 57403  56427 54862 58456  57289 55715 59267  57941 56365 59861
58398 56827 60256  58677 57113 60468  58789 57237 60510  58744 57211 60387  58546 57034 60111  58202 56715 59686
57717 56260 59114  57092 55670 58399  56329 54944 57542  55429 54084 56545  54392 53092 55408  53214 51964 54126
51895 50698 52699  50430 49288 51123  48814 47733 49390  47039 46026 47496  45097 44155 45432  42977 42107 43183
40663 39874 40736  38137 37435 38072  35437 34778 35296  33036 31941 33440  30352 28803 31331  27328 25300 28915
23873 21339 26112  19836 16754 22788  14922 11229 18675  10033 6182 14086  54804 53272 56200
54804 53272 56200  35194 34286 37052  41403 40336 43346  45665 44493 47642  48912 47665 50897  51490 50190 53468
53578 52235 55536  55280 53903 57206  56663 55264 58550  57773 56361 59615  58645 57222 60434  59303 57880 61035
59767 58346 61437  60051 58639 61654  60167 58767 61699  60124 58740 61582  59929 58567 61307  59588 58252 60883
59103 57797 60312  58479 57207 59598  57717 56482 58742  56816 55621 57744  55778 54629 56605  54599 53498 55324
53278 52231 53895  51811 50822 52316  50191 49262 50581  48413 47548 48682  46466 45673 46613  44339 43621 44357
42018 41381 41904  39484 38935 39231  36710 36255 36312  34279 33403 34409  31580 30250 32285  28535 26724 29850
25051 22729 27023  20970 18099 23658  15979 12496 19476  10174 6269 14284  54804 53272 56200
54804 53272 56200  35585 34853 37231  42174 41276 43914  46588 45583 48366  49921 48837 51708  52556 51416 54338
54685 53498 56446  56417 55200 58148  57823 56583 59516  58952 57695 60601  59839 58575 61435  60510 59240 62049
60983 59717 62461  61275 60018 62687  61399 60153 62739  61361 60135 62626  61170 59965 62357  60832 59650 61937
60350 59199 61368  59727 58609 60655  58965 57883 59800  58064 57026 58803  57025 56031 57662  55844 54899 56377
54520 53629 54945  53047 52212 53360  51422 50649 51621  49637 48928 49715  47682 47045 47637  45545 44985 45371
43212 42734 42905  40663 40269 40217  37870 37574 37279  35358 34688 35229  32631 31505 33080  29550 27942 30614
26015 23894 27739  21857 19178 24306  16731 13432 20002  10142 6250 14241  54804 53272 56200
54804 53272 56200  54804 53272 56200  42564 41843 44091  47215 46380 48786  50678 49762 52263  53397 52423 54977
55585 54565 57147  57361 56305 58895  58802 57722 60298  59958 58864 61410  60867 59762 62268  61555 60446 62899
62044 60939 63326  62348 61251 63563  62480 61393 63626  62451 61382 63521  62266 61221 63259  61933 60909 62842
61454 60461 62276  60833 59875 61566  60072 59150 60712  59170 58289 59713  58128 57293 58570  56945 56158 57282
55616 54881 55845  54138 53460 54255  52505 51889 52507  50709 50160 50593  48742 48266 48502  46591 46192 46221
44240 43922 43736  41668 41438 41026  38849 38713 38060  36264 35789 35893  33498 32565 33710  30364 28945 31196
26754 24815 28254  22479 19978 24716  17141 14003 20221  54804 53272 56200  54804 53272 56200
54804 53272 56200  54804 53272 56200  42502 41971 43803  47513 46861 48869  51162 50423 52536  53999 53197 55372
56268 55418 57625  58105 57218 59435  59592 58680 60885  60785 59856 62034  61723 60785 62922  62435 61491 63579
62943 62002 64026  63264 62329 64280  63409 62487 64356  63390 62483 64262  63213 62329 64006  62886 62025 63597
62411 61581 63035  61793 60995 62327  61033 60274 61474  60130 59413 60475  59086 58413 59329  57898 57275 58037
56562 55993 56594  55077 54565 54995  53433 52983 53236  51625 51243 51308  49641 49330 49200  47471 47236 46900
45096 44944 44390  42495 42430 41650  39640 39671 38647  36991 36702 36396  34170 33418 34165  30963 29720 31585
27248 25477 28548  22806 20459 24861  17146 14142 20076  54804 53272 56200  54804 53272 56200
54804 53272 56200  54804 53272 56200  41857 41535 42920  47426 46966 48556  51341 50784 52497  54339 53716 55497
56718 56046 57864  58635 57925 59755  60182 59443 61267  61422 60664 62465  62399 61630 63392  63141 62367 64080
63675 62904 64553  64015 63250 64828  64177 63423 64921  64171 63434 64840  64006 63288 64596  63685 62994 64194
63217 62555 63639  62601 61972 62934  61842 61251 62081  60939 60386 61080  59891 59387 59933  58698 58240 58634
57355 56951 57184  55858 55512 55574  54201 53918 53801  52377 52160 51856  50373 50232 49728  48177 48112 47402
45772 45790 44861  43133 43242 42081  40230 40434 39031  37525 37405 36728  34633 34045 34433  31328 30242 31763
27469 25849 28599  22790 20576 24696  16630 13725 19464  54804 53272 56200  54804 53272 56200
54804 53272 56200  54804 53272 56200  40358 40269 41160  46865 46609 47758  51165 50807 52094  54385 53949 55322
56910 56421 57837  58931 58402 59835  60557 59999 61429  61857 61277 62689  62882 62292 63666  63664 63066 64393
64229 63630 64897  64595 64002 65200  64778 64197 65313  64788 64223 65249  64635 64092 65019  64325 63806 64627
63863 63370 64078  63252 62795 63378  62494 62074 62527  61589 61209 61524  60538 60202 60372  59337 59052 59068
57984 57756 57606  56475 56301 55985  54801 54693 54195  52956 52915 52228  50927 50957 50073  48700 48807 47715
46255 46451 45134  43569 43854 42304  40604 40987 39190  37851 37886 36872  34866 34429 34492  31430 30486 31708
27373 25879 28363  22349 20238 24151  15351 12488 18167  54804 53272 56200  54804 53272 56200
54804 53272 56200  54804 53272 56200  54804 53272 56200  45668 45635 46308  50560 50405 51251  54089 53851 54795
56811 56515 57512  58968 58627 59650  60695 60322 61348  62073 61679 62687  63159 62750 63727  63989 63573 64504
64593 64175 65049  64991 64577 65384  65199 64795 65523  65230 64843 65479  65093 64723 65266  64795 64453 64886
64341 64024 64346  63735 63453 63651  62978 62735 62801  62072 61867 61797  61016 60856 60640  59807 59699 59327
58442 58387 57854  56917 56921 56215  55223 55290 54403  53352 53490 52412  51291 51502 50225  49025 49315 47826
46532 46906 45195  43784 44252 42303  40743 41314 39110  37946 38123 36808  34839 34530 34319  31227 30400 31376
26893 25499 27783  21340 19294 23096  54804 53272 56200  54804 53272 56200  54804 53272 56200
54804 53272 56200  54804 53272 56200  54804 53272 56200  43485 43704 43845  49394 49461 49833  53380 53355 53847
56372 56279 56839  58711 58567 59164  60569 60390 60996  62046 61841 62436  63208 62987 63553  64099 63866 64394
64752 64517 64988  65189 64960 65363  65429 65208 65535  65484 65279 65518  65367 65182 65323  65083 64922 64960
64640 64505 64430  64039 63938 63740  63285 63220 62892  62377 62356 61888  61314 61337 60724  60096 60168 59400
58716 58845 57911  57171 57357 56252  55452 55704 54417  53550 53870 52391  51450 51844 50164  49135 49612 47716
46581 47146 45023  43757 44414 42052  40617 41381 38758  37777 38074 36507  34508 34312 33873  30655 29923 30712
25911 24582 26752  19447 17404 21247  54804 53272 56200  54804 53272 56200  54804 53272 56200
54804 53272 56200  54804 53272 56200  54804 53272 56200  54804 53272 56200  47415 47729 47580  52138 52336 52349
55520 55640 55744  58107 58169 58323  60138 60161 60332  61743 61735 61903  63003 62976 63121  63970 63934 64039
64683 64641 64696  65169 65129 65119  65448 65418 65331  65535 65516 65347  65441 65441 65177  65175 65201 64830
64744 64798 64314  64151 64235 63632  63399 63521 62786  62488 62652 61778  61418 61630 60608  60187 60446 59270
58790 59105 57765  57221 57598 56081  55472 55914 54213  53530 54043 52149  51382 51968 49871  49006 49676 47361
46376 47135 44589  43453 44309 41519  40292 41167 38317  37298 37698 35929  33807 33696 33094  29604 28934 29620
24202 22887 25068  54804 53272 56200  54804 53272 56200  54804 53272 56200  54804 53272 56200
54804 53272 56200  54804 53272 56200  54804 53272 56200  54804 53272 56200  54804 53272 56200  50137 50581 50075
54133 54482 54099  57078 57357 57043  59345 59578 59295  61119 61318 61040  62506 62683 62387  63571 63735 63407
64360 64517 64142  64907 65065 64628  65234 65400 64891  65359 65535 64945  65294 65490 64803  65051 65268 64480
64634 64881 63979  64050 64329 63306  63301 63615 62463  62387 62743 61452  61309 61713 60273  60063 60518 58920
58644 59154 57391  57045 57617 55679  55258 55895 53771  53268 53975 51656  51059 51844 49318  48607 49476 46729
45879 46842 43857  42830 43895 40656  39643 40607 37586  36438 36909 35007  32627 32568 31886  27875 27217 27917
54804 53272 56200  54804 53272 56200  54804 53272 56200  54804 53272 56200  54804 53272 56200
54804 53272 56200  54804 53272 56200  54804 53272 56200  54804 53272 56200  54804 53272 56200  46851 47575 46481
51989 52584 51676  55490 56004 55194  58100 58556 57795  60107 60525 59780  61662 62051 61301  62855 63227 62450
63744 64107 63287  64368 64731 63853  64756 65125 64177  64928 65306 64280  64901 65294 64177  64684 65103 63881
64286 64731 63398  63713 64190 62737  62967 63483 61898  62050 62607 60883  60961 61563 59692  59696 60349 58321
58250 58958 56765  56615 57387 55014  54780 55621 53058  52729 53640 50881  50443 51434 48463  47892 48973 45772
45036 46210 42770  41818 43099 39396  38591 39615 36490  35080 35590 33637  30769 30716 30067  24996 24274 25182
54804 53272 56200  54804 53272 56200  54804 53272 56200  54804 53272 56200  54804 53272 56200
54804 53272 56200  54804 53272 56200  54804 53272 56200  54804 53272 56200  54804 53272 56200  54804 53272 56200
48568 49450 47945  53102 53873 52521  56253 56951 55679  58602 59251 58014  60394 61010 59777  61760 62352 61104
62780 63359 62076  63504 64081 62744  63971 64550 63150  64204 64791 63314  64222 64828 63259  64040 64667 62998
63666 64317 62541  63107 63791 61893  62366 63085 61058  61444 62205 60039  60341 61149 58834  59052 59913 57438
57572 58492 55847  55891 56872 54048  53995 55046 52030  51866 52994 49774  49478 50686 47250  46797 48097 44426
43768 45169 41246  40313 41825 37629  37000 38048 34912  33003 33508 31624  27770 27641 27224  54804 53272 56200
54804 53272 56200  54804 53272 56200  54804 53272 56200  54804 53272 56200  54804 53272 56200
54804 53272 56200  54804 53272 56200  54804 53272 56200  54804 53272 56200  54804 53272 56200  54804 53272 56200
54804 53272 56200  49330 50397 48431  53513 54478 52645  56421 57320 55554  58570 59424 57684  60184 61010 59265
61385 62194 60423  62246 63047 61232  62817 63618 61743  63130 63938 61989  63209 64032 61997  63071 63911 61780
62727 63596 61355  62185 63085 60724  61450 62386 59896  60522 61499 58871  59401 60428 57647  58083 59161 56222
56558 57695 54583  54816 56019 52724  52840 54114 50623  50608 51960 48260  48083 49521 45597  45220 46755 42587
41943 43584 39152  38388 39934 35710  34610 35627 32618  29691 30099 28500  54804 53272 56200  54804 53272 56200
54804 53272 56200  54804 53272 56200  54804 53272 56200  54804 53272 56200  54804 53272 56200
54804 53272 56200  54804 53272 56200  54804 53272 56200  54804 53272 56200  54804 53272 56200  54804 53272 56200
54804 53272 56200  54804 53272 56200  49138 50416 47937  53186 54366 52014  55949 57068 54773  57955 59033 56755
59426 60480 58190  60484 61525 59201  61200 62235 59861  61622 62664 60221  61784 62837 60312  61705 62773 60157
61401 62495 59772  60883 62006 59166  60155 61315 58345  59220 60424 57312  58076 59326 56065  56717 58022 54597
55133 56500 52899  53309 54742 50955  51224 52731 48742  48845 50435 46229  46124 47808 43366  42991 44775 40077
39323 41227 36243  35555 37041 33016  30757 31640 29008  54804 53272 56200  54804 53272 56200  54804 53272 56200
54804 53272 56200  54804 53272 56200  54804 53272 56200  54804 53272 56200  54804 53272 56200
54804 53272 56200  54804 53272 56200  54804 53272 56200  54804 53272 56200  54804 53272 56200  54804 53272 56200
54804 53272 56200  54804 53272 56200  54804 53272 56200  54804 53272 56200  51989 53407 50489  54731 56091 53227
56659 57981 55130  58026 59326 56459  58964 60251 57346  59548 60837 57871  59826 61123 58082  59831 61142 58014
59584 60920 57685  59098 60461 57113  58382 59781 56304  57436 58879 55260  56259 57752 53979  54844 56391 52454
53175 54787 50669  51234 52915 48605  48988 50747 46227  46388 48236 43487  43358 45309 40306  39767 41832 36549
35722 37619 32715  54804 53272 56200  54804 53272 56200  54804 53272 56200  54804 53272 56200  54804 53272 56200
54804 53272 56200  54804 53272 56200  54804 53272 56200  54804 53272 56200  54804 53272 56200
54804 53272 56200  54804 53272 56200  54804 53272 56200  54804 53272 56200  54804 53272 56200  54804 53272 56200
54804 53272 56200  54804 53272 56200  54804 53272 56200  54804 53272 56200  54804 53272 56200  49584 51276 47725
52529 54155 50672  54488 56076 52607  55811 57376 53890  56661 58218 54688  57126 58688 55090  57261 58834 55155
57100 58695 54916  56664 58285 54393  55963 57620 53601  55001 56703 52541  53775 55527 51209  52273 54084 49595
50476 52351 47678  48348 50299 45422  45836 47872 42772  42850 44985 39636  39228 41483 35848  34809 37048 31445
54804 53272 56200  54804 53272 56200  54804 53272 56200  54804 53272 56200  54804 53272 56200  54804 53272 56200
54804 53272 56200  54804 53272 56200  54804 53272 56200  54804 53272 56200  54804 53272 56200
54804 53272 56200  54804 53272 56200  54804 53272 56200  54804 53272 56200  54804 53272 56200  54804 53272 56200
54804 53272 56200  54804 53272 56200  54804 53272 56200  54804 53272 56200  54804 53272 56200  54804 53272 56200
54804 53272 56200  48744 50683 46493  51005 52896 48739  52412 54279 50107  53237 55099 50879  53610 55474 51187
53601 55482 51104  53249 55155 50669  52575 54516 49903  51586 53573 48816  50275 52314 47398  48622 50724 45629
46587 48762 43467  44099 46357 40842  41029 43392 37619  37106 39592 33523  54804 53272 56200  54804 53272 56200
54804 53272 56200  54804 53272 56200  54804 53272 56200  54804 53272 56200  54804 53272 56200  54804 53272 56200
54804 53272 56200  54804 53272 56200  54804 53272 56200  54804 53272 56200  54804 53272 56200
54804 53272 56200  54804 53272 56200  54804 53272 56200  54804 53272 56200  54804 53272 56200  54804 53272 56200
54804 53272 56200  54804 53272 56200  54804 53272 56200  54804 53272 56200  54804 53272 56200  54804 53272 56200
54804 53272 56200  54804 53272 56200  54804 53272 56200  54804 53272 56200  54804 53272 56200  47783 50002 44989
48154 50378 45295  48003 50247 45067  47393 49668 44367  46340 48665 43214  44829 47210 41589  42795 45248 39429
54804 53272 56200  54804 53272 56200  54804 53272 56200  54804 53272 56200  54804 53272 56200  54804 53272 56200
54804 53272 56200  54804 53272 56200  54804 53272 56200  54804 53272 56200  54804 53272 56200  54804 53272 56200
54804 53272 56200  54804 53272 56200  54804 53272 56200  54804 53272 56200  54804 53272 56200
54804 53272 56200  54804 53272 56200  54804 53272 56200  54804 53272 56200  54804 53272 56200  54804 53272 56200
54804 53272 56200  54804 53272 56200  54804 53272 56200  54804 53272 56200  54804 53272 56200  54804 53272 56200
54804 53272 56200  54804 53272 56200  54804 53272 56200  54804 53272 56200  54804 53272 56200  54804 53272 56200
54804 53272 56200  54804 53272 56200  54804 53272 56200  54804 53272 56200  54804 53272 56200  54804 53272 56200
54804 53272 56200  54804 53272 56200  54804 53272 56200  54804 53272 56200  54804 53272 56200  54804 53272 56200
54804 53272 56200  54804 53272 56200  54804 53272 56200  54804 53272 56200  54804 53272 56200  54804 53272 56200
54804 53272 56200  54804 53272 56200  54804 53272 56200  54804 53272 56200  54804 53272 56200
