P3
41 41
65535
54813 54796 54705  54813 54796 54705  54813 54796 54705  54813 54796 54705  54813 54796 54705  54813 54796 54705
54813 54796 54705  54813 54796 54705  54813 54796 54705  54813 54796 54705  54813 54796 54705  54813 54796 54705
54813 54796 54705  54813 54796 54705  54813 54796 54705  54813 54796 54705  54813 54796 54705  54813 54796 54705
54813 54796 54705  54813 54796 54705  54813 54796 54705  54813 54796 54705  54813 54796 54705  54813 54796 54705
54813 54796 54705  54813 54796 54705  54813 54796 54705  54813 54796 54705  54813 54796 54705  54813 54796 54705
54813 54796 54705  54813 54796 54705  54813 54796 54705  54813 54796 54705  54813 54796 54705  54813 54796 54705
54813 54796 54705  54813 54796 54705  54813 54796 54705  54813 54796 54705  54813 54796 54705
54813 54796 54705  54813 54796 54705  54813 54796 54705  54813 54796 54705  54813 54796 54705  54813 54796 54705
54813 54796 54705  54813 54796 54705  54813 54796 54705  54813 54796 54705  54813 54796 54705  54813 54796 54705
54813 54796 54705  54813 54796 54705  54813 54796 54705  54813 54796 54705  54813 54796 54705  15916 15920 15854
18497 18541 18584  20610 20689 20827  22313 22422 22643  23620 23755 24047  24515 24672 25024  24944 25116 25515
54813 54796 54705  54813 54796 54705  54813 54796 54705  54813 54796 54705  54813 54796 54705  54813 54796 54705
54813 54796 54705  54813 54796 54705  54813 54796 54705  54813 54796 54705  54813 54796 54705  54813 54796 54705
54813 54796 54705  54813 54796 54705  54813 54796 54705  54813 54796 54705  54813 54796 54705
54813 54796 54705  54813 54796 54705  54813 54796 54705  54813 54796 54705  54813 54796 54705  54813 54796 54705
54813 54796 54705  54813 54796 54705  54813 54796 54705  54813 54796 54705  54813 54796 54705  54813 54796 54705
54813 54796 54705  9884 9795 9479  13112 13058 12832  16619 16616 16525  19606 19648 19678  22188 22270 22408
24428 24547 24784  26362 26513 26840  28008 28189 28597  29371 29578 30060  30446 30677 31224  31216 31466 32069
31643 31910 32558  31665 31943 32627  31167 31450 32153  29905 30185 30885  54813 54796 54705  54813 54796 54705
54813 54796 54705  54813 54796 54705  54813 54796 54705  54813 54796 54705  54813 54796 54705  54813 54796 54705
54813 54796 54705  54813 54796 54705  54813 54796 54705  54813 54796 54705  54813 54796 54705
54813 54796 54705  54813 54796 54705  54813 54796 54705  54813 54796 54705  54813 54796 54705  54813 54796 54705
54813 54796 54705  54813 54796 54705  54813 54796 54705  54813 54796 54705  54813 54796 54705  9346 9262 8963
11037 10944 10613  15038 15002 14821  18470 18485 18436  21479 21538 21611  24144 24244 24427  26513 26651 26937
28617 28790 29171  30475 30680 31149  32096 32330 32880  33484 33745 34369  34635 34921 35612  35541 35847 36598
36181 36505 37309  36525 36865 37712  36526 36877 37757  36103 36460 37362  35110 35467 36375  33235 33582 34468
54813 54796 54705  54813 54796 54705  54813 54796 54705  54813 54796 54705  54813 54796 54705  54813 54796 54705
54813 54796 54705  54813 54796 54705  54813 54796 54705  54813 54796 54705  54813 54796 54705
54813 54796 54705  54813 54796 54705  54813 54796 54705  54813 54796 54705  54813 54796 54705  54813 54796 54705
54813 54796 54705  54813 54796 54705  54813 54796 54705  54813 54796 54705  9820 9731 9417  11815 11729 11408
15789 15758 15587  19262 19280 19244  22349 22414 22500  25119 25227 25428  27617 27764 28071  29870 30053 30460
31898 32115 32613  33711 33960 34545  35318 35596 36262  36721 37025 37765  37916 38245 39054  38898 39250 40120
39654 40025 40952  40166 40554 41529  40489 40882 41876  40516 40909 41907  40112 40506 41508  39149 39543 40551
37371 37766 38780  54813 54796 54705  54813 54796 54705  54813 54796 54705  54813 54796 54705  54813 54796 54705
54813 54796 54705  54813 54796 54705  54813 54796 54705  54813 54796 54705  54813 54796 54705
54813 54796 54705  54813 54796 54705  54813 54796 54705  54813 54796 54705  54813 54796 54705  54813 54796 54705
54813 54796 54705  54813 54796 54705  8054 7982 7724  9891 9802 9486  11715 11624 11288  15757 15723 15539
19323 19339 19292  22518 22581 22661  25407 25514 25712  28034 28181 28489  30426 30612 31023  32604 32825 33333
34581 34836 35435  36365 36651 37336  37963 38278 39043  39375 39716 40556  40599 40966 41875  41852 42221 43135
42896 43264 44181  43700 44068 44987  44242 44609 45532  44490 44857 45783  44397 44764 45694  43890 44257 45192
42849 43217 44157  41051 41418 42366  37967 38335 39292  54813 54796 54705  54813 54796 54705  54813 54796 54705
54813 54796 54705  54813 54796 54705  54813 54796 54705  54813 54796 54705  54813 54796 54705
54813 54796 54705  54813 54796 54705  54813 54796 54705  54813 54796 54705  54813 54796 54705  54813 54796 54705
54813 54796 54705  7790 7720 7471  9672 9586 9276  11130 11030 10674  15118 15071 14858  18810 18817 18744
22133 22188 22246  25152 25253 25432  27911 28054 28347  30440 30622 31022  32759 32979 33480  34884 35138 35735
36825 37112 37799  38588 38907 39679  40221 40564 41405  41921 42263 43105  43427 43769 44613  44736 45078 45923
45839 46180 47027  46725 47066 47915  47376 47717 48570  47770 48111 48967  47873 48214 49074  47637 47978 48842
46987 47328 48197  45802 46144 47018  43859 44201 45083  40640 40983 41874  54813 54796 54705  54813 54796 54705
54813 54796 54705  54813 54796 54705  54813 54796 54705  54813 54796 54705  54813 54796 54705
54813 54796 54705  54813 54796 54705  54813 54796 54705  54813 54796 54705  54813 54796 54705  54813 54796 54705
7209 7145 6913  9208 9126 8831  10747 10650 10306  13955 13893 13635  17807 17800 17686  21279 21320 21342
24439 24528 24675  27336 27468 27734  30002 30175 30552  32459 32671 33152  34724 34973 35553  36809 37092 37768
38723 39039 39804  40768 41085 41856  42654 42971 43743  44360 44676 45450  45884 46200 46974  47223 47538 48315
48370 48685 49463  49316 49631 50412  50047 50362 51146  50546 50860 51647  50786 51100 51890  50731 51045 51839
50329 50643 51442  49501 49816 50620  48116 48431 49242  45929 46244 47063  42359 42676 43504  54813 54796 54705
54813 54796 54705  54813 54796 54705  54813 54796 54705  54813 54796 54705  54813 54796 54705
54813 54796 54705  54813 54796 54705  54813 54796 54705  54813 54796 54705  54813 54796 54705  6310 6254 6051
8510 8434 8162  10166 10074 9749  12315 12230 11913  16360 16332 16165  20000 20024 19997  23316 23388 23492
26360 26477 26703  29166 29327 29667  31762 31963 32413  34165 34403 34957  36388 36663 37315  38607 38900 39602
40837 41130 41832  42891 43183 43886  44773 45064 45768  46484 46774 47479  48021 48311 49018  49383 49673 50381
50565 50854 51564  51557 51846 52559  52350 52639 53353  52926 53215 53932  53267 53556 54276  53343 53631 54356
53114 53403 54132  52524 52811 53546  51480 51769 52509  49835 50125 50871  47298 47587 48342  43124 43415 44180
54813 54796 54705  54813 54796 54705  54813 54796 54705  54813 54796 54705  54813 54796 54705
54813 54796 54705  54813 54796 54705  54813 54796 54705  54813 54796 54705  54813 54796 54705  7566 7498 7257
9387 9302 9002  10856 10759 10411  14487 14434 14202  18323 18324 18237  21811 21863 21912  25014 25112 25287
27969 28111 28406  30706 30891 31299  33247 33472 33987  35608 35870 36487  38107 38375 39009  40491 40758 41392
42702 42968 43603  44745 45011 45646  46624 46888 47525  48337 48602 49239  49887 50151 50789  51268 51531 52171
52476 52739 53381  53505 53768 54412  54345 54607 55254  54983 55245 55895  55401 55662 56315  55575 55838 56494
55475 55737 56397  55052 55315 55980  54243 54505 55175  52940 53202 53879  50960 51223 51907  47928 48191 48884
54813 54796 54705  54813 54796 54705  54813 54796 54705  54813 54796 54705  54813 54796 54705
54813 54796 54705  54813 54796 54705  54813 54796 54705  54813 54796 54705  6333 6276 6073  8395 8320 8051
10010 9921 9601  12188 12105 11796  16254 16229 16070  19939 19965 19948  23314 23390 23505  26429 26551 26790
29315 29481 29838  31998 32206 32673  34522 34766 35334  37237 37480 38047  39771 40012 40579  42133 42374 42940
44328 44569 45136  46363 46602 47171  48238 48477 49046  49955 50194 50763  51513 51751 52322  52910 53147 53719
54139 54377 54951  55198 55435 56012  56076 56312 56891  56762 56998 57580  57240 57477 58061  57492 57728 58317
57489 57725 58317  57194 57429 58026  56553 56789 57391  55487 55723 56331  53864 54101 54715  51445 51683 52305
47686 47925 48557  54813 54796 54705  54813 54796 54705  54813 54796 54705  54813 54796 54705
54813 54796 54705  54813 54796 54705  54813 54796 54705  4697 4655 4505  7154 7090 6861  8971 8890 8603
10457 10362 10028  13786 13729 13488  17697 17695 17601  21267 21317 21360  24555 24653 24826  27602 27744 28039
30434 30620 31031  33152 33371 33872  36020 36238 36738  38704 38920 39420  41213 41430 41929  43557 43773 44273
45741 45956 46456  47769 47983 48483  49642 49855 50356  51361 51573 52076  52926 53139 53642  54334 54546 55052
55582 55794 56301  56665 56876 57386  57574 57784 58296  58298 58508 59023  58826 59036 59553  59138 59348 59869
59211 59421 59946  59014 59224 59753  58501 58711 59245  57608 57818 58357  56233 56444 56990  54205 54417 54970
51183 51395 51957  46237 46451 47025  54813 54796 54705  54813 54796 54705  54813 54796 54705
54813 54796 54705  54813 54796 54705  54813 54796 54705  5586 5536 5357  7704 7635 7389  9369 9285 8985
10895 10802 10466  15074 15039 14857  18867 18886 18849  22349 22418 22516  25569 25685 25910  28560 28722 29068
31446 31640 32075  34471 34665 35098  37308 37500 37933  39967 40157 40590  42456 42647 43080  44787 44976 45408
46960 47148 47582  48981 49169 49603  50852 51040 51474  52573 52760 53196  54144 54331 54768  55563 55749 56187
56826 57012 57452  57927 58113 58556  58861 59046 59491  59618 59802 60250  60184 60368 60819  60545 60729 61183
60679 60863 61321  60558 60743 61204  60144 60329 60794  59382 59566 60037  58188 58374 58851  56431 56617 57101
53866 54053 54545  49938 50125 50628  54813 54796 54705  54813 54796 54705  54813 54796 54705
54813 54796 54705  54813 54796 54705  3491 3460 3348  6147 6092 5895  8068 7995 7737  9629 9543 9235
12041 11968 11688  16098 16082 15953  19802 19838 19850  23214 23300 23446  26379 26512 26783  29406 29576 29946
32599 32767 33135  35593 35760 36127  38403 38570 38936  41041 41207 41573  43516 43680 44047  45833 45997 46363
47999 48162 48528  50015 50177 50544  51884 52046 52414  53607 53768 54138  55183 55344 55715  56610 56770 57142
57885 58045 58418  59002 59162 59538  59957 60115 60494  60738 60897 61278  61337 61496 61879  61736 61895 62282
61919 62078 62469  61860 62018 62413  61523 61681 62080  60861 61020 61424  59805 59963 60374  58244 58403 58820
55989 56149 56573  52653 52813 53247  47110 47272 47718  54813 54796 54705  54813 54796 54705
54813 54796 54705  54813 54796 54705  4152 4114 3982  6495 6437 6229  8288 8214 7949  9777 9689 9376
12927 12871 12639  16891 16890 16807  20524 20576 20632  23882 23983 24171  27030 27175 27480  30401 30545 30847
33562 33704 34006  36530 36672 36972  39320 39461 39761  41941 42081 42381  44403 44542 44841  46710 46849 47149
48869 49007 49307  50881 51018 51320  52750 52886 53188  54474 54609 54912  56053 56189 56493  57487 57622 57928
58772 58906 59214  59903 60036 60346  60873 61006 61319  61676 61809 62124  62300 62433 62750  62731 62864 63185
62953 63085 63410  62941 63074 63402  62665 62798 63131  62082 62215 62552  61130 61263 61606  59715 59848 60198
57681 57815 58172  54731 54865 55230  50125 50262 50638  54813 54796 54705  54813 54796 54705
54813 54796 54705  54813 54796 54705  4529 4488 4343  6687 6627 6413  8391 8316 8047  9825 9737 9423
13583 13542 13351  17474 17488 17445  21053 21119 21213  24369 24483 24707  27872 27990 28229  31211 31329 31567
34347 34464 34700  37295 37411 37646  40068 40183 40417  42677 42791 43025  45128 45241 45475  47428 47540 47774
49580 49693 49927  51590 51701 51936  53456 53567 53803  55182 55292 55529  56765 56875 57113  58205 58313 58553
59496 59605 59847  60638 60746 60990  61622 61730 61976  62441 62549 62797  63085 63193 63444  63542 63649 63904
63794 63901 64160  63821 63927 64190  63592 63699 63966  63070 63177 63448  62198 62305 62581  60892 61000 61283
59019 59128 59418  56334 56443 56741  52287 52397 52706  54813 54796 54705  54813 54796 54705
54813 54796 54705  54813 54796 54705  4712 4670 4519  6750 6689 6474  8393 8317 8048  9823 9736 9425
14029 14001 13845  17866 17892 17882  21404 21481 21608  24996 25090 25265  28532 28626 28799  31848 31941 32112
34965 35056 35226  37897 37987 38156  40657 40746 40915  43255 43343 43511  45697 45786 45954  47992 48078 48246
50140 50226 50396  52147 52232 52401  54013 54098 54268  55739 55824 55995  57325 57408 57581  58769 58852 59026
60067 60150 60326  61216 61299 61476  62210 62293 62472  63042 63124 63307  63703 63785 63970  64179 64260 64449
64455 64537 64729  64511 64592 64788  64319 64401 64601  63843 63924 64130  63031 63113 63323  61808 61890 62106
60053 60135 60358  57554 57638 57868  53867 53951 54192  54813 54796 54705  54813 54796 54705
54813 54796 54705  2061 2042 1977  4744 4701 4550  6703 6643 6428  8302 8228 7962  10128 10051 9772
14280 14262 14137  18079 18114 18133  21749 21820 21931  25507 25575 25685  29021 29089 29196  32319 32386 32492
35421 35487 35591  38341 38406 38509  41091 41155 41259  43681 43744 43848  46118 46180 46283  48408 48469 48572
50553 50614 50717  52558 52618 52722  54424 54483 54587  56150 56209 56314  57738 57796 57903  59185 59242 59351
60488 60545 60655  61643 61700 61812  62645 62702 62817  63487 63543 63661  64159 64215 64335  64650 64706 64829
64944 65000 65127  65022 65077 65208  64857 64913 65047  64415 64471 64610  63648 63703 63848  62483 62540 62690
60812 60869 61026  58444 58501 58667  54994 55052 55227  49369 49428 49616  54813 54796 54705
54813 54796 54705  2093 2074 2007  4650 4608 4459  6558 6499 6290  8129 8055 7795  10231 10164 9910
14348 14338 14238  18119 18163 18206  22106 22151 22197  25845 25888 25932  29345 29386 29428  32630 32672 32712
35722 35762 35801  38633 38673 38711  41377 41416 41453  43961 43999 44037  46394 46431 46468  48680 48716 48754
50824 50859 50897  52827 52861 52900  54692 54726 54765  56419 56453 56493  58008 58041 58083  59457 59489 59533
60764 60795 60840  61923 61954 62002  62930 62962 63011  63779 63810 63862  64460 64491 64545  64961 64991 65049
65267 65297 65359  65360 65389 65455  65214 65244 65314  64795 64825 64900  64058 64089 64167  62935 62965 63050
61320 61351 61442  59037 59070 59169  55739 55772 55881  50494 50529 50650  54813 54796 54705
54813 54796 54705  1951 1933 1871  4441 4401 4259  6321 6265 6062  7875 7805 7552  10143 10082 9848
14239 14235 14154  18291 18312 18295  22288 22307 22288  26015 26033 26012  29506 29523 29500  32784 32800 32775
35870 35884 35859  38777 38791 38764  41517 41529 41502  44098 44109 44082  46528 46539 46512  48812 48822 48795
50954 50964 50937  52957 52966 52939  54821 54830 54804  56549 56556 56532  58139 58146 58123  59589 59595 59574
60897 60903 60883  62059 62065 62047  63070 63076 63060  63922 63928 63915  64608 64613 64603  65115 65119 65113
65428 65433 65429  65530 65535 65535  65395 65400 65404  64991 64995 65004  64271 64276 64290  63170 63176 63195
61589 61594 61620  59355 59361 59395  56142 56149 56193  51098 51107 51162  54813 54796 54705
54813 54796 54705  1656 1641 1588  4124 4088 3956  5996 5943 5750  7545 7477 7235  9867 9811 9591
13998 13995 13917  18304 18299 18218  22296 22291 22206  26020 26012 25927  29508 29499 29412  32784 32775 32686
35868 35857 35766  38773 38761 38670  41511 41499 41407  44092 44078 43986  46521 46507 46414  48804 48789 48697
50946 50930 50838  52948 52932 52841  54813 54796 54705  56541 56523 56434  58130 58112 58025  59581 59563 59477
60890 60871 60786  62053 62034 61951  63065 63045 62965  63919 63898 63821  64606 64586 64511  65115 65094 65022
65431 65410 65341  65535 65515 65450  65404 65383 65323  65004 64983 64927  64290 64269 64219  63197 63177 63132
61626 61606 61568  59408 59389 59359  56223 56205 56183  51242 51225 51215  54813 54796 54705
54813 54796 54705  1214 1203 1165  3704 3671 3552  5585 5534 5355  7138 7074 6846  9406 9352 9141
13826 13796 13654  18137 18107 17961  22134 22103 21954  25861 25828 25678  29352 29318 29166  32631 32595 32442
35716 35680 35525  38623 38586 38430  41362 41325 41168  43944 43905 43748  46374 46334 46178  48658 48618 48461
50800 50759 50602  52803 52761 52605  54667 54625 54470  56395 56352 56198  57984 57942 57789  59435 59391 59240
60743 60699 60549  61905 61861 61713  62916 62871 62726  63769 63723 63581  64454 64408 64269  64961 64915 64779
65275 65229 65095  65376 65330 65201  65241 65195 65070  64837 64791 64670  64117 64071 63956  63017 62971 62862
61434 61390 61286  59201 59157 59061  55988 55945 55859  50944 50902 50828  54813 54796 54705
54813 54796 54705  619 614 594  3176 3147 3046  5085 5039 4876  6655 6595 6382  8758 8703 8496
13459 13405 13198  17788 17733 17523  21799 21742 21530  25537 25479 25264  29037 28977 28761  32323 32263 32044
35414 35353 35134  38326 38263 38044  41070 41006 40785  43654 43590 43369  46087 46022 45801  48372 48307 48086
50516 50450 50229  52520 52452 52232  54384 54317 54098  56112 56044 55826  57701 57632 57415  59149 59080 58865
60456 60386 60172  61615 61545 61334  62623 62553 62344  63472 63401 63194  64152 64081 63878  64653 64582 64381
64959 64888 64691  65052 64981 64787  64906 64835 64645  64488 64416 64232  63750 63679 63500  62627 62556 62382
61012 60942 60775  58730 58660 58500  55432 55363 55213  50187 50120 49982  54813 54796 54705
54813 54796 54705  0 0 0  2534 2511 2430  4493 4452 4308  6092 6037 5842  8138 8060 7793
12894 12815 12544  17254 17174 16899  21288 21206 20930  25045 24962 24683  28560 28475 28195  31858 31773 31490
34960 34873 34590  37880 37792 37508  40630 40542 40257  43220 43131 42845  45657 45567 45282  47947 47856 47571
50092 50000 49715  52096 52004 51720  53962 53869 53586  55689 55595 55313  57276 57182 56901  58723 58629 58350
60026 59931 59654  61182 61086 60811  62183 62088 61815  63025 62930 62659  63698 63602 63334  64188 64092 63827
64483 64386 64124  64560 64463 64206  64395 64299 64046  63954 63857 63609  63186 63090 62846  62022 61926 61689
60351 60255 60024  57983 57887 57665  54533 54439 54226  48907 48815 48615  54813 54796 54705
54813 54796 54705  54813 54796 54705  1764 1749 1692  3803 3769 3647  5445 5396 5222  7308 7205 6875
12124 12020 11685  16528 16422 16085  20596 20489 20149  24381 24272 23929  27918 27807 27463  31233 31122 30776
34350 34238 33891  37282 37169 36821  40042 39928 39579  42639 42525 42176  45083 44967 44618  47376 47260 46911
49525 49408 49060  51532 51414 51066  53398 53280 52932  55124 55006 54659  56709 56590 56246  58153 58034 57691
59451 59332 58990  60601 60481 60141  61595 61475 61137  62427 62306 61971  63087 62966 62634  63564 63442 63114
63840 63718 63393  63895 63774 63452  63704 63582 63265  63228 63106 62794  62416 62294 61987  61193 61071 60771
59437 59317 59022  56939 56819 56533  53252 53133 52857  54813 54796 54705  54813 54796 54705
54813 54796 54705  54813 54796 54705  845 837 810  3002 2976 2879  4707 4665 4514  6762 6646 6286
11137 11007 10610  15602 15470 15070  19716 19584 19180  23537 23403 22997  27102 26968 26560  30443 30306 29897
33578 33441 33030  36526 36388 35976  39299 39160 38748  41907 41768 41355  44359 44218 43805  46659 46517 46105
48812 48670 48258  50821 50678 50267  52688 52544 52134  54413 54269 53860  55996 55852 55443  57435 57290 56884
58728 58583 58177  59869 59724 59320  60853 60707 60306  61672 61526 61128  62317 62170 61774  62773 62626 62234
63025 62879 62490  63051 62904 62520  62823 62676 62296  62301 62154 61778  61429 61282 60912  60124 59977 59613
58250 58105 57748  55566 55420 55072  51518 51374 51036  54813 54796 54705  54813 54796 54705
54813 54796 54705  54813 54796 54705  0 0 0  2075 2056 1989  3952 3909 3763  6135 6010 5634
9916 9761 9301  14460 14304 13840  18635 18478 18011  22503 22345 21876  26108 25948 25476  29478 29317 28845
32639 32476 32003  35608 35444 34970  38397 38233 37757  41018 40854 40377  43480 43314 42838  45788 45621 45146
47947 47779 47304  49959 49791 49316  51827 51658 51184  53551 53382 52909  55131 54962 54489  56564 56395 55925
57849 57679 57210  58980 58809 58343  59951 59779 59316  60753 60581 60120  61377 61205 60747  61809 61637 61181
62030 61858 61407  62019 61846 61399  61743 61570 61127  61159 60988 60549  60207 60035 59603  58792 58621 58195
56758 56587 56168  53808 53638 53227  49202 49034 48635  54813 54796 54705  54813 54796 54705
54813 54796 54705  54813 54796 54705  0 0 0  988 980 948  3100 3055 2912  5380 5250 4868
8437 8257 7734  13085 12904 12378  17339 17156 16627  21268 21084 20553  24920 24735 24201  28330 28144 27608
31522 31335 30798  34516 34328 33790  37327 37138 36599  39964 39775 39236  42440 42248 41709  44757 44565 44026
46922 46730 46191  48938 48745 48207  50807 50614 50077  52531 52337 51800  54106 53912 53377  55534 55338 54805
56808 56613 56082  57926 57730 57201  58880 58684 58157  59662 59466 58941  60260 60064 59542  60660 60463 59946
60843 60646 60132  60783 60586 60076  60446 60249 59743  59785 59588 59087  58728 58531 58036  57167 56971 56482
54912 54717 54236  51576 51382 50910  46033 45840 45382  54813 54796 54705  54813 54796 54705
54813 54796 54705  54813 54796 54705  54813 54796 54705  0 0 0  2059 2018 1895  4475 4345 3971
6666 6462 5878  11452 11246 10658  15807 15599 15008  19813 19605 19010  23526 23316 22719  26984 26773 26175
30216 30004 29404  33242 33028 32427  36077 35863 35262  38736 38521 37919  41227 41011 40409  43556 43339 42737
45730 45512 44910  47751 47533 46932  49622 49403 48803  51343 51124 50525  52914 52694 52097  54333 54112 53516
55596 55375 54781  56698 56476 55884  57631 57410 56820  58387 58166 57579  58954 58732 58148  59315 59093 58512
59449 59227 58650  59328 59106 58533  58914 58692 58124  58151 57930 57366  56959 56737 56180  55202 54980 54430
52636 52416 51874  48708 48489 47958  54813 54796 54705  54813 54796 54705  54813 54796 54705
54813 54796 54705  54813 54796 54705  54813 54796 54705  0 0 0  773 743 661  3389 3264 2914
5568 5363 4783  9524 9293 8644  14009 13777 13124  18115 17881 17225  21904 21670 21011  25423 25187 24527
28703 28467 27805  31768 31530 30867  34636 34397 33733  37320 37079 36415  39829 39589 38924  42173 41932 41268
44357 44115 43451  46385 46141 45478  48258 48014 47351  49977 49733 49071  51542 51297 50637  52950 52705 52047
54198 53953 53296  55281 55035 54381  56189 55943 55291  56914 56668 56018  57442 57195 56548  57753 57507 56864
57827 57580 56941  57630 57383 56748  57117 56870 56240  56224 55977 55352  54849 54603 53984  52822 52576 51965
49799 49554 48952  44853 44610 44020  54813 54796 54705  54813 54796 54705  54813 54796 54705
54813 54796 54705  54813 54796 54705  54813 54796 54705  54813 54796 54705  165 149 106  2068 1957 1650
4419 4221 3670  7249 6993 6283  11908 11651 10936  16141 15882 15165  20028 19769 19049  23623 23362 22641
26964 26703 25979  30078 29815 29090  32985 32721 31994  35699 35434 34708  38233 37967 37241  40594 40328 39601
42791 42523 41797  44825 44557 43831  46701 46432 45707  48418 48148 47424  49975 49706 48983  51371 51101 50380
52602 52331 51612  53660 53389 52673  54538 54267 53552  55224 54952 54241  55703 55431 54723  55954 55683 54977
55951 55679 54978  55656 55384 54688  55015 54744 54053  53949 53677 52992  52326 52055 51376  49908 49638 48967
46149 45879 45218  54813 54796 54705  54813 54796 54705  54813 54796 54705  54813 54796 54705
54813 54796 54705  54813 54796 54705  54813 54796 54705  54813 54796 54705  54813 54796 54705  955 861 611
3037 2852 2351  5195 4931 4201  9444 9162 8387  13846 13563 12784  17860 17575 16794  21553 21268 20484
24971 24684 23899  28145 27857 27071  31100 30811 30024  33852 33563 32774  36415 36125 35337  38799 38508 37719
41011 40718 39930  43053 42761 41973  44932 44639 43852  46646 46352 45566  48195 47900 47116  49576 49281 48498
50784 50489 49708  51813 51518 50740  52653 52358 51582  53291 52994 52221  53709 53412 52643  53884 53587 52821
53783 53486 52724  53361 53064 52307  52551 52255 51503  51248 50952 50206  49269 48973 48234  46236 45941 45211
54813 54796 54705  54813 54796 54705  54813 54796 54705  54813 54796 54705  54813 54796 54705
54813 54796 54705  54813 54796 54705  54813 54796 54705  54813 54796 54705  54813 54796 54705  733 661 468
1653 1490 1057  3725 3476 2804  6528 6221 5386  11163 10855 10017  15347 15037 14195  19167 18857 18013
22684 22372 21526  25935 25623 24775  28951 28637 27789  31751 31436 30587  34350 34035 33186  36761 36445 35596
38992 38675 37825  41046 40728 39879  42927 42610 41761  44638 44319 43472  46176 45857 45011  47538 47218 46375
48720 48400 47558  49712 49391 48552  50504 50184 49347  51081 50760 49926  51422 51101 50270  51498 51176 50350
51269 50948 50125  50678 50357 49540  49635 49314 48502  47990 47670 46864  45452 45132 44335  41279 40960 40174
54813 54796 54705  54813 54796 54705  54813 54796 54705  54813 54796 54705  54813 54796 54705
54813 54796 54705  54813 54796 54705  54813 54796 54705  54813 54796 54705  54813 54796 54705  54813 54796 54705
1416 1277 906  2273 2049 1453  4152 3848 3028  7987 7655 6756  12407 12074 11171  16401 16066 15162
20048 19712 18806  23401 23064 22156  26495 26157 25247  29355 29016 28106  32002 31662 30751  34447 34106 33195
36700 36358 35448  38768 38426 37516  40654 40312 39403  42361 42017 41109  43885 43540 42634  45224 44879 43974
46370 46026 45123  47317 46971 46071  48048 47703 46805  48546 48201 47306  48786 48441 47549  48732 48386 47499
48330 47984 47102  47502 47156 46280  46117 45772 44901  43930 43586 42722  40360 40017 39163  54813 54796 54705
54813 54796 54705  54813 54796 54705  54813 54796 54705  54813 54796 54705  54813 54796 54705
54813 54796 54705  54813 54796 54705  54813 54796 54705  54813 54796 54705  54813 54796 54705  54813 54796 54705
54813 54796 54705  1999 1803 1278  2819 2542 1803  4319 3967 3021  8911 8554 7592  13153 12794 11830
16982 16622 15655  20471 20110 19141  23670 23307 22337  26610 26247 25276  29317 28952 27981  31806 31441 30470
34090 33723 32752  36176 35809 34838  38068 37700 36730  39768 39400 38431  41274 40906 39938  42583 42214 41249
43686 43316 42353  44572 44202 43241  45223 44853 43895  45617 45247 44293  45720 45350 44399  45484 45114 44167
44834 44464 43523  43650 43280 42344  41706 41337 40408  38488 38119 37200  54813 54796 54705  54813 54796 54705
54813 54796 54705  54813 54796 54705  54813 54796 54705  54813 54796 54705  54813 54796 54705
54813 54796 54705  54813 54796 54705  54813 54796 54705  54813 54796 54705  54813 54796 54705  54813 54796 54705
54813 54796 54705  54813 54796 54705  2482 2238 1587  3287 2964 2102  4620 4238 3219  9253 8869 7847
13352 12967 11942  17037 16651 15624  20382 19994 18965  23432 23043 22014  26220 25831 24801  28769 28379 27348
31093 30702 29671  33202 32811 31780  35102 34710 33680  36794 36401 35373  38278 37885 36858  39546 39152 38127
40590 40195 39172  41393 40999 39979  41935 41541 40524  42183 41789 40775  42090 41696 40686  41584 41189 40184
40542 40148 39149  38744 38350 37358  35660 35267 34283  54813 54796 54705  54813 54796 54705  54813 54796 54705
54813 54796 54705  54813 54796 54705  54813 54796 54705  54813 54796 54705  54813 54796 54705
54813 54796 54705  54813 54796 54705  54813 54796 54705  54813 54796 54705  54813 54796 54705  54813 54796 54705
54813 54796 54705  54813 54796 54705  54813 54796 54705  54813 54796 54705  3664 3303 2343  4926 4513 3416
8914 8505 7422  12909 12499 11413  16475 16063 14975  19686 19273 18185  22592 22179 21089  25225 24810 23721
27605 27190 26100  29747 29331 28242  31658 31241 30152  33339 32922 31835  34790 34372 33286  36002 35584 34500
36961 36543 35461  37647 37229 36150  38028 37609 36534  38055 37637 36565  37652 37233 36166  36688 36270 35208
34911 34493 33438  54813 54796 54705  54813 54796 54705  54813 54796 54705  54813 54796 54705  54813 54796 54705
54813 54796 54705  54813 54796 54705  54813 54796 54705  54813 54796 54705  54813 54796 54705
54813 54796 54705  54813 54796 54705  54813 54796 54705  54813 54796 54705  54813 54796 54705  54813 54796 54705
54813 54796 54705  54813 54796 54705  54813 54796 54705  54813 54796 54705  54813 54796 54705  3913 3529 2502
4823 4375 3183  8269 7829 6670  11651 11215 10071  15128 14691 13546  18221 17784 16637  20984 20545 19397
23450 23011 21863  25641 25201 24053  27567 27127 25980  29233 28792 27646  30635 30193 29049  31760 31318 30176
32590 32148 31008  33090 32646 31510  33204 32762 31630  32846 32403 31275  31851 31409 30287  29869 29427 28312
54813 54796 54705  54813 54796 54705  54813 54796 54705  54813 54796 54705  54813 54796 54705  54813 54796 54705
54813 54796 54705  54813 54796 54705  54813 54796 54705  54813 54796 54705  54813 54796 54705
54813 54796 54705  54813 54796 54705  54813 54796 54705  54813 54796 54705  54813 54796 54705  54813 54796 54705
54813 54796 54705  54813 54796 54705  54813 54796 54705  54813 54796 54705  54813 54796 54705  54813 54796 54705
54813 54796 54705  4707 4244 3010  7311 6833 5566  10388 9916 8678  13076 12611 11395  15661 15198 13995
18279 17816 16612  20555 20091 18887  22508 22044 20841  24146 23682 22480  25464 24998 23798  26438 25972 24774
27029 26563 25368  27169 26703 25512  26726 26260 25073  25832 25363 24169  54813 54796 54705  54813 54796 54705
54813 54796 54705  54813 54796 54705  54813 54796 54705  54813 54796 54705  54813 54796 54705  54813 54796 54705
54813 54796 54705  54813 54796 54705  54813 54796 54705  54813 54796 54705  54813 54796 54705
54813 54796 54705  54813 54796 54705  54813 54796 54705  54813 54796 54705  54813 54796 54705  54813 54796 54705
54813 54796 54705  54813 54796 54705  54813 54796 54705  54813 54796 54705  54813 54796 54705  54813 54796 54705
54813 54796 54705  54813 54796 54705  54813 54796 54705  54813 54796 54705  54813 54796 54705  10803 10294 8954
13189 12685 11362  15227 14725 13417  16957 16458 15159  18393 17895 16602  19523 19023 17732  20304 19803 18508
54813 54796 54705  54813 54796 54705  54813 54796 54705  54813 54796 54705  54813 54796 54705  54813 54796 54705
54813 54796 54705  54813 54796 54705  54813 54796 54705  54813 54796 54705  54813 54796 54705  54813 54796 54705
54813 54796 54705  54813 54796 54705  54813 54796 54705  54813 54796 54705  54813 54796 54705
54813 54796 54705  54813 54796 54705  54813 54796 54705  54813 54796 54705  54813 54796 54705  54813 54796 54705
54813 54796 54705  54813 54796 54705  54813 54796 54705  54813 54796 54705  54813 54796 54705  54813 54796 54705
54813 54796 54705  54813 54796 54705  54813 54796 54705  54813 54796 54705  54813 54796 54705  54813 54796 54705
54813 54796 54705  54813 54796 54705  54813 54796 54705  54813 54796 54705  54813 54796 54705  54813 54796 54705
54813 54796 54705  54813 54796 54705  54813 54796 54705  54813 54796 54705  54813 54796 54705  54813 54796 54705
54813 54796 54705  54813 54796 54705  54813 54796 54705  54813 54796 54705  54813 54796 54705  54813 54796 54705
54813 54796 54705  54813 54796 54705  54813 54796 54705  54813 54796 54705  54813 54796 54705
