P3
41 41
65535
54804 54378 51159  54804 54378 51159  54804 54378 51159  54804 54378 51159  54804 54378 51159  54804 54378 51159
54804 54378 51159  54804 54378 51159  54804 54378 51159  54804 54378 51159  54804 54378 51159  54804 54378 51159
54804 54378 51159  54804 54378 51159  54804 54378 51159  54804 54378 51159  54804 54378 51159  54804 54378 51159
54804 54378 51159  54804 54378 51159  54804 54378 51159  54804 54378 51159  54804 54378 51159  54804 54378 51159
54804 54378 51159  54804 54378 51159  54804 54378 51159  54804 54378 51159  54804 54378 51159  54804 54378 51159
54804 54378 51159  54804 54378 51159  54804 54378 51159  54804 54378 51159  54804 54378 51159  54804 54378 51159
54804 54378 51159  54804 54378 51159  54804 54378 51159  54804 54378 51159  54804 54378 51159
54804 54378 51159  54804 54378 51159  54804 54378 51159  54804 54378 51159  54804 54378 51159  54804 54378 51159
54804 54378 51159  54804 54378 51159  54804 54378 51159  54804 54378 51159  54804 54378 51159  54804 54378 51159
54804 54378 51159  54804 54378 51159  54804 54378 51159  54804 54378 51159  54804 54378 51159  46721 46656 50660
46959 46813 50741  46675 46450 50332  45932 45633 49497  44746 44376 48247  43101 42663 46568  40934 40433 44406
54804 54378 51159  54804 54378 51159  54804 54378 51159  54804 54378 51159  54804 54378 51159  54804 54378 51159
54804 54378 51159  54804 54378 51159  54804 54378 51159  54804 54378 51159  54804 54378 51159  54804 54378 51159
54804 54378 51159  54804 54378 51159  54804 54378 51159  54804 54378 51159  54804 54378 51159
54804 54378 51159  54804 54378 51159  54804 54378 51159  54804 54378 51159  54804 54378 51159  54804 54378 51159
54804 54378 51159  54804 54378 51159  54804 54378 51159  54804 54378 51159  54804 54378 51159  54804 54378 51159
54804 54378 51159  48292 48534 52349  50419 50564 54190  51693 51747 55239  52385 52354 55742  52625 52511 55823
52482 52290 55546  51997 51728 54954  51191 50847 54058  50068 49654 52869  48625 48141 51377  46838 46288 49565
44670 44057 47399  42049 41375 44811  38845 38117 41678  34789 34012 37751  54804 54378 51159  54804 54378 51159
54804 54378 51159  54804 54378 51159  54804 54378 51159  54804 54378 51159  54804 54378 51159  54804 54378 51159
54804 54378 51159  54804 54378 51159  54804 54378 51159  54804 54378 51159  54804 54378 51159
54804 54378 51159  54804 54378 51159  54804 54378 51159  54804 54378 51159  54804 54378 51159  54804 54378 51159
54804 54378 51159  54804 54378 51159  54804 54378 51159  54804 54378 51159  54804 54378 51159  49474 49864 53389
52287 52575 55870  54113 54306 57435  55303 55407 58403  56019 56038 58927  56351 56286 59097  56353 56208 58957
56059 55836 58539  55489 55190 57865  54655 54282 56945  53560 53116 55776  52201 51687 54365  50566 49984 52698
48635 47989 50754  46374 45664 48499  43729 42960 45890  40610 39784 42837  36855 35978 39188  32113 31193 34618
54804 54378 51159  54804 54378 51159  54804 54378 51159  54804 54378 51159  54804 54378 51159  54804 54378 51159
54804 54378 51159  54804 54378 51159  54804 54378 51159  54804 54378 51159  54804 54378 51159
54804 54378 51159  54804 54378 51159  54804 54378 51159  54804 54378 51159  54804 54378 51159  54804 54378 51159
54804 54378 51159  54804 54378 51159  54804 54378 51159  54804 54378 51159  52090 52537 55623  54699 55045 57917
56494 56745 59447  57728 57891 60457  58533 58608 61067  58983 58975 61344  59128 59039 61340  59000 58831 61076
58620 58373 60581  58001 57679 59861  57151 56756 58923  56072 55604 57776  54762 54225 56407  53213 52607 54821
51412 50741 52997  49338 48602 50921  46959 46161 48554  44225 43369 45860  41062 40149 42765  37338 36374 39150
32800 31791 34771  54804 54378 51159  54804 54378 51159  54804 54378 51159  54804 54378 51159  54804 54378 51159
54804 54378 51159  54804 54378 51159  54804 54378 51159  54804 54378 51159  54804 54378 51159
54804 54378 51159  54804 54378 51159  54804 54378 51159  54804 54378 51159  54804 54378 51159  54804 54378 51159
54804 54378 51159  54804 54378 51159  49583 50206 53218  53497 54010 56731  56128 56539 59042  57999 58316 60649
59337 59564 61753  60262 60401 62474  60845 60899 62879  61135 61106 63007  61162 61054 62888  60950 60763 62551
60513 60250 62001  59861 59523 61246  59001 58589 60304  57933 57448 59161  56655 56101 57827  55163 54540 56292
53446 52755 54549  51489 50734 52579  49271 48452 50366  46759 45880 47877  43905 42968 45071  40638 39646 41878
36837 35794 38190  32279 31190 33791  26460 25334 28197  54804 54378 51159  54804 54378 51159  54804 54378 51159
54804 54378 51159  54804 54378 51159  54804 54378 51159  54804 54378 51159  54804 54378 51159
54804 54378 51159  54804 54378 51159  54804 54378 51159  54804 54378 51159  54804 54378 51159  54804 54378 51159
54804 54378 51159  49984 50683 53389  54034 54620 57026  56809 57293 59473  58825 59212 61212  60305 60602 62453
61373 61581 63305  62102 62223 63847  62539 62577 64111  62718 62675 64137  62664 62541 63945  62393 62192 63548
61916 61638 62960  61241 60889 62188  60372 59946 61233  59312 58814 60104  58058 57489 58791  56606 55968 57290
54949 54244 55602  53074 52303 53709  50965 50130 51598  48599 47702 49245  45942 44985 46623  42945 41931 43686
39535 38468 40360  35590 34474 36536  30886 29726 32000  25041 23831 26304  54804 54378 51159  54804 54378 51159
54804 54378 51159  54804 54378 51159  54804 54378 51159  54804 54378 51159  54804 54378 51159
54804 54378 51159  54804 54378 51159  54804 54378 51159  54804 54378 51159  54804 54378 51159  54804 54378 51159
49433 50211 52668  53833 54497 56633  56851 57412 59306  59067 59530 61233  60726 61097 62640  61959 62240 63646
62845 63039 64333  63437 63546 64742  63770 63796 64913  63870 63815 64861  63755 63621 64614  63440 63228 64175
62932 62644 63561  62240 61877 62772  61365 60929 61813  60310 59802 60688  59074 58495 59387  57653 57003 57921
56039 55322 56271  54224 53442 54433  52196 51348 52400  49934 49024 50145  47413 46443 47651  44598 43569 44879
41436 40352 41784  37848 36711 38293  33703 32518 34281  28756 27529 29523  22985 21660 23576  54804 54378 51159
54804 54378 51159  54804 54378 51159  54804 54378 51159  54804 54378 51159  54804 54378 51159
54804 54378 51159  54804 54378 51159  54804 54378 51159  54804 54378 51159  54804 54378 51159  47926 48794 51053
52930 53679 55585  56299 56941 58586  58775 59318 60756  60649 61097 62363  62071 62428 63548  63131 63400 64392
63887 64069 64955  64377 64475 65271  64632 64648 65369  64671 64606 65262  64510 64367 64968  64160 63940 64499
63629 63332 63864  62923 62552 63062  62044 61599 62099  60994 60477 60973  59771 59184 59690  58373 57716 58245
56794 56068 56629  55026 54234 54834  53058 52201 52856  50874 49954 50673  48454 47473 48273  45770 44730 45626
42781 41683 42692  39430 38278 39422  35627 34424 35730  31222 29972 31476  25924 24635 26385  20292 18824 20020
54804 54378 51159  54804 54378 51159  54804 54378 51159  54804 54378 51159  54804 54378 51159
54804 54378 51159  54804 54378 51159  54804 54378 51159  54804 54378 51159  54804 54378 51159  51288 52127 53845
55152 55880 57307  57962 58589 59788  60096 60627 61638  61738 62174 63028  62991 63338 64056  63923 64183 64785
64579 64753 65254  64993 65084 65497  65187 65196 65535  65178 65107 65386  64981 64830 65062  64604 64376 64567
64054 63751 63911  63337 62959 63096  62454 62003 62133  61408 60885 61012  60196 59602 59741  58817 58153 58309
57265 56533 56719  55533 54735 54958  53613 52749 53027  51490 50562 50899  49148 48158 48571  46562 45511 46018
43701 42592 43204  40519 39354 40092  36949 35732 36613  32885 31620 32678  28146 26838 28112  22353 21009 22565
54804 54378 51159  54804 54378 51159  54804 54378 51159  54804 54378 51159  54804 54378 51159
54804 54378 51159  54804 54378 51159  54804 54378 51159  54804 54378 51159  48776 49712 51291  53366 54186 55435
56615 57330 58326  59069 59684 60474  60966 61487 62103  62438 62866 63335  63565 63904 64243  64399 64652 64878
64979 65147 65279  65332 65417 65467  65477 65481 65458  65431 65354 65275  65204 65049 64921  64805 64574 64405
64241 63933 63736  63514 63132 62917  62629 62173 61945  61585 61058 60828  60383 59784 59566  59018 58350 58151
57488 56752 56578  55786 54982 54847  53903 53034 52946  51829 50895 50869  49547 48551 48597  47038 45981 46112
44275 43159 43392  41220 40047 40394  37819 36593 37078  33992 32716 33364  29609 28286 29131  24431 23068 24156
18667 17185 18072  54804 54378 51159  54804 54378 51159  54804 54378 51159  54804 54378 51159
54804 54378 51159  54804 54378 51159  54804 54378 51159  45056 46098 47616  50833 51750 52865  54685 55493 56318
57544 58249 58846  59749 60356 60760  61474 61987 62227  62818 63240 63339  63847 64182 64158  64605 64854 64725
65124 65288 65066  65428 65510 65207  65535 65535 65164  65458 65379 64951  65207 65049 64576  64790 64556 64043
64213 63903 63361  63480 63095 62534  62592 62133 61566  61551 61021 60449  60355 59754 59191  59003 58332 57789
57491 56751 56233  55813 55005 54523  53961 53088 52651  51925 50988 50609  49692 48692 48384  47244 46182 45954
44557 43436 43306  41600 40421 40403  38326 37094 37206  34672 33388 33650  30538 29205 29651  25751 24374 25038
19969 18557 19500  14498 12802 12589  54804 54378 51159  54804 54378 51159  54804 54378 51159
54804 54378 51159  54804 54378 51159  54804 54378 51159  47316 48337 49377  52075 52979 53675  55472 56269 56706
58060 58757 58978  60084 60685 60726  61677 62186 62069  62922 63342 63088  63875 64206 63838  64572 64818 64346
65042 65204 64640  65307 65386 64746  65382 65381 64674  65280 65199 64435  65010 64850 64043  64578 64342 63497
63991 63680 62807  63252 62866 61975  62363 61903 61003  61323 60792 59890  60134 59531 58637  58792 58119 57243
57294 56553 55700  55636 54827 54011  53808 52934 52161  51805 50865 50149  49611 48608 47958  47211 46146 45574
44585 43461 42982  41704 40522 40151  38529 37291 37044  35007 33716 33616  31053 29713 29783  26537 25151 25422
21212 19787 20310  15501 13932 14111  54804 54378 51159  54804 54378 51159  54804 54378 51159
54804 54378 51159  54804 54378 51159  42217 43355 44410  48590 49599 50217  52758 53653 53964  55843 56635 56702
58236 58928 58795  60123 60721 60415  61615 62122 61664  62784 63200 62610  63675 64004 63301  64324 64568 63766
64755 64916 64026  64988 65067 64098  65037 65036 64004  64915 64834 63749  64629 64470 63339  64186 63949 62781
63590 63278 62082  62846 62460 61246  61955 61495 60270  60917 60385 59161  59733 59130 57912  58399 57726 56527
56913 56172 54996  55270 54461 53321  53463 52588 51492  51485 50545 49501  49323 48319 47344  46963 45897 44995
44385 43259 42449  41565 40381 39674  38468 37228 36639  35046 33752 33305  31229 29884 29600  26908 25517 25422
21894 20461 20600  15845 14375 14776  10412 8585 7431  54804 54378 51159  54804 54378 51159
54804 54378 51159  54804 54378 51159  43792 44914 45532  49228 50228 50464  53010 53900 53849  55874 56663 56382
58120 58811 58339  59904 60500 59861  61318 61824 61037  62425 62842 61928  63268 63597 62572  63878 64123 62998
64278 64439 63233  64486 64565 63284  64514 64513 63169  64375 64295 62896  64076 63918 62474  63623 63388 61907
63021 62711 61204  62273 61888 60364  61380 60922 59387  60343 59813 58279  59163 58561 57034  57836 57165 55653
56360 55620 54131  54730 53923 52468  52941 52066 50656  50982 50043 48687  48846 47843 46546  46517 45452 44231
43979 42853 41720  41206 40022 38988  38170 36929 36012  34827 33531 32750  31115 29768 29144  26939 25545 25102
22146 20708 20485  16435 14961 15011  10957 9237 8356  54804 54378 51159  54804 54378 51159
54804 54378 51159  54804 54378 51159  44513 45628 45856  49392 50388 50268  52907 53796 53406  55612 56399 55789
57748 58439 57639  59451 60049 59089  60805 61311 60210  61864 62282 61059  62670 63001 61664  63248 63495 62065
63623 63787 62274  63811 63892 62303  63823 63825 62171  63671 63593 61890  63361 63206 61455  62900 62668 60884
62292 61984 60176  61541 61159 59332  60647 60192 58356  59612 59084 57247  58435 57836 56002  57113 56444 54630
55645 54907 53116  54025 53220 51462  52249 51378 49663  50307 49370 47706  48192 47191 45587  45887 44825 43298
43380 42255 40812  40646 39463 38118  37657 36417 35185  34375 33080 31979  30742 29395 28445  26677 25282 24510
22044 20604 20042  16599 15121 14815  10934 9293 8539  54804 54378 51159  54804 54378 51159
54804 54378 51159  54804 54378 51159  44654 45764 45638  49171 50166 49714  52501 53389 52681  55087 55875 54949
57142 57834 56727  58784 59383 58117  60092 60600 59196  61115 61535 60010  61891 62225 60590  62445 62695 60965
62801 62968 61157  62972 63058 61174  62972 62976 61029  62808 62734 60735  62491 62339 60295  62024 61795 59720
61412 61109 59004  60658 60279 58160  59764 59312 57179  58729 58205 56075  57554 56959 54834  56237 55572 53461
54775 54041 51956  53164 52362 50307  51398 50529 48516  49469 48536 46576  47369 46371 44474  45084 44025 42198
42600 41480 39738  39896 38716 37069  36944 35707 34170  33707 32415 31007  30136 28790 27532  26152 24758 23670
21637 20197 19313  16379 14900 14261  10522 8943 8215  54804 54378 51159  54804 54378 51159
54804 54378 51159  37884 39124 39116  44340 45450 44999  48621 49618 48853  51820 52711 51696  54322 55114 53888
56318 57014 55610  57917 58519 56957  59189 59702 58006  60185 60610 58791  60939 61278 59353  61477 61731 59711
61817 61989 59890  61976 62067 59895  61966 61976 59741  61796 61727 59443  61472 61325 58995  61000 60777 58415
60385 60086 57699  59629 59256 56851  58734 58288 55870  57700 57181 54766  56527 55937 53525  55213 54553 52157
53756 53027 50656  52150 51353 49015  50392 49529 47233  48473 47545 45297  46386 45393 43204  44116 43060 40944
41650 40533 38502  38967 37791 35854  36041 34809 32981  32840 31550 29851  29312 27970 26415  25387 23996 22608
20956 19519 18328  15829 14351 13399  9809 8276 7499  4803 2974 814  54804 54378 51159
54804 54378 51159  37570 38809 38472  43646 44758 44001  47774 48775 47715  50887 51783 50477  53333 54130 52617
55289 55989 54301  56857 57465 55623  58107 58625 56646  59084 59514 57418  59822 60167 57963  60347 60608 58309
60678 60855 58475  60828 60925 58475  60812 60828 58317  60636 60573 58010  60308 60166 57563  59833 59616 56974
59215 58923 56258  58458 58091 55410  57563 57122 54429  56529 56017 53321  55358 54773 52084  54046 53391 50720
52591 51869 49219  50991 50200 47582  49238 48381 45805  47326 46403 43878  45246 44259 41793  42986 41936 39542
40533 39422 37108  37865 36694 34477  34958 33731 31621  31780 30496 28513  28282 26945 25106  24399 23011 21338
20024 18591 17113  14982 13508 12261  8924 7416 6463  4531 2806 767  54804 54378 51159
54804 54378 51159  36734 37977 37342  42608 43725 42684  46652 47658 46316  49716 50618 49036  52130 52932 51146
54061 54769 52805  55612 56227 54109  56848 57373 55124  57814 58251 55883  58544 58895 56420  59062 59328 56761
59386 59570 56923  59532 59635 56915  59511 59534 56753  59331 59276 56446  59001 58868 55994  58524 58314 55405
57905 57620 54685  57147 56788 53837  56251 55819 52856  55219 54713 51752  54048 53472 50515  52737 52091 49151
51285 50570 47651  49687 48904 46018  47937 47086 44244  46030 45114 42317  43954 42975 40241  41700 40658 37994
39254 38150 35568  36595 35432 32942  33700 32479 30099  30535 29258 26999  27056 25725 23610  23195 21814 19863
18852 17426 15668  13859 12391 10867  7886 6384 5146  4205 2604 712  54804 54378 51159
54804 54378 51159  35663 36826 35824  41249 42374 41068  45266 46279 44675  48314 49224 47378  50716 51527 49480
52641 53355 51129  54186 54808 52430  55417 55950 53440  56379 56825 54195  57106 57466 54732  57622 57897 55069
57944 58137 55226  58088 58200 55222  58066 58098 55056  57886 57838 54745  57554 57429 54293  57077 56875 53709
56458 56180 52988  55700 55348 52136  54804 54378 51159  53770 53273 50051  52600 52032 48814  51290 50652 47450
49838 49131 45954  48241 47466 44321  46492 45650 42543  44586 43678 40625  42512 41540 38544  40261 39227 36302
37816 36721 33876  35160 34005 31254  32269 31056 28415  29109 27839 25320  25634 24313 21935  21782 20409 18196
17450 16031 14013  12473 11012 9221  6527 5033 3530  3830 2372 648  54804 54378 51159
54804 54378 51159  34347 35361 33923  39575 40709 39154  43619 44642 42790  46683 47602 45506  49096 49916 47616
51028 51753 49279  52578 53211 50584  53814 54357 51594  54780 55236 52353  55510 55879 52890  56028 56312 53231
56353 56554 53393  56498 56619 53389  56477 56518 53227  56298 56259 52916  55968 55852 52464  55491 55298 51875
54872 54604 51159  54114 53772 50307  53218 52803 49330  52185 51697 48222  51014 50455 46986  49704 49075 45621
48252 47553 44125  46653 45887 42488  44903 44070 40714  42996 42098 38792  40920 39959 36711  38667 37642 34464
36220 35134 32038  33562 32416 29412  30666 29463 26569  27502 26242 23474  24022 22709 20080  20161 18798 16337
15819 14410 12142  10826 9375 7337  4853 3368 1620  3409 2111 576  54804 54378 51159
54804 54378 51159  32619 33468 31604  37846 38892 36988  41707 42742 40655  44820 45751 43421  47266 48097 45562
49221 49957 47241  50790 51433 48563  52039 52593 49590  53017 53482 50358  53755 54135 50903  54280 54576 51253
54611 54823 51419  54761 54892 51419  54744 54795 51262  54569 54541 50955  54241 54135 50503  53765 53584 49919
53148 52891 49198  52391 52059 48350  51495 51089 47373  50462 49984 46265  49290 48741 45029  47978 47360 43664
46524 45837 42164  44923 44168 40527  43171 42348 38749  41259 40371 36822  39179 38227 34737  36919 35905 32486
34466 33390 30052  31798 30662 27421  28891 27699 24565  25713 24464 21453  22215 20913 18046  18331 16980 14278
13956 12559 10053  8915 7475 5205  3657 2287 622  2939 1820 499  54804 54378 51159
54804 54378 51159  30424 31092 28807  35992 36868 34541  39613 40626 38280  42719 43664 41111  45222 46066 43302
47217 47965 45024  48816 49471 46372  50089 50654 47420  51085 51563 48205  51838 52230 48768  52376 52682 49126
52717 52940 49305  52876 53018 49309  52865 52927 49156  52695 52678 48857  52371 52277 48409  51900 51728 47830
51284 51038 47113  50528 50207 46265  49633 49239 45284  48599 48133 44180  47426 46889 42940  46113 45505 41571
44655 43978 40070  43050 42306 38429  41291 40481 36643  39373 38497 34712  37284 36345 32618  35015 34012 30359
32548 31485 27916  29866 28742 25268  26941 25760 22395  23739 22502 19261  20211 18922 15830  16287 14948 12022
11855 10470 7742  6728 5302 2814  3088 1913 524  2413 1495 409  54804 54378 51159
54804 54378 51159  54804 54378 51159  33796 34491 31740  37631 38469 35701  40400 41346 38570  42952 43811 40838
45007 45769 42611  46650 47320 44005  47957 48536 45080  48981 49471 45894  49756 50161 46474  50311 50631 46853
50666 50903 47041  50837 50993 47058  50837 50912 46917  50674 50670 46619  50357 50275 46184  49889 49732 45604
49278 49044 44892  48523 48216 44044  47629 47248 43068  46595 46141 41959  45419 44895 40718  44102 43508 39346
42641 41976 37841  41029 40298 36195  39263 38465 34405  37335 36471 32461  35235 34308 30359  32950 31960 28082
30466 29415 25622  27761 26652 22953  24810 23642 20059  21573 20351 16895  18001 16727 13417  14018 12693 9554
9503 8132 5197  4695 3343 831  2563 1588 435  54804 54378 51159  54804 54378 51159
54804 54378 51159  54804 54378 51159  31195 31693 28526  35352 36007 32814  38289 39056 35858  40500 41353 38156
42580 43358 39998  44283 44968 41448  45637 46231 42569  46697 47203 43413  47502 47921 44023  48081 48415 44419
48456 48707 44628  48643 48812 44662  48655 48744 44530  48502 48513 44244  48193 48125 43814  47732 47587 43242
47125 46905 42530  46373 46079 41686  45479 45112 40710  44444 44004 39602  43266 42755 38361  41945 41364 36984
40477 39827 35470  38857 38139 33816  37081 36297 32017  35140 34291 30065  33023 32110 27946  30720 29744 25652
28212 27176 23171  25478 24383 20476  22489 21337 17543  19206 18000 14337  15575 14315 10803  11508 10201 6864
6876 5524 2400  3728 2631 657  1991 1233 337  54804 54378 51159  54804 54378 51159
54804 54378 51159  54804 54378 51159  28075 28357 24782  32729 33187 29579  35904 36483 32866  38259 38930 35313
40060 40803 37189  41702 42404 38689  43116 43727 39866  44224 44745 40757  45067 45502 41401  45676 46027 41827
46077 46343 42057  46284 46468 42113  46313 46417 41993  46174 46199 41725  45875 45822 41303  45421 45292 40736
44820 44614 40032  44071 43791 39192  43178 42826 38216  42142 41717 37103  40961 40465 35863  39634 39068 34481
38159 37524 32959  36528 35826 31297  34739 33970 29485  32781 31947 27511  30644 29747 25375  28315 27355 23060
25777 24757 20549  23005 21925 17816  19969 18833 14840  16625 15436 11579  12913 11672 7972  8738 7449 3931
4992 3793 904  2593 1781 452  1357 840 230  54804 54378 51159  54804 54378 51159
54804 54378 51159  54804 54378 51159  24189 24229 20255  29684 29928 25912  33204 33582 29549  35756 36234 32196
37688 38241 34208  39168 39782 35760  40381 41010 36963  41549 42088 37913  42440 42892 38600  43088 43455 39064
43520 43803 39324  43753 43954 39401  43803 43923 39303  43680 43722 39047  43394 43357 38638  42951 42837 38080
42356 42167 37385  41611 41348 36545  40720 40382 35573  39682 39273 34460  38497 38017 33211  37164 36614 31825
35678 35059 30295  34035 33349 28619  32229 31477 26790  30250 29432 24804  28088 27207 22642  25727 24785 20297
23150 22147 17748  20330 19268 14973  17233 16115 11937  13811 12639 8603  9994 8773 4898  5912 4674 1083
3818 2912 691  1299 805 222  633 392 107  54804 54378 51159  54804 54378 51159
54804 54378 51159  54804 54378 51159  54804 54378 51159  26068 26079 21657  30117 30282 25840  32947 33221 28769
35055 35411 30964  36657 37078 32640  37875 38347 33919  38781 39291 34882  39606 40077 35607  40303 40689 36114
40774 41075 36413  41039 41258 36519  41114 41253 36447  41012 41071 36208  40742 40722 35811  40310 40214 35266
39723 39551 34579  38983 38737 33744  38094 37774 32772  37055 36663 31659  35865 35402 30406  34523 33991 29012
33025 32424 27473  31367 30698 25780  29540 28805 23934  27536 26736 21922  25342 24480 19730  22942 22018 17347
20316 19332 14755  17435 16393 11920  14260 13163 8816  10738 9587 5385  6785 5585 1552  4686 3749 861
2456 1876 443  607 376 102  54804 54378 51159  54804 54378 51159  54804 54378 51159
54804 54378 51159  54804 54378 51159  54804 54378 51159  21571 21317 16503  26530 26463 21615  29769 29825 24966
32118 32266 27404  33883 34101 29246  35217 35490 30649  36212 36527 31702  36924 37271 32465  37393 37764 32981
37822 38144 33309  38126 38365 33450  38232 38391 33407  38156 38234 33194  37904 37905 32814  37488 37411 32286
36911 36759 31604  36178 35951 30777  35290 34989 29805  34249 33876 28692  33053 32609 27434  31701 31187 26027
30189 29607 24475  28510 27861 22766  26659 25944 20894  24623 23844 18852  22390 21547 16627  19942 19038 14197
17255 16291 11549  14297 13276 8646  11024 9948 5444  7371 6244 1893  5273 4358 981  3279 2677 610
849 640 153  0 0 0  54804 54378 51159  54804 54378 51159  54804 54378 51159
54804 54378 51159  54804 54378 51159  54804 54378 51159  54804 54378 51159  22215 21888 16648  26112 25934 20673
28812 28737 23469  30799 30803 25537  32288 32352 27097  33396 33507 28265  34196 34343 29122  34734 34907 29706
35045 35235 30060  35152 35353 30205  35142 35321 30175  35095 35194 29988  34868 34889 29634  34470 34412 29118
33905 33772 28449  33179 32971 27630  32293 32013 26658  31250 30897 25546  30047 29624 24279  28683 28189 22864
27153 26591 21291  25450 24822 19560  23568 22873 17663  21493 20735 15582  19211 18390 13310  16703 15821 10824
13939 12998 8104  10883 9886 5107  7483 6432 1791  5619 4769 1057  3803 3234 716  1638 1412 311
0 0 0  54804 54378 51159  54804 54378 51159  54804 54378 51159  54804 54378 51159
54804 54378 51159  54804 54378 51159  54804 54378 51159  54804 54378 51159  54804 54378 51159  21778 21340 15685
25026 24713 19044  27333 27109 21440  29034 28878 23214  30294 30190 24539  31207 31143 25511  31832 31798 26185
32211 32197 26611  32373 32371 26812  32338 32342 26812  32122 32124 26624  31737 31732 26266  31234 31200 25750
30685 30574 25094  29968 29782 24284  29085 28827 23316  28039 27708 22199  26827 26426 20924  25447 24976 19496
23895 23356 17901  22164 21558 16145  20244 19572 14209  18121 17386 12086  15778 14981 9759  13193 12335 7201
10332 9416 4387  7209 6246 1364  5748 5001 1091  4072 3581 776  2356 2077 448  323 284 60
54804 54378 51159  54804 54378 51159  54804 54378 51159  54804 54378 51159  54804 54378 51159
54804 54378 51159  54804 54378 51159  54804 54378 51159  54804 54378 51159  54804 54378 51159  16295 15556 9520
20563 19986 13924  23369 22899 16831  25375 24986 18920  26844 26513 20459  27909 27623 21581  28648 28396 22374
29116 28887 22890  29346 29132 23162  29366 29160 23218  29192 28987 23073  28840 28628 22749  28319 28095 22250
27636 27393 21589  26796 26529 20762  25801 25506 19782  24653 24322 18643  23369 22990 17347  21970 21523 15902
20391 19876 14282  18623 18042 12491  16655 16008 10513  14472 13761 8330  12052 11280 5930  9367 8536 3283
7140 6295 1360  5920 5220 1130  4550 4011 865  2979 2626 567  1111 979 213  0 0 0
54804 54378 51159  54804 54378 51159  54804 54378 51159  54804 54378 51159  54804 54378 51159
54804 54378 51159  54804 54378 51159  54804 54378 51159  54804 54378 51159  54804 54378 51159  54804 54378 51159
14959 14076 7636  18687 17946 11485  21178 20534 14073  22953 22380 15923  24229 23709 17266  25123 24641 18217
25708 25254 18848  26029 25593 19215  26119 25693 19342  26000 25576 19257  25689 25260 18972  25199 24759 18507
24536 24079 17863  23709 23228 17053  22718 22208 16073  21566 21021 14930  20252 19666 13621  18771 18139 12142
17120 16434 10488  15288 14543 8646  13265 12453 6612  11033 10147 4361  8569 7601 1876  7344 6475 1398
6187 5455 1181  4888 4310 934  3404 3001 648  1653 1458 315  0 0 0  54804 54378 51159
54804 54378 51159  54804 54378 51159  54804 54378 51159  54804 54378 51159  54804 54378 51159
54804 54378 51159  54804 54378 51159  54804 54378 51159  54804 54378 51159  54804 54378 51159  54804 54378 51159
54804 54378 51159  12768 11711 4877  16183 15256 8407  18457 17618 10769  20052 19278 12440  21169 20442 13617
21916 21222 14418  22360 21688 14904  22542 21884 15130  22495 21842 15118  22238 21582 14887  21787 21121 14461
21152 20470 13847  20339 19635 13050  19354 18621 12078  18197 17428 10931  16867 16057 9605  15360 14502 8096
13669 12755 6403  11783 10808 4506  9688 8644 2400  8379 7388 1599  7390 6516 1407  6289 5544 1198
5049 4452 963  3632 3202 691  1962 1729 375  0 0 0  54804 54378 51159  54804 54378 51159
54804 54378 51159  54804 54378 51159  54804 54378 51159  54804 54378 51159  54804 54378 51159
54804 54378 51159  54804 54378 51159  54804 54378 51159  54804 54378 51159  54804 54378 51159  54804 54378 51159
54804 54378 51159  54804 54378 51159  10183 8979 1940  13019 11882 4651  15163 14110 6885  16630 15636 8420
17619 16667 9469  18238 17315 10134  18551 17647 10492  18602 17706 10581  18418 17522 10428  18020 17116 10057
17421 16502 9477  16630 15689 8701  15652 14681 7738  14488 13482 6582  13136 12089 5235  11593 10496 3692
9849 8696 1940  9045 7975 1722  8203 7232 1565  7261 6403 1386  6208 5473 1185  5016 4422 955
3647 3215 695  2024 1784 388  0 0 0  54804 54378 51159  54804 54378 51159  54804 54378 51159
54804 54378 51159  54804 54378 51159  54804 54378 51159  54804 54378 51159  54804 54378 51159
54804 54378 51159  54804 54378 51159  54804 54378 51159  54804 54378 51159  54804 54378 51159  54804 54378 51159
54804 54378 51159  54804 54378 51159  54804 54378 51159  54804 54378 51159  10304 9085 1965  11202 9909 2311
12599 11364 3777  13495 12299 4728  14006 12835 5291  14201 13044 5525  14123 12969 5478  13800 12641 5184
13252 12079 4660  12490 11296 3914  11520 10299 2959  10483 9243 1999  9942 8766 1897  9322 8220 1778
8618 7599 1641  7824 6899 1492  6928 6108 1322  5914 5214 1126  4756 4193 908  3412 3009 652
1797 1585 341  54804 54378 51159  54804 54378 51159  54804 54378 51159  54804 54378 51159  54804 54378 51159
54804 54378 51159  54804 54378 51159  54804 54378 51159  54804 54378 51159  54804 54378 51159
54804 54378 51159  54804 54378 51159  54804 54378 51159  54804 54378 51159  54804 54378 51159  54804 54378 51159
54804 54378 51159  54804 54378 51159  54804 54378 51159  54804 54378 51159  54804 54378 51159  8825 7781 1684
9657 8514 1842  10160 8959 1936  10452 9215 1991  10586 9334 2017  10592 9339 2021  10489 9248 1999
10287 9070 1961  9992 8811 1906  9610 8474 1833  9141 8061 1744  8585 7569 1637  7936 6998 1513
7190 6339 1369  6332 5583 1207  5348 4715 1019  4205 3708 801  2851 2513 541  1168 1030 222
54804 54378 51159  54804 54378 51159  54804 54378 51159  54804 54378 51159  54804 54378 51159  54804 54378 51159
54804 54378 51159  54804 54378 51159  54804 54378 51159  54804 54378 51159  54804 54378 51159
54804 54378 51159  54804 54378 51159  54804 54378 51159  54804 54378 51159  54804 54378 51159  54804 54378 51159
54804 54378 51159  54804 54378 51159  54804 54378 51159  54804 54378 51159  54804 54378 51159  54804 54378 51159
54804 54378 51159  7718 6805 1471  8321 7337 1586  8641 7619 1646  8767 7730 1671  8742 7709 1667
8591 7575 1637  8325 7340 1586  7953 7012 1518  7475 6590 1424  6889 6075 1313  6190 5459 1181
5365 4730 1023  4388 3869 836  3217 2837 614  1762 1554 337  54804 54378 51159  54804 54378 51159
54804 54378 51159  54804 54378 51159  54804 54378 51159  54804 54378 51159  54804 54378 51159  54804 54378 51159
54804 54378 51159  54804 54378 51159  54804 54378 51159  54804 54378 51159  54804 54378 51159
54804 54378 51159  54804 54378 51159  54804 54378 51159  54804 54378 51159  54804 54378 51159  54804 54378 51159
54804 54378 51159  54804 54378 51159  54804 54378 51159  54804 54378 51159  54804 54378 51159  54804 54378 51159
54804 54378 51159  54804 54378 51159  54804 54378 51159  54804 54378 51159  54804 54378 51159  6273 5530 1194
6247 5508 1189  6049 5333 1151  5697 5022 1087  5198 4583 989  4546 4008 865  3720 3280 708
54804 54378 51159  54804 54378 51159  54804 54378 51159  54804 54378 51159  54804 54378 51159  54804 54378 51159
54804 54378 51159  54804 54378 51159  54804 54378 51159  54804 54378 51159  54804 54378 51159  54804 54378 51159
54804 54378 51159  54804 54378 51159  54804 54378 51159  54804 54378 51159  54804 54378 51159
54804 54378 51159  54804 54378 51159  54804 54378 51159  54804 54378 51159  54804 54378 51159  54804 54378 51159
54804 54378 51159  54804 54378 51159  54804 54378 51159  54804 54378 51159  54804 54378 51159  54804 54378 51159
54804 54378 51159  54804 54378 51159  54804 54378 51159  54804 54378 51159  54804 54378 51159  54804 54378 51159
54804 54378 51159  54804 54378 51159  54804 54378 51159  54804 54378 51159  54804 54378 51159  54804 54378 51159
54804 54378 51159  54804 54378 51159  54804 54378 51159  54804 54378 51159  54804 54378 51159  54804 54378 51159
54804 54378 51159  54804 54378 51159  54804 54378 51159  54804 54378 51159  54804 54378 51159  54804 54378 51159
54804 54378 51159  54804 54378 51159  54804 54378 51159  54804 54378 51159  54804 54378 51159
