P2
64 48
65535
49530 49530 49530 49530 49530 49530 49530 49530 49530 49530 49530 49530 49530 49530 49530 49530 49530
49530 49530 49530 49530 49530 49530 49530 49530 49530 49530 49530 49530 49530 49530 49530 49530 49530
49530 49530 49530 49530 49530 49530 49530 49530 49530 49530 49530 49530 49530 49530 49530 49530 49530
49530 49530 49530 49530 49530 49530 49530 49530 49530 49530 49530 49530 49530
49530 49530 49530 49530 49530 49530 49530 49530 49530 49530 49530 49530 49530 49530 49530 49530 49530
49530 49530 49530 49530 49530 49530 49530 49530 49530 49530 49530 49530 49530 49530 49530 49530 49530
49530 49530 49530 49530 49530 49530 49530 49530 49530 49530 49530 49530 49530 49530 49530 49530 49530
49530 49530 49530 49530 49530 49530 49530 49530 49530 49530 49530 49530 49530
49530 49530 49530 49530 49530 49530 49530 49530 49530 49530 49530 49530 49530 49530 49530 49530 49530
49530 49530 49530 49530 49530 49530 49530 49530 49530 49530 49530 49530 49530 49530 49530 49530 49530
49530 49530 49530 49530 49530 49530 49530 49530 49530 49530 49530 49530 49530 49530 49530 49530 49530
49530 49530 49530 49530 49530 49530 49530 49530 49530 49530 49530 49530 49530
49530 49530 49530 49530 49530 49530 49530 49530 49530 49530 49530 49530 49530 49530 49530 49530 49530
49530 49530 49530 49530 49530 49530 49530 49530 49530 49530 49530 49530 49530 49530 49530 49530 49530
49530 49530 49530 49530 49530 49530 49530 49530 49530 49530 49530 49530 49530 49530 49530 49530 49530
49530 49530 49530 49530 49530 49530 49530 49530 49530 49530 49530 49530 49530
49530 49530 49530 49530 49530 49530 49530 49530 49530 49530 49530 49530 49530 49530 49530 49530 49530
49530 49530 49530 49530 49530 49530 49530 49530 49530 49530 49530 49530 49530 49530 49530 49530 49530
49530 49530 49530 49530 49530 49530 49530 49530 49530 49530 49530 49530 49530 49530 49530 49530 49530
49530 49530 49530 49530 49530 49530 49530 49530 49530 49530 49530 49530 49530
49530 49530 49530 49530 49530 49530 49530 49530 49530 49530 49530 49530 49530 49530 49530 49530 49530
49530 49530 49530 49530 49530 49530 49530 49530 49530 49530 49530 49530 49530 49530 49530 49530 49530
49530 49530 49530 49530 49530 49530 49530 49530 49530 49530 49530 49530 49530 49530 49530 49530 49530
49530 49530 49530 49530 49530 49530 49530 49530 49530 49530 49530 49530 49530
49530 49530 49530 49530 49530 49530 49530 49530 49530 49530 49530 49530 49530 49530 49530 49530 49530
49530 49530 49530 49530 49530 49530 49530 49530 49530 49530 49530 49530 49530 49530 49530 49530 49530
49530 49530 49530 49530 49530 49530 49530 49530 49530 49530 49530 49530 49530 49530 49530 49530 49530
49530 49530 49530 49530 49530 49530 49530 49530 49530 49530 49530 49530 49530
49530 49530 49530 49530 49530 49530 49530 49530 49530 49530 49530 49530 49530 49530 49530 49530 49530
49530 49530 49530 49530 49530 49530 49530 49530 49530 49530 49530 49530 49530 49530 49530 49530 49530
49530 49530 49530 49530 49530 49530 49530 49530 49530 49530 49530 49530 49530 49530 49530 49530 49530
49530 49530 49530 49530 49530 49530 49530 49530 49530 49530 49530 49530 49530
49530 49530 49530 49530 49530 49530 49530 49530 49530 49530 49530 49530 49530 49530 49530 49530 49530
49530 49530 49530 49530 49530 49530 49530 49530 49530 49530 52068 57985 59722 60310 61244 62220 63081
63886 62281 55312 49530 49530 49530 49530 49530 49530 49530 49530 49530 49530 49530 49530 49530 49530
49530 49530 49530 49530 49530 49530 49530 49530 49530 49530 49530 49530 49530
49530 49530 49530 49530 49530 49530 49530 49530 49530 49530 49530 49530 49530 49530 49530 49530 49530
49530 49530 49530 49530 49530 49530 49530 49530 55143 54497 54701 56203 57651 59021 60287 61428 62427
63274 63965 64503 65206 63018 50830 49530 49530 49530 49530 49530 49530 49530 49530 49530 49530 49530
49530 49530 49530 49530 49530 49530 49530 49530 49530 49530 49530 49530 49530
49530 49530 49530 49530 49530 49530 49530 49530 49530 49530 49530 49530 49530 49530 49530 49530 49530
49530 49530 49530 49530 49530 49530 53032 50580 50897 52537 54183 55807 57379 58865 60235 61462 62525
63411 64117 64647 65015 65235 65535 62046 49530 49530 49530 49530 49530 49530 49530 49530 49530 49530
49530 49530 49530 49530 49530 49530 49530 49530 49530 49530 49530 49530 49530
49530 49530 49530 49530 49530 49530 49530 49530 49530 49530 49530 49530 49530 49530 49530 49530 49530
49530 49530 49530 49530 49530 50460 46681 48327 50041 51800 53578 55344 57060 58683 60176 61502 62635
63563 64280 64797 65128 65297 65328 65247 65491 50813 49530 49530 49530 49530 49530 49530 49530 49530
49530 49530 49530 49530 49530 49530 49530 49530 49530 49530 49530 49530 49530
49530 49530 49530 49530 49530 49530 49530 49530 49530 49530 49530 49530 49530 49530 49530 49530 49530
49530 49530 49530 49530 46544 43867 45498 47229 49049 50938 52867 54797 56680 58467 60105 61548 62764
63733 64456 64946 65227 65330 65286 65127 64882 65109 50787 49530 49530 49530 49530 49530 49530 49530
49530 49530 49530 49530 49530 49530 49530 49530 49530 49530 49530 49530 49530
49530 49530 49530 49530 49530 49530 49530 49530 49530 49530 49530 49530 49530 49530 49530 49530 49530
49530 49530 49530 44125 40905 42464 44150 45962 47893 49922 52019 54138 56223 58207 60020 61603 62911
63924 64642 65089 65301 65318 65184 64934 64604 64219 64403 50751 49530 49530 49530 49530 49530 49530
49530 49530 49530 49530 49530 49530 49530 49530 49530 49530 49530 49530 49530
49530 49530 49530 49530 49530 49530 49530 49530 49530 49530 49530 49530 49530 49530 49530 49530 49530
49530 49530 45317 37873 39306 40883 42612 44497 46536 48713 50997 53337 55663 57887 59917 61669 63084
64136 64835 65216 65332 65241 64996 64643 64219 63754 63267 63614 49530 49530 49530 49530 49530 49530
49530 49530 49530 49530 49530 49530 49530 49530 49530 49530 49530 49530 49530
49530 49530 49530 49530 49530 49530 49530 49530 49530 49530 49530 49530 49530 49530 49530 49530 49530
49530 48688 34853 36119 37531 39104 40856 42797 44935 47261 49748 52343 54960 57484 59788 61750 63288
64373 65026 65306 65294 65065 64689 64219 63697 63151 62602 62061 60202 49530 49530 49530 49530 49530
49530 49530 49530 49530 49530 49530 49530 49530 49530 49530 49530 49530 49530
49530 49530 49530 49530 49530 49530 49530 49530 49530 49530 49530 49530 49530 49530 49530 49530 49530
49530 35367 32995 34204 35567 37108 38852 40821 43035 45500 48201 51088 54060 56965 59622 61852 63533
64632 65198 65329 65144 64746 64220 63625 63003 62382 61778 61199 60983 50615 49530 49530 49530 49530
49530 49530 49530 49530 49530 49530 49530 49530 49530 49530 49530 49530 49530
49530 49530 49530 49530 49530 49530 49530 49530 49530 49530 49530 49530 49530 49530 49530 49530 49530
46464 30014 31004 32127 33410 34881 36575 38528 40776 43350 46259 49468 52871 56272 59402 61983 63827
64905 65315 65230 64819 64220 63529 62810 62098 61414 60771 60170 59613 59652 49530 49530 49530 49530
49530 49530 49530 49530 49530 49530 49530 49530 49530 49530 49530 49530 49530
49530 49530 49530 49530 49530 49530 49530 49530 49530 49530 49530 49530 49530 49530 49530 49530 49530
33213 28007 28886 29894 31060 32416 34006 35879 38095 40715 43790 47329 51247 55305 59096 62158 64184
65162 65309 64913 64220 63398 62546 61716 60936 60216 59557 58956 58411 58511 49530 49530 49530 49530
49530 49530 49530 49530 49530 49530 49530 49530 49530 49530 49530 49530 49530
49530 49530 49530 49530 49530 49530 49530 49530 49530 49530 49530 49530 49530 49530 49530 49530 49163
25264 25914 26660 27524 28533 29724 31144 32855 34937 37490 40627 44444 48941 53876 58643 62405 64609
65328 65037 64222 63207 62167 61182 60284 59477 58758 58117 57546 57037 56580 53649 49530 49530 49530
49530 49530 49530 49530 49530 49530 49530 49530 49530 49530 49530 49530 49530
49530 49530 49530 49530 49530 49530 49530 49530 49530 49530 49530 49530 49530 49530 49530 49530 44240
23246 23759 24352 25043 25859 26832 28011 29463 31278 33592 36586 40491 45517 51598 57904 62776 65070
65198 64224 62903 61585 60393 59352 58456 57684 57018 56439 55934 55489 55096 57232 49530 49530 49530
49530 49530 49530 49530 49530 49530 49530 49530 49530 49530 49530 49530 49530
49530 49530 49530 49530 49530 49530 49530 49530 49530 49530 49530 49530 49530 49530 49530 49530 35696
21205 21571 21995 22492 23083 23795 24668 25760 27161 29011 31533 35093 40251 47587 56503 63387 65346
64230 62354 60596 59132 57946 56983 56195 55540 54990 54523 54121 53773 53467 55996 49530 49530 49530
49530 49530 49530 49530 49530 49530 49530 49530 49530 49530 49530 49530 49530
49530 49530 49530 49530 49530 49530 49530 49530 49530 49530 49530 49530 49530 49530 49530 49530 28808
19170 19383 19631 19923 20271 20692 21211 21869 22727 23888 25540 28047 32190 39713 53004 64512 64252
61108 58637 56905 55667 54751 54051 53499 53054 52688 52382 52123 51900 51706 53248 49530 49530 49530
49530 49530 49530 49530 49530 49530 49530 49530 49530 49530 49530 49530 49530
49530 49530 49530 49530 49530 49530 49530 49530 49530 49530 49530 49530 49530 49530 49530 49530 27311
17171 17233 17306 17392 17495 17619 17772 17966 18222 18571 19077 19874 21310 24606 37406 64544 56540
53711 52405 51662 51184 50850 50605 50417 50268 50148 50048 49964 49893 49831 51639 49530 49530 49530
49530 49530 49530 49530 49530 49530 49530 49530 49530 49530 49530 49530 49530
49530 49530 49530 49530 49530 49530 49530 49530 49530 49530 49530 49530 49530 49530 49530 49530 25859
15235 15157 15065 14959 14832 14680 14493 14259 13958 13554 12985 12130 10710 7988 2643 21153 37557
42157 44159 45262 45958 46437 46786 47051 47259 47427 47566 47682 47781 47866 49958 49530 49530 49530
49530 49530 49530 49530 49530 49530 49530 49530 49530 49530 49530 49530 49530
49530 49530 49530 49530 49530 49530 49530 49530 49530 49530 49530 49530 49530 49530 49530 49530 25528
13393 13186 12950 12676 12353 11969 11505 10934 10215 9288 8058 6379 4080 1312 868 10005 22873
31079 35761 38618 40500 41822 42795 43540 44128 44602 44993 45321 45600 45839 48603 49530 49530 49530
49530 49530 49530 49530 49530 49530 49530 49530 49530 49530 49530 49530 49530
49530 49530 49530 49530 49530 49530 49530 49530 49530 49530 49530 49530 49530 49530 49530 49530 31031
11664 11351 10995 10586 10111 9556 8898 8112 7160 6000 4590 2927 1183 117 1648 7578 15956
23365 28789 32604 35328 37331 38851 40036 40982 41752 42391 42928 43387 43781 49096 49530 49530 49530
49530 49530 49530 49530 49530 49530 49530 49530 49530 49530 49530 49530 49530
49530 49530 49530 49530 49530 49530 49530 49530 49530 49530 49530 49530 49530 49530 49530 49530 41058
10066 9670 9223 8717 8139 7477 6714 5832 4818 3664 2402 1146 211 255 2222 6591 12518
18493 23593 27637 30773 33212 35133 36670 37921 38953 39818 40551 41178 41722 50445 49530 49530 49530
49530 49530 49530 49530 49530 49530 49530 49530 49530 49530 49530 49530 49530
49530 49530 49530 49530 49530 49530 49530 49530 49530 49530 49530 49530 49530 49530 49530 49530 49530
8611 8156 7648 7081 6447 5738 4946 4068 3112 2107 1131 341 33 641 2610 6063 10568
15370 19852 23724 26945 29588 31753 33538 35022 36268 37324 38229 39010 39691 50271 49530 49530 49530
49530 49530 49530 49530 49530 49530 49530 49530 49530 49530 49530 49530 49530
49530 49530 49530 49530 49530 49530 49530 49530 49530 49530 49530 49530 49530 49530 49530 49530 49530
18347 6811 6271 5677 5028 4320 3557 2749 1921 1123 449 52 156 1029 2883 5737 9341
13277 17146 20693 23809 26486 28762 30694 32337 33742 34951 35997 36910 40164 49530 49530 49530 49530
49530 49530 49530 49530 49530 49530 49530 49530 49530 49530 49530 49530 49530
49530 49530 49530 49530 49530 49530 49530 49530 49530 49530 49530 49530 49530 49530 49530 49530 49530
42356 5635 5084 4493 3860 3190 2494 1791 1118 533 125 22 384 1369 3084 5515 8506
11804 15150 18341 21264 23869 26158 28154 29890 31403 32723 33881 34901 47867 49530 49530 49530 49530
49530 49530 49530 49530 49530 49530 49530 49530 49530 49530 49530 49530 49530
49530 49530 49530 49530 49530 49530 49530 49530 49530 49530 49530 49530 49530 49530 49530 49530 49530
49530 13820 4078 3508 2915 2305 1697 1115 599 206 13 120 636 1658 3238 5355 7904
10725 13639 16498 19196 21675 23913 25912 27688 29262 30657 31895 35220 49530 49530 49530 49530 49530
49530 49530 49530 49530 49530 49530 49530 49530 49530 49530 49530 49530 49530
49530 49530 49530 49530 49530 49530 49530 49530 49530 49530 49530 49530 49530 49530 49530 49530 49530
49530 44500 3233 2701 2161 1626 1113 652 280 49 23 276 882 1901 3359 5234 7453
9906 12470 15033 17508 19835 21986 23947 25721 27320 28758 30049 47198 49530 49530 49530 49530 49530
49530 49530 49530 49530 49530 49530 49530 49530 49530 49530 49530 49530 49530
49530 49530 49530 49530 49530 49530 49530 49530 49530 49530 49530 49530 49530 49530 49530 49530 49530
49530 49530 28143 2047 1570 1112 695 346 100 2 102 455 1111 2108 3458 5139 7101
9266 11544 13852 16118 18289 20332 22228 23974 25569 27022 38314 49530 49530 49530 49530 49530 49530
49530 49530 49530 49530 49530 49530 49530 49530 49530 49530 49530 49530 49530
49530 49530 49530 49530 49530 49530 49530 49530 49530 49530 49530 49530 49530 49530 49530 49530 49530
49530 49530 49530 18930 1111 731 404 156 17 25 219 638 1319 2284 3538 5063 6820
8754 10796 12885 14962 16981 18909 20728 22424 23995 32409 49530 49530 49530 49530 49530 49530 49530
49530 49530 49530 49530 49530 49530 49530 49530 49530 49530 49530 49530 49530
49530 49530 49530 49530 49530 49530 49530 49530 49530 49530 49530 49530 49530 49530 49530 49530 49530
49530 49530 49530 49530 18371 455 210 49 0 91 354 818 1508 2436 3606 5001 6592
8335 10182 12083 13991 15868 17683 19415 21050 29999 49530 49530 49530 49530 49530 49530 49530 49530
49530 49530 49530 49530 49530 49530 49530 49530 49530 49530 49530 49530 49530
49530 49530 49530 49530 49530 49530 49530 49530 49530 49530 49530 49530 49530 49530 49530 49530 49530
49530 49530 49530 49530 49530 26896 89 3 27 183 497 989 1677 2569 3664 4949 6401
7987 9670 11409 13168 14913 16618 18262 34060 49530 49530 49530 49530 49530 49530 49530 49530 49530
49530 49530 49530 49530 49530 49530 49530 49530 49530 49530 49530 49530 49530
49530 49530 49530 49530 49530 49530 49530 49530 49530 49530 49530 49530 49530 49530 49530 49530 49530
49530 49530 49530 49530 49530 49530 43892 9868 84 291 641 1149 1829 2684 3713 4905 6241
7695 9237 10837 12464 14090 20589 44107 49530 49530 49530 49530 49530 49530 49530 49530 49530 49530
49530 49530 49530 49530 49530 49530 49530 49530 49530 49530 49530 49530 49530
49530 49530 49530 49530 49530 49530 49530 49530 49530 49530 49530 49530 49530 49530 49530 49530 49530
49530 49530 49530 49530 49530 49530 49530 49530 40909 12727 782 1299 1967 2787 3756 4867 6103
7445 8867 10346 20038 40899 49530 49530 49530 49530 49530 49530 49530 49530 49530 49530 49530 49530
49530 49530 49530 49530 49530 49530 49530 49530 49530 49530 49530 49530 49530
49530 49530 49530 49530 49530 49530 49530 49530 49530 49530 49530 49530 49530 49530 49530 49530 49530
49530 49530 49530 49530 49530 49530 49530 49530 49530 49530 49530 38219 24966 17271 16718 17552 18475
26873 39209 48568 49530 49530 49530 49530 49530 49530 49530 49530 49530 49530 49530 49530 49530 49530
49530 49530 49530 49530 49530 49530 49530 49530 49530 49530 49530 49530 49530
49530 49530 49530 49530 49530 49530 49530 49530 49530 49530 49530 49530 49530 49530 49530 49530 49530
49530 49530 49530 49530 49530 49530 49530 49530 49530 49530 49530 49530 49530 49530 49530 49530 49530
49530 49530 49530 49530 49530 49530 49530 49530 49530 49530 49530 49530 49530 49530 49530 49530 49530
49530 49530 49530 49530 49530 49530 49530 49530 49530 49530 49530 49530 49530
49530 49530 49530 49530 49530 49530 49530 49530 49530 49530 49530 49530 49530 49530 49530 49530 49530
49530 49530 49530 49530 49530 49530 49530 49530 49530 49530 49530 49530 49530 49530 49530 49530 49530
49530 49530 49530 49530 49530 49530 49530 49530 49530 49530 49530 49530 49530 49530 49530 49530 49530
49530 49530 49530 49530 49530 49530 49530 49530 49530 49530 49530 49530 49530
49530 49530 49530 49530 49530 49530 49530 49530 49530 49530 49530 49530 49530 49530 49530 49530 49530
49530 49530 49530 49530 49530 49530 49530 49530 49530 49530 49530 49530 49530 49530 49530 49530 49530
49530 49530 49530 49530 49530 49530 49530 49530 49530 49530 49530 49530 49530 49530 49530 49530 49530
49530 49530 49530 49530 49530 49530 49530 49530 49530 49530 49530 49530 49530
49530 49530 49530 49530 49530 49530 49530 49530 49530 49530 49530 49530 49530 49530 49530 49530 49530
49530 49530 49530 49530 49530 49530 49530 49530 49530 49530 49530 49530 49530 49530 49530 49530 49530
49530 49530 49530 49530 49530 49530 49530 49530 49530 49530 49530 49530 49530 49530 49530 49530 49530
49530 49530 49530 49530 49530 49530 49530 49530 49530 49530 49530 49530 49530
49530 49530 49530 49530 49530 49530 49530 49530 49530 49530 49530 49530 49530 49530 49530 49530 49530
49530 49530 49530 49530 49530 49530 49530 49530 49530 49530 49530 49530 49530 49530 49530 49530 49530
49530 49530 49530 49530 49530 49530 49530 49530 49530 49530 49530 49530 49530 49530 49530 49530 49530
49530 49530 49530 49530 49530 49530 49530 49530 49530 49530 49530 49530 49530
49530 49530 49530 49530 49530 49530 49530 49530 49530 49530 49530 49530 49530 49530 49530 49530 49530
49530 49530 49530 49530 49530 49530 49530 49530 49530 49530 49530 49530 49530 49530 49530 49530 49530
49530 49530 49530 49530 49530 49530 49530 49530 49530 49530 49530 49530 49530 49530 49530 49530 49530
49530 49530 49530 49530 49530 49530 49530 49530 49530 49530 49530 49530 49530
49530 49530 49530 49530 49530 49530 49530 49530 49530 49530 49530 49530 49530 49530 49530 49530 49530
49530 49530 49530 49530 49530 49530 49530 49530 49530 49530 49530 49530 49530 49530 49530 49530 49530
49530 49530 49530 49530 49530 49530 49530 49530 49530 49530 49530 49530 49530 49530 49530 49530 49530
49530 49530 49530 49530 49530 49530 49530 49530 49530 49530 49530 49530 49530
49530 49530 49530 49530 49530 49530 49530 49530 49530 49530 49530 49530 49530 49530 49530 49530 49530
49530 49530 49530 49530 49530 49530 49530 49530 49530 49530 49530 49530 49530 49530 49530 49530 49530
49530 49530 49530 49530 49530 49530 49530 49530 49530 49530 49530 49530 49530 49530 49530 49530 49530
49530 49530 49530 49530 49530 49530 49530 49530 49530 49530 49530 49530 49530
