P2
64 48
65535
49482 49482 49482 49482 49482 49482 49482 49482 49482 49482 49482 49482 49482 49482 49482 49482 49482
49482 49482 49482 49482 49482 49482 49482 49482 49482 49482 49482 49482 49482 49482 49482 49482 49482
49482 49482 49482 49482 49482 49482 49482 49482 49482 49482 49482 49482 49482 49482 49482 49482 49482
49482 49482 49482 49482 49482 49482 49482 49482 49482 49482 49482 49482 49482
49482 49482 49482 49482 49482 49482 49482 49482 49482 49482 49482 49482 49482 49482 49482 49482 49482
49482 49482 49482 49482 49482 49482 49482 49482 49482 49482 49482 49482 49482 49482 49482 49482 49482
49482 49482 49482 49482 49482 49482 49482 49482 49482 49482 49482 49482 49482 49482 49482 49482 49482
49482 49482 49482 49482 49482 49482 49482 49482 49482 49482 49482 49482 49482
49482 49482 49482 49482 49482 49482 49482 49482 49482 49482 49482 49482 49482 49482 49482 49482 49482
49482 49482 49482 49482 49482 49482 49482 49482 49482 49482 49482 49482 49482 49482 49482 49482 49482
49482 49482 49482 49482 49482 49482 49482 49482 49482 49482 49482 49482 49482 49482 49482 49482 49482
49482 49482 49482 49482 49482 49482 49482 49482 49482 49482 49482 49482 49482
49482 49482 49482 49482 49482 49482 49482 49482 49482 49482 49482 49482 49482 49482 49482 49482 49482
49482 49482 49482 49482 49482 49482 49482 49482 49482 49482 49482 49482 49482 49482 49482 49482 49482
49482 49482 49482 49482 49482 49482 49482 49482 49482 49482 49482 49482 49482 49482 49482 49482 49482
49482 49482 49482 49482 49482 49482 49482 49482 49482 49482 49482 49482 49482
49482 49482 49482 49482 49482 49482 49482 49482 49482 49482 49482 49482 49482 49482 49482 49482 49482
49482 49482 49482 49482 49482 49482 49482 49482 49482 49482 49482 49482 49482 49482 49482 49482 49482
49482 49482 49482 49482 49482 49482 49482 49482 49482 49482 49482 49482 49482 49482 49482 49482 49482
49482 49482 49482 49482 49482 49482 49482 49482 49482 49482 49482 49482 49482
49482 49482 49482 49482 49482 49482 49482 49482 49482 49482 49482 49482 49482 49482 49482 49482 49482
49482 49482 49482 49482 49482 49482 49482 49482 49482 49482 49482 49482 49482 49482 49482 49482 49482
49482 49482 49482 49482 49482 49482 49482 49482 49482 49482 49482 49482 49482 49482 49482 49482 49482
49482 49482 49482 49482 49482 49482 49482 49482 49482 49482 49482 49482 49482
49482 49482 49482 49482 49482 49482 49482 49482 49482 49482 49482 49482 49482 49482 49482 49482 49482
49482 49482 49482 49482 49482 49482 49482 49482 49482 49482 49482 49482 49482 49482 49482 49482 49482
49482 49482 49482 49482 49482 49482 49482 49482 49482 49482 49482 49482 49482 49482 49482 49482 49482
49482 49482 49482 49482 49482 49482 49482 49482 49482 49482 49482 49482 49482
49482 49482 49482 49482 49482 49482 49482 49482 49482 49482 49482 49482 49482 49482 49482 49482 49482
49482 49482 49482 49482 49482 49482 49482 49482 49482 49482 49482 49482 49482 49482 49482 49482 49482
49482 49482 49482 49482 49482 49482 49482 49482 49482 49482 49482 49482 49482 49482 49482 49482 49482
49482 49482 49482 49482 49482 49482 49482 49482 49482 49482 49482 49482 49482
49482 49482 49482 49482 49482 49482 49482 49482 49482 49482 49482 49482 49482 49482 49482 49482 49482
49482 49482 49482 49482 49482 49482 49482 49482 49482 49482 50372 49297 44381 39550 37118 35184 33260
35547 40931 47132 49482 49482 49482 49482 49482 49482 49482 49482 49482 49482 49482 49482 49482 49482
49482 49482 49482 49482 49482 49482 49482 49482 49482 49482 49482 49482 49482
49482 49482 49482 49482 49482 49482 49482 49482 49482 49482 49482 49482 49482 49482 49482 49482 49482
49482 49482 49482 49482 49482 49482 49482 49482 52632 46318 42488 40472 38356 36163 33921 31660 29413
27211 25082 23051 23282 37481 48863 49482 49482 49482 49482 49482 49482 49482 49482 49482 49482 49482
49482 49482 49482 49482 49482 49482 49482 49482 49482 49482 49482 49482 49482
49482 49482 49482 49482 49482 49482 49482 49482 49482 49482 49482 49482 49482 49482 49482 49482 49482
49482 49482 49482 49482 49482 49482 53897 49962 46977 45138 43149 41019 38768 36423 34017 31588 29176
26820 24554 22405 20395 18534 18360 37344 49482 49482 49482 49482 49482 49482 49482 49482 49482 49482
49482 49482 49482 49482 49482 49482 49482 49482 49482 49482 49482 49482 49482
49482 49482 49482 49482 49482 49482 49482 49482 49482 49482 49482 49482 49482 49482 49482 49482 49482
49482 49482 49482 49482 49482 55882 51161 49612 47887 45982 43898 41645 39243 36724 34129 31505 28902
26370 23949 21673 19563 17632 15881 14307 22912 48609 49482 49482 49482 49482 49482 49482 49482 49482
49482 49482 49482 49482 49482 49482 49482 49482 49482 49482 49482 49482 49482
49482 49482 49482 49482 49482 49482 49482 49482 49482 49482 49482 49482 49482 49482 49482 49482 49482
49482 49482 49482 49482 56937 53588 52215 50658 48901 46934 44753 42367 39796 37077 34261 31407 28581
25846 23250 20835 18624 16626 14839 13254 11855 15981 48521 49482 49482 49482 49482 49482 49482 49482
49482 49482 49482 49482 49482 49482 49482 49482 49482 49482 49482 49482 49482
49482 49482 49482 49482 49482 49482 49482 49482 49482 49482 49482 49482 49482 49482 49482 49482 49482
49482 49482 49482 58692 55867 54702 53356 51807 50032 48012 45736 43206 40445 37495 34417 31291 28201
25228 22437 19872 17559 15501 13691 12110 10737 9546 14051 48440 49482 49482 49482 49482 49482 49482
49482 49482 49482 49482 49482 49482 49482 49482 49482 49482 49482 49482 49482
49482 49482 49482 49482 49482 49482 49482 49482 49482 49482 49482 49482 49482 49482 49482 49482 49482
49482 49482 60171 57935 56990 55884 54587 53069 51295 49237 46872 44194 41220 37998 34607 31150 27743
24491 21477 18755 16344 14242 12429 10875 9547 8415 7449 17788 49482 49482 49482 49482 49482 49482
49482 49482 49482 49482 49482 49482 49482 49482 49482 49482 49482 49482 49482
49482 49482 49482 49482 49482 49482 49482 49482 49482 49482 49482 49482 49482 49482 49482 49482 49482
49482 56101 59742 59015 58153 57127 55905 54444 52701 50631 48194 45367 42158 38616 34842 30977 27180
23597 20335 17451 14958 12836 11048 9549 8293 7241 6358 5612 32311 49482 49482 49482 49482 49482
49482 49482 49482 49482 49482 49482 49482 49482 49482 49482 49482 49482 49482
49482 49482 49482 49482 49482 49482 49482 49482 49482 49482 49482 49482 49482 49482 49482 49482 49482
49482 62092 60732 60099 59338 58417 57298 55931 54259 52217 49740 46777 43312 39391 35140 30757 26473
22494 18957 15920 13375 11273 9551 8142 6990 6043 5260 4609 5933 48274 49482 49482 49482 49482
49482 49482 49482 49482 49482 49482 49482 49482 49482 49482 49482 49482 49482
49482 49482 49482 49482 49482 49482 49482 49482 49482 49482 49482 49482 49482 49482 49482 49482 49482
58236 62130 61693 61165 60521 59728 58745 57514 55965 54011 51550 48487 44759 40388 35529 30469 25560
21105 17279 14120 11576 9553 7950 6678 5661 4843 4179 3635 3186 28291 49482 49482 49482 49482
49482 49482 49482 49482 49482 49482 49482 49482 49482 49482 49482 49482 49482
49482 49482 49482 49482 49482 49482 49482 49482 49482 49482 49482 49482 49482 49482 49482 49482 49482
63982 62938 62598 62182 61668 61024 60207 59160 57798 56012 53660 50577 46612 41717 36062 30078 24340
19316 15214 12008 9558 7697 6279 5190 4343 3676 3145 2715 2365 5002 49482 49482 49482 49482
49482 49482 49482 49482 49482 49482 49482 49482 49482 49482 49482 49482 49482
49482 49482 49482 49482 49482 49482 49482 49482 49482 49482 49482 49482 49482 49482 49482 49482 50738
63861 63662 63418 63116 62738 62255 61631 60807 59701 58186 56080 53129 49032 43562 36830 29513 22637
16961 12669 9565 7349 5758 4598 3738 3087 2586 2193 1880 1628 1422 42592 49482 49482 49482
49482 49482 49482 49482 49482 49482 49482 49482 49482 49482 49482 49482 49482
49482 49482 49482 49482 49482 49482 49482 49482 49482 49482 49482 49482 49482 49482 49482 49482 58940
64404 64278 64122 63928 63680 63361 62938 62367 61572 60434 58749 56186 52230 46255 38035 28631 20125
13804 9581 6843 5048 3840 3000 2399 1956 1622 1364 1163 1000 870 27149 49482 49482 49482
49482 49482 49482 49482 49482 49482 49482 49482 49482 49482 49482 49482 49482
49482 49482 49482 49482 49482 49482 49482 49482 49482 49482 49482 49482 49482 49482 49482 49482 64006
64828 64762 64680 64576 64444 64270 64037 63714 63250 62557 61462 59632 56380 50400 40179 27064 16177
9618 6041 4041 2855 2109 1613 1270 1023 840 701 593 507 439 14005 49482 49482 49482
49482 49482 49482 49482 49482 49482 49482 49482 49482 49482 49482 49482 49482
49482 49482 49482 49482 49482 49482 49482 49482 49482 49482 49482 49482 49482 49482 49482 49482 65435
65117 65093 65064 65027 64979 64915 64829 64708 64530 64253 63792 62947 61185 56835 44911 23590 9762
4609 2564 1604 1088 782 586 454 361 292 241 200 170 144 6414 49482 49482 49482
49482 49482 49482 49482 49482 49482 49482 49482 49482 49482 49482 49482 49482
49482 49482 49482 49482 49482 49482 49482 49482 49482 49482 49482 49482 49482 49482 49482 49482 65535
65258 65256 65254 65250 65246 65241 65233 65222 65205 65179 65135 65049 64847 64177 59259 12008 1823
649 320 184 117 78 54 38 26 17 12 7 3 0 6297 49482 49482 49482
49482 49482 49482 49482 49482 49482 49482 49482 49482 49482 49482 49482 49482
49482 49482 49482 49482 49482 49482 49482 49482 49482 49482 49482 49482 49482 49482 49482 49482 65527
65247 65243 65238 65233 65225 65215 65201 65181 65152 65105 65025 64872 64514 63364 56083 14887 2741
1014 510 301 195 134 95 70 52 39 29 22 16 11 6307 49482 49482 49482
49482 49482 49482 49482 49482 49482 49482 49482 49482 49482 49482 49482 49482
49482 49482 49482 49482 49482 49482 49482 49482 49482 49482 49482 49482 49482 49482 49482 49482 65293
65084 65055 65021 64975 64918 64842 64738 64592 64379 64050 63505 62518 60503 55762 43926 24318 10862
5332 3019 1906 1300 938 705 548 436 354 292 245 207 178 7591 49482 49482 49482
49482 49482 49482 49482 49482 49482 49482 49482 49482 49482 49482 49482 49482
49482 49482 49482 49482 49482 49482 49482 49482 49482 49482 49482 49482 49482 49482 49482 49482 63638
64775 64702 64611 64495 64348 64155 63897 63540 63030 62271 61086 59130 55730 49686 39776 27358 16866
10282 6561 4432 3151 2336 1793 1415 1142 939 785 664 569 492 15370 49482 49482 49482
49482 49482 49482 49482 49482 49482 49482 49482 49482 49482 49482 49482 49482
49482 49482 49482 49482 49482 49482 49482 49482 49482 49482 49482 49482 49482 49482 49482 49482 58102
64333 64198 64030 63820 63556 63213 62762 62154 61313 60114 58358 55720 51717 45800 37822 28786 20553
14314 10055 7244 5376 4107 3219 2580 2107 1750 1474 1257 1083 942 28714 49482 49482 49482
49482 49482 49482 49482 49482 49482 49482 49482 49482 49482 49482 49482 49482
49482 49482 49482 49482 49482 49482 49482 49482 49482 49482 49482 49482 49482 49482 49482 49482 49482
63775 63564 63307 62989 62591 62086 61433 60575 59428 57868 55716 52733 48644 43257 36700 29608 22920
17340 13065 9933 7674 6037 4836 3940 3260 2735 2322 1993 1727 1510 45465 49482 49482 49482
49482 49482 49482 49482 49482 49482 49482 49482 49482 49482 49482 49482 49482
49482 49482 49482 49482 49482 49482 49482 49482 49482 49482 49482 49482 49482 49482 49482 49482 49482
63878 62826 62473 62041 61508 60841 59999 58922 57530 55714 53339 50252 46317 41502 35974 30142 24539
19602 15536 12330 9859 7969 6521 5402 4529 3839 3288 2842 2478 7188 49482 49482 49482 49482
49482 49482 49482 49482 49482 49482 49482 49482 49482 49482 49482 49482 49482
49482 49482 49482 49482 49482 49482 49482 49482 49482 49482 49482 49482 49482 49482 49482 49482 49482
55808 62009 61559 61014 60353 59540 58536 57283 55713 53741 51273 48222 44530 40229 35467 30515 25706
21325 17540 14395 11847 9808 8184 6889 5851 5013 4332 3771 3308 32768 49482 49482 49482 49482
49482 49482 49482 49482 49482 49482 49482 49482 49482 49482 49482 49482 49482
49482 49482 49482 49482 49482 49482 49482 49482 49482 49482 49482 49482 49482 49482 49482 49482 49482
49482 62206 60592 59945 59168 58231 57095 55712 54027 51978 49504 46559 43131 39268 35093 30792 26585
22667 19171 16154 13614 11506 9771 8348 7178 6215 5416 4751 8029 49482 49482 49482 49482 49482
49482 49482 49482 49482 49482 49482 49482 49482 49482 49482 49482 49482 49482
49482 49482 49482 49482 49482 49482 49482 49482 49482 49482 49482 49482 49482 49482 49482 49482 49482
49482 53571 59600 58860 57985 56947 55712 54241 52491 50421 47992 45187 42012 38520 34805 31004 27268
23736 20511 17650 15167 13046 11253 9743 8476 7411 6515 5756 37971 49482 49482 49482 49482 49482
49482 49482 49482 49482 49482 49482 49482 49482 49482 49482 49482 49482 49482
49482 49482 49482 49482 49482 49482 49482 49482 49482 49482 49482 49482 49482 49482 49482 49482 49482
49482 49482 59324 57783 56827 55712 54406 52882 51106 49052 46699 44042 41101 37920 34578 31173 27814
24604 21624 18924 16528 14431 12616 11057 9722 8579 7603 22725 49482 49482 49482 49482 49482 49482
49482 49482 49482 49482 49482 49482 49482 49482 49482 49482 49482 49482 49482
49482 49482 49482 49482 49482 49482 49482 49482 49482 49482 49482 49482 49482 49482 49482 49482 49482
49482 49482 49482 58893 55711 54538 53188 51637 49863 47849 45587 43078 40346 37430 34393 31309 28260
25323 22560 20018 17719 15670 13862 12280 10901 9704 18350 49482 49482 49482 49482 49482 49482 49482
49482 49482 49482 49482 49482 49482 49482 49482 49482 49482 49482 49482 49482
49482 49482 49482 49482 49482 49482 49482 49482 49482 49482 49482 49482 49482 49482 49482 49482 49482
49482 49482 49482 49482 57368 53435 52059 50502 48749 46791 44624 42257 39712 37023 34241 31423 28631
25926 23357 20963 18766 16777 14995 13410 12009 20128 49482 49482 49482 49482 49482 49482 49482 49482
49482 49482 49482 49482 49482 49482 49482 49482 49482 49482 49482 49482 49482
49482 49482 49482 49482 49482 49482 49482 49482 49482 49482 49482 49482 49482 49482 49482 49482 49482
49482 49482 49482 49482 49482 55921 51018 49470 47751 45855 43785 41550 39171 36679 34112 31518 28944
26438 24040 21784 19688 17767 16022 14450 29437 49482 49482 49482 49482 49482 49482 49482 49482 49482
49482 49482 49482 49482 49482 49482 49482 49482 49482 49482 49482 49482 49482
49482 49482 49482 49482 49482 49482 49482 49482 49482 49482 49482 49482 49482 49482 49482 49482 49482
49482 49482 49482 49482 49482 49482 51911 51418 46855 45025 43049 40936 38706 36384 34002 31599 29212
26879 24634 22503 20505 18654 21746 43594 49482 49482 49482 49482 49482 49482 49482 49482 49482 49482
49482 49482 49482 49482 49482 49482 49482 49482 49482 49482 49482 49482 49482
49482 49482 49482 49482 49482 49482 49482 49482 49482 49482 49482 49482 49482 49482 49482 49482 49482
49482 49482 49482 49482 49482 49482 49482 49482 51857 48533 42400 40399 38302 36129 33908 31669 29444
27262 25152 23136 28016 43045 49482 49482 49482 49482 49482 49482 49482 49482 49482 49482 49482 49482
49482 49482 49482 49482 49482 49482 49482 49482 49482 49482 49482 49482 49482
49482 49482 49482 49482 49482 49482 49482 49482 49482 49482 49482 49482 49482 49482 49482 49482 49482
49482 49482 49482 49482 49482 49482 49482 49482 49482 49482 49482 50352 47081 42753 40574 38895 37224
39921 45204 49115 49482 49482 49482 49482 49482 49482 49482 49482 49482 49482 49482 49482 49482 49482
49482 49482 49482 49482 49482 49482 49482 49482 49482 49482 49482 49482 49482
49482 49482 49482 49482 49482 49482 49482 49482 49482 49482 49482 49482 49482 49482 49482 49482 49482
49482 49482 49482 49482 49482 49482 49482 49482 49482 49482 49482 49482 49482 49482 49482 49482 49482
49482 49482 49482 49482 49482 49482 49482 49482 49482 49482 49482 49482 49482 49482 49482 49482 49482
49482 49482 49482 49482 49482 49482 49482 49482 49482 49482 49482 49482 49482
49482 49482 49482 49482 49482 49482 49482 49482 49482 49482 49482 49482 49482 49482 49482 49482 49482
49482 49482 49482 49482 49482 49482 49482 49482 49482 49482 49482 49482 49482 49482 49482 49482 49482
49482 49482 49482 49482 49482 49482 49482 49482 49482 49482 49482 49482 49482 49482 49482 49482 49482
49482 49482 49482 49482 49482 49482 49482 49482 49482 49482 49482 49482 49482
49482 49482 49482 49482 49482 49482 49482 49482 49482 49482 49482 49482 49482 49482 49482 49482 49482
49482 49482 49482 49482 49482 49482 49482 49482 49482 49482 49482 49482 49482 49482 49482 49482 49482
49482 49482 49482 49482 49482 49482 49482 49482 49482 49482 49482 49482 49482 49482 49482 49482 49482
49482 49482 49482 49482 49482 49482 49482 49482 49482 49482 49482 49482 49482
49482 49482 49482 49482 49482 49482 49482 49482 49482 49482 49482 49482 49482 49482 49482 49482 49482
49482 49482 49482 49482 49482 49482 49482 49482 49482 49482 49482 49482 49482 49482 49482 49482 49482
49482 49482 49482 49482 49482 49482 49482 49482 49482 49482 49482 49482 49482 49482 49482 49482 49482
49482 49482 49482 49482 49482 49482 49482 49482 49482 49482 49482 49482 49482
49482 49482 49482 49482 49482 49482 49482 49482 49482 49482 49482 49482 49482 49482 49482 49482 49482
49482 49482 49482 49482 49482 49482 49482 49482 49482 49482 49482 49482 49482 49482 49482 49482 49482
49482 49482 49482 49482 49482 49482 49482 49482 49482 49482 49482 49482 49482 49482 49482 49482 49482
49482 49482 49482 49482 49482 49482 49482 49482 49482 49482 49482 49482 49482
49482 49482 49482 49482 49482 49482 49482 49482 49482 49482 49482 49482 49482 49482 49482 49482 49482
49482 49482 49482 49482 49482 49482 49482 49482 49482 49482 49482 49482 49482 49482 49482 49482 49482
49482 49482 49482 49482 49482 49482 49482 49482 49482 49482 49482 49482 49482 49482 49482 49482 49482
49482 49482 49482 49482 49482 49482 49482 49482 49482 49482 49482 49482 49482
49482 49482 49482 49482 49482 49482 49482 49482 49482 49482 49482 49482 49482 49482 49482 49482 49482
49482 49482 49482 49482 49482 49482 49482 49482 49482 49482 49482 49482 49482 49482 49482 49482 49482
49482 49482 49482 49482 49482 49482 49482 49482 49482 49482 49482 49482 49482 49482 49482 49482 49482
49482 49482 49482 49482 49482 49482 49482 49482 49482 49482 49482 49482 49482
49482 49482 49482 49482 49482 49482 49482 49482 49482 49482 49482 49482 49482 49482 49482 49482 49482
49482 49482 49482 49482 49482 49482 49482 49482 49482 49482 49482 49482 49482 49482 49482 49482 49482
49482 49482 49482 49482 49482 49482 49482 49482 49482 49482 49482 49482 49482 49482 49482 49482 49482
49482 49482 49482 49482 49482 49482 49482 49482 49482 49482 49482 49482 49482
