P2
64 48
65535
49337 49337 49337 49337 49337 49337 49337 49337 49337 49337 49337 49337 49337 49337 49337 49337 49337
49337 49337 49337 49337 49337 49337 49337 49337 49337 49337 49337 49337 49337 49337 49337 49337 49337
49337 49337 49337 49337 49337 49337 49337 49337 49337 49337 49337 49337 49337 49337 49337 49337 49337
49337 49337 49337 49337 49337 49337 49337 49337 49337 49337 49337 49337 49337
49337 49337 49337 49337 49337 49337 49337 49337 49337 49337 49337 49337 49337 49337 49337 49337 49337
49337 49337 49337 49337 49337 49337 49337 49337 49337 49337 49337 49337 49337 49337 49337 49337 49337
49337 49337 49337 49337 49337 49337 49337 49337 49337 49337 49337 49337 49337 49337 49337 49337 49337
49337 49337 49337 49337 49337 49337 49337 49337 49337 49337 49337 49337 49337
49337 49337 49337 49337 49337 49337 49337 49337 49337 49337 49337 49337 49337 49337 49337 49337 49337
49337 49337 49337 49337 49337 49337 49337 49337 49337 49337 49337 49337 49337 49337 49337 49337 49337
49337 49337 49337 49337 49337 49337 49337 49337 49337 49337 49337 49337 49337 49337 49337 49337 49337
49337 49337 49337 49337 49337 49337 49337 49337 49337 49337 49337 49337 49337
49337 49337 49337 49337 49337 49337 49337 49337 49337 49337 49337 49337 49337 49337 49337 49337 49337
49337 49337 49337 49337 49337 49337 49337 49337 49337 49337 49337 49337 49337 49337 49337 49337 49337
49337 49337 49337 49337 49337 49337 49337 49337 49337 49337 49337 49337 49337 49337 49337 49337 49337
49337 49337 49337 49337 49337 49337 49337 49337 49337 49337 49337 49337 49337
49337 49337 49337 49337 49337 49337 49337 49337 49337 49337 49337 49337 49337 49337 49337 49337 49337
49337 49337 49337 49337 49337 49337 49337 49337 49337 49337 49337 49337 49337 49337 49337 49337 49337
49337 49337 49337 49337 49337 49337 49337 49337 49337 49337 49337 49337 49337 49337 49337 49337 49337
49337 49337 49337 49337 49337 49337 49337 49337 49337 49337 49337 49337 49337
49337 49337 49337 49337 49337 49337 49337 49337 49337 49337 49337 49337 49337 49337 49337 49337 49337
49337 49337 49337 49337 49337 49337 49337 49337 49337 49337 49337 49337 49337 49337 49337 49337 49337
49337 49337 49337 49337 49337 49337 49337 49337 49337 49337 49337 49337 49337 49337 49337 49337 49337
49337 49337 49337 49337 49337 49337 49337 49337 49337 49337 49337 49337 49337
49337 49337 49337 49337 49337 49337 49337 49337 49337 49337 49337 49337 49337 49337 49337 49337 49337
49337 49337 49337 49337 49337 49337 49337 49337 49337 49337 49337 49337 49337 49337 49337 49337 49337
49337 49337 49337 49337 49337 49337 49337 49337 49337 49337 49337 49337 49337 49337 49337 49337 49337
49337 49337 49337 49337 49337 49337 49337 49337 49337 49337 49337 49337 49337
49337 49337 49337 49337 49337 49337 49337 49337 49337 49337 49337 49337 49337 49337 49337 49337 49337
49337 49337 49337 49337 49337 49337 49337 49337 49337 49337 49337 49337 49337 49337 49337 49337 49337
49337 49337 49337 49337 49337 49337 49337 49337 49337 49337 49337 49337 49337 49337 49337 49337 49337
49337 49337 49337 49337 49337 49337 49337 49337 49337 49337 49337 49337 49337
49337 49337 49337 49337 49337 49337 49337 49337 49337 49337 49337 49337 49337 49337 49337 49337 49337
49337 49337 49337 49337 49337 49337 49337 49337 49337 49337 45294 28929 16581 9985 9716 10673 11732
19422 31415 44197 49337 49337 49337 49337 49337 49337 49337 49337 49337 49337 49337 49337 49337 49337
49337 49337 49337 49337 49337 49337 49337 49337 49337 49337 49337 49337 49337
49337 49337 49337 49337 49337 49337 49337 49337 49337 49337 49337 49337 49337 49337 49337 49337 49337
49337 49337 49337 49337 49337 49337 49337 49337 31391 5523 760 1275 1941 2763 3737 4854 6098
7449 8883 10372 14394 34120 48587 49337 49337 49337 49337 49337 49337 49337 49337 49337 49337 49337
49337 49337 49337 49337 49337 49337 49337 49337 49337 49337 49337 49337 49337
49337 49337 49337 49337 49337 49337 49337 49337 49337 49337 49337 49337 49337 49337 49337 49337 49337
49337 49337 49337 49337 49337 49337 36062 4069 75 275 619 1123 1802 2659 3693 4892 6238
7704 9259 10872 12510 14146 17296 38311 49337 49337 49337 49337 49337 49337 49337 49337 49337 49337
49337 49337 49337 49337 49337 49337 49337 49337 49337 49337 49337 49337 49337
49337 49337 49337 49337 49337 49337 49337 49337 49337 49337 49337 49337 49337 49337 49337 49337 49337
49337 49337 49337 49337 49337 17962 103 8 22 169 475 962 1648 2542 3642 4937 6402
8002 9700 11455 13227 14983 16697 18347 28600 48858 49337 49337 49337 49337 49337 49337 49337 49337
49337 49337 49337 49337 49337 49337 49337 49337 49337 49337 49337 49337 49337
49337 49337 49337 49337 49337 49337 49337 49337 49337 49337 49337 49337 49337 49337 49337 49337 49337
49337 49337 49337 49337 11744 488 232 61 0 80 333 790 1477 2407 3583 4991 6597
8358 10224 12142 14065 15954 17778 19515 21155 26936 48971 49337 49337 49337 49337 49337 49337 49337
49337 49337 49337 49337 49337 49337 49337 49337 49337 49337 49337 49337 49337
49337 49337 49337 49337 49337 49337 49337 49337 49337 49337 49337 49337 49337 49337 49337 49337 49337
49337 49337 49337 12404 1165 776 438 177 25 19 201 611 1287 2253 3515 5055 6831
8787 10852 12962 15056 17089 19026 20849 22546 24116 29564 49087 49337 49337 49337 49337 49337 49337
49337 49337 49337 49337 49337 49337 49337 49337 49337 49337 49337 49337 49337
49337 49337 49337 49337 49337 49337 49337 49337 49337 49337 49337 49337 49337 49337 49337 49337 49337
49337 49337 22372 2125 1640 1173 744 381 119 4 88 427 1076 2073 3432 5132 7119
9313 11619 13952 16237 18423 20473 22373 24117 25708 27154 35577 49337 49337 49337 49337 49337 49337
49337 49337 49337 49337 49337 49337 49337 49337 49337 49337 49337 49337 49337
49337 49337 49337 49337 49337 49337 49337 49337 49337 49337 49337 49337 49337 49337 49337 49337 49337
49337 40252 3332 2796 2250 1706 1182 705 315 64 17 251 845 1863 3332 5229 7481
9972 12572 15165 17661 20001 22157 24118 25888 27478 28906 30187 45165 49337 49337 49337 49337 49337
49337 49337 49337 49337 49337 49337 49337 49337 49337 49337 49337 49337 49337
49337 49337 49337 49337 49337 49337 49337 49337 49337 49337 49337 49337 49337 49337 49337 49337 49337
49337 10597 4195 3624 3026 2409 1790 1194 657 239 20 102 598 1614 3207 5355 7950
10819 13778 16671 19391 21880 24119 26113 27879 29441 30822 32046 34219 49389 49337 49337 49337 49337
49337 49337 49337 49337 49337 49337 49337 49337 49337 49337 49337 49337 49337
49337 49337 49337 49337 49337 49337 49337 49337 49337 49337 49337 49337 49337 49337 49337 49337 49337
38279 5771 5223 4631 3997 3323 2618 1902 1209 597 155 17 348 1319 3048 5522 8576
11940 15341 18570 21511 24121 26404 28387 30108 31601 32904 34042 35044 46634 49337 49337 49337 49337
49337 49337 49337 49337 49337 49337 49337 49337 49337 49337 49337 49337 49337
49337 49337 49337 49337 49337 49337 49337 49337 49337 49337 49337 49337 49337 49337 49337 49337 49337
16196 6966 6431 5842 5195 4487 3720 2903 2057 1232 518 74 130 973 2839 5753 9451
13479 17416 20998 24125 26793 29051 30961 32579 33959 35144 36168 37060 39285 49337 49337 49337 49337
49337 49337 49337 49337 49337 49337 49337 49337 49337 49337 49337 49337 49337
49337 49337 49337 49337 49337 49337 49337 49337 49337 49337 49337 49337 49337 49337 49337 49337 48379
8777 8329 7830 7272 6646 5943 5155 4275 3309 2282 1265 416 33 582 2554 6100 10750
15680 20236 24131 27342 29956 32087 33837 35286 36500 37527 38406 39163 39823 50377 49337 49337 49337
49337 49337 49337 49337 49337 49337 49337 49337 49337 49337 49337 49337 49337
49337 49337 49337 49337 49337 49337 49337 49337 49337 49337 49337 49337 49337 49337 49337 49337 39792
10246 9862 9428 8935 8372 7723 6973 6102 5091 3931 2640 1323 283 210 2146 6669 12841
18986 24143 28169 31258 33640 35506 36994 38200 39194 40025 40728 41331 41852 50182 49337 49337 49337
49337 49337 49337 49337 49337 49337 49337 49337 49337 49337 49337 49337 49337
49337 49337 49337 49337 49337 49337 49337 49337 49337 49337 49337 49337 49337 49337 49337 49337 29879
11857 11560 11220 10829 10375 9843 9210 8449 7523 6384 4980 3286 1436 159 1541 7763 16594
24172 29558 33273 35894 37807 39251 40373 41267 41994 42596 43102 43533 43904 48753 49337 49337 49337
49337 49337 49337 49337 49337 49337 49337 49337 49337 49337 49337 49337 49337
49337 49337 49337 49337 49337 49337 49337 49337 49337 49337 49337 49337 49337 49337 49337 49337 24569
13596 13408 13192 12940 12644 12292 11864 11336 10669 9802 8639 7025 4738 1761 771 10617 24281
32345 36753 39390 41113 42315 43199 43873 44405 44834 45188 45484 45735 45952 48287 49337 49337 49337
49337 49337 49337 49337 49337 49337 49337 49337 49337 49337 49337 49337 49337
49337 49337 49337 49337 49337 49337 49337 49337 49337 49337 49337 49337 49337 49337 49337 49337 25961
15447 15387 15319 15239 15144 15029 14888 14712 14484 14178 13745 13089 11983 9779 4667 25999 40256
43732 45219 46035 46550 46904 47162 47359 47514 47638 47741 47827 47900 47963 50005 49337 49337 49337
49337 49337 49337 49337 49337 49337 49337 49337 49337 49337 49337 49337 49337
49337 49337 49337 49337 49337 49337 49337 49337 49337 49337 49337 49337 49337 49337 49337 49337 27415
17385 17468 17566 17680 17816 17981 18186 18445 18785 19249 19921 20978 22868 27102 41639 65087 58192
54869 53241 52293 51676 51244 50925 50679 50484 50326 50195 50085 49991 49910 51671 49337 49337 49337
49337 49337 49337 49337 49337 49337 49337 49337 49337 49337 49337 49337 49337
49337 49337 49337 49337 49337 49337 49337 49337 49337 49337 49337 49337 49337 49337 49337 49337 29796
19384 19618 19890 20210 20591 21053 21623 22343 23280 24546 26338 29033 33408 41050 53571 64054 64362
61525 59082 57304 56008 55038 54291 53699 53220 52826 52495 52214 51973 51763 53502 49337 49337 49337
49337 49337 49337 49337 49337 49337 49337 49337 49337 49337 49337 49337 49337
49337 49337 49337 49337 49337 49337 49337 49337 49337 49337 49337 49337 49337 49337 49337 49337 36606
21413 21799 22246 22770 23392 24141 25057 26202 27665 29588 32192 35824 40992 48137 56552 63030 65086
64205 62469 60764 59309 58113 57133 56324 55650 55082 54597 54179 53817 53499 56083 49337 49337 49337
49337 49337 49337 49337 49337 49337 49337 49337 49337 49337 49337 49337 49337
49337 49337 49337 49337 49337 49337 49337 49337 49337 49337 49337 49337 49337 49337 49337 49337 44883
23444 23975 24589 25304 26145 27149 28362 29851 31706 34058 37078 40975 45918 51798 57809 62466 64752
64994 64138 62896 61621 60448 59412 58514 57735 57061 56472 55957 55504 55102 56956 49337 49337 49337
49337 49337 49337 49337 49337 49337 49337 49337 49337 49337 49337 49337 49337
49337 49337 49337 49337 49337 49337 49337 49337 49337 49337 49337 49337 49337 49337 49337 49337 49337
25449 26115 26879 27761 28791 30004 31447 33180 35280 37842 40968 44738 49133 53909 58491 62120 64292
65060 64847 64101 63136 62129 61164 60275 59472 58753 58110 57535 57020 56558 51974 49337 49337 49337
49337 49337 49337 49337 49337 49337 49337 49337 49337 49337 49337 49337 49337
49337 49337 49337 49337 49337 49337 49337 49337 49337 49337 49337 49337 49337 49337 49337 49337 49337
34724 28189 29081 30104 31285 32655 34257 36139 38356 40964 44009 47488 51313 55249 58916 61886 63879
64874 65066 64723 64076 63289 62462 61650 60881 60167 59511 58911 58364 58805 49337 49337 49337 49337
49337 49337 49337 49337 49337 49337 49337 49337 49337 49337 49337 49337 49337
49337 49337 49337 49337 49337 49337 49337 49337 49337 49337 49337 49337 49337 49337 49337 49337 49337
47713 30175 31174 32307 33598 35076 36774 38724 40962 43514 46384 49532 52855 56165 59206 61719 63533
64612 65049 65000 64626 64060 63396 62695 61999 61326 60689 60092 59537 58440 49337 49337 49337 49337
49337 49337 49337 49337 49337 49337 49337 49337 49337 49337 49337 49337 49337
49337 49337 49337 49337 49337 49337 49337 49337 49337 49337 49337 49337 49337 49337 49337 49337 49337
49337 37282 33139 34353 35719 37261 39001 40961 43158 45595 48255 51087 53991 56826 59415 61594 63247
64341 64920 65077 64920 64550 64047 63473 62868 62260 61664 61092 61167 49337 49337 49337 49337 49337
49337 49337 49337 49337 49337 49337 49337 49337 49337 49337 49337 49337 49337
49337 49337 49337 49337 49337 49337 49337 49337 49337 49337 49337 49337 49337 49337 49337 49337 49337
49337 49162 34970 36237 37648 39218 40960 42888 45004 47300 49748 52294 54856 57324 59574 61496 63010
64086 64745 65042 65050 64844 64489 64038 63532 63000 62461 61929 57747 49337 49337 49337 49337 49337
49337 49337 49337 49337 49337 49337 49337 49337 49337 49337 49337 49337 49337
49337 49337 49337 49337 49337 49337 49337 49337 49337 49337 49337 49337 49337 49337 49337 49337 49337
49337 49337 47085 37962 39390 40959 42677 44546 46561 48709 50955 53253 55533 57710 59699 61418 62811
63854 64554 64944 65076 65002 64774 64439 64031 63579 63104 63111 49337 49337 49337 49337 49337 49337
49337 49337 49337 49337 49337 49337 49337 49337 49337 49337 49337 49337 49337
49337 49337 49337 49337 49337 49337 49337 49337 49337 49337 49337 49337 49337 49337 49337 49337 49337
49337 49337 49337 46369 40959 42508 44180 45974 47881 49882 51946 54028 56075 58020 59799 61354 62643
63645 64362 64815 65037 65069 64948 64714 64397 64024 64287 49337 49337 49337 49337 49337 49337 49337
49337 49337 49337 49337 49337 49337 49337 49337 49337 49337 49337 49337 49337
49337 49337 49337 49337 49337 49337 49337 49337 49337 49337 49337 49337 49337 49337 49337 49337 49337
49337 49337 49337 49337 48444 43882 45498 47210 49008 50870 52769 54667 56517 58272 59881 61301 62499
63459 64178 64671 64960 65072 65041 64895 64661 64915 49337 49337 49337 49337 49337 49337 49337 49337
49337 49337 49337 49337 49337 49337 49337 49337 49337 49337 49337 49337 49337
49337 49337 49337 49337 49337 49337 49337 49337 49337 49337 49337 49337 49337 49337 49337 49337 49337
49337 49337 49337 49337 49337 51719 46655 48283 49974 51708 53461 55199 56886 58482 59950 61256 62374
63292 64006 64522 64858 65035 65075 65003 64221 49337 49337 49337 49337 49337 49337 49337 49337 49337
49337 49337 49337 49337 49337 49337 49337 49337 49337 49337 49337 49337 49337
49337 49337 49337 49337 49337 49337 49337 49337 49337 49337 49337 49337 49337 49337 49337 49337 49337
49337 49337 49337 49337 49337 49337 51421 51972 50810 52427 54050 55649 57196 58659 60008 61217 62266
63142 63844 64374 64744 64969 65535 57283 49337 49337 49337 49337 49337 49337 49337 49337 49337 49337
49337 49337 49337 49337 49337 49337 49337 49337 49337 49337 49337 49337 49337
49337 49337 49337 49337 49337 49337 49337 49337 49337 49337 49337 49337 49337 49337 49337 49337 49337
49337 49337 49337 49337 49337 49337 49337 49337 53093 55618 54555 56034 57461 58810 60058 61183 62170
63008 63695 64230 65169 58965 49337 49337 49337 49337 49337 49337 49337 49337 49337 49337 49337 49337
49337 49337 49337 49337 49337 49337 49337 49337 49337 49337 49337 49337 49337
49337 49337 49337 49337 49337 49337 49337 49337 49337 49337 49337 49337 49337 49337 49337 49337 49337
49337 49337 49337 49337 49337 49337 49337 49337 49337 49337 49337 55436 59152 60489 61392 62236 62982
62676 58496 50589 49337 49337 49337 49337 49337 49337 49337 49337 49337 49337 49337 49337 49337 49337
49337 49337 49337 49337 49337 49337 49337 49337 49337 49337 49337 49337 49337
49337 49337 49337 49337 49337 49337 49337 49337 49337 49337 49337 49337 49337 49337 49337 49337 49337
49337 49337 49337 49337 49337 49337 49337 49337 49337 49337 49337 49337 49337 49337 49337 49337 49337
49337 49337 49337 49337 49337 49337 49337 49337 49337 49337 49337 49337 49337 49337 49337 49337 49337
49337 49337 49337 49337 49337 49337 49337 49337 49337 49337 49337 49337 49337
49337 49337 49337 49337 49337 49337 49337 49337 49337 49337 49337 49337 49337 49337 49337 49337 49337
49337 49337 49337 49337 49337 49337 49337 49337 49337 49337 49337 49337 49337 49337 49337 49337 49337
49337 49337 49337 49337 49337 49337 49337 49337 49337 49337 49337 49337 49337 49337 49337 49337 49337
49337 49337 49337 49337 49337 49337 49337 49337 49337 49337 49337 49337 49337
49337 49337 49337 49337 49337 49337 49337 49337 49337 49337 49337 49337 49337 49337 49337 49337 49337
49337 49337 49337 49337 49337 49337 49337 49337 49337 49337 49337 49337 49337 49337 49337 49337 49337
49337 49337 49337 49337 49337 49337 49337 49337 49337 49337 49337 49337 49337 49337 49337 49337 49337
49337 49337 49337 49337 49337 49337 49337 49337 49337 49337 49337 49337 49337
49337 49337 49337 49337 49337 49337 49337 49337 49337 49337 49337 49337 49337 49337 49337 49337 49337
49337 49337 49337 49337 49337 49337 49337 49337 49337 49337 49337 49337 49337 49337 49337 49337 49337
49337 49337 49337 49337 49337 49337 49337 49337 49337 49337 49337 49337 49337 49337 49337 49337 49337
49337 49337 49337 49337 49337 49337 49337 49337 49337 49337 49337 49337 49337
49337 49337 49337 49337 49337 49337 49337 49337 49337 49337 49337 49337 49337 49337 49337 49337 49337
49337 49337 49337 49337 49337 49337 49337 49337 49337 49337 49337 49337 49337 49337 49337 49337 49337
49337 49337 49337 49337 49337 49337 49337 49337 49337 49337 49337 49337 49337 49337 49337 49337 49337
49337 49337 49337 49337 49337 49337 49337 49337 49337 49337 49337 49337 49337
49337 49337 49337 49337 49337 49337 49337 49337 49337 49337 49337 49337 49337 49337 49337 49337 49337
49337 49337 49337 49337 49337 49337 49337 49337 49337 49337 49337 49337 49337 49337 49337 49337 49337
49337 49337 49337 49337 49337 49337 49337 49337 49337 49337 49337 49337 49337 49337 49337 49337 49337
49337 49337 49337 49337 49337 49337 49337 49337 49337 49337 49337 49337 49337
49337 49337 49337 49337 49337 49337 49337 49337 49337 49337 49337 49337 49337 49337 49337 49337 49337
49337 49337 49337 49337 49337 49337 49337 49337 49337 49337 49337 49337 49337 49337 49337 49337 49337
49337 49337 49337 49337 49337 49337 49337 49337 49337 49337 49337 49337 49337 49337 49337 49337 49337
49337 49337 49337 49337 49337 49337 49337 49337 49337 49337 49337 49337 49337
49337 49337 49337 49337 49337 49337 49337 49337 49337 49337 49337 49337 49337 49337 49337 49337 49337
49337 49337 49337 49337 49337 49337 49337 49337 49337 49337 49337 49337 49337 49337 49337 49337 49337
49337 49337 49337 49337 49337 49337 49337 49337 49337 49337 49337 49337 49337 49337 49337 49337 49337
49337 49337 49337 49337 49337 49337 49337 49337 49337 49337 49337 49337 49337
