P2
41 41
65535
50205 50205 50205 50205 50205 50205 50205 50205 50205 50205 50205 50205 50205 50205 50205 50205 50205
50205 50205 50205 50205 50205 50205 50205 50205 50205 50205 50205 50205 50205 50205 50205 50205 50205
50205 50205 50205 50205 50205 50205 50205
50205 50205 50205 50205 50205 50205 50205 50205 50205 50205 50205 50205 50205 50205 50205 50205 50205
7430 10638 13368 15677 17580 19064 20068 50205 50205 50205 50205 50205 50205 50205 50205 50205 50205
50205 50205 50205 50205 50205 50205 50205
50205 50205 50205 50205 50205 50205 50205 50205 50205 50205 50205 50205 50205 0 3238 7395 11019
14228 17088 19633 21884 23846 25512 26866 27870 28458 28514 27788 50205 50205 50205 50205 50205 50205
50205 50205 50205 50205 50205 50205 50205
50205 50205 50205 50205 50205 50205 50205 50205 50205 50205 50205 0 358 5021 9101 12747 16042
19033 21753 24221 26447 28434 30179 31671 32892 33811 34377 34510 34060 32707 50205 50205 50205 50205
50205 50205 50205 50205 50205 50205 50205
50205 50205 50205 50205 50205 50205 50205 50205 50205 50205 0 967 5602 9723 13449 16852 19975
22847 25489 27912 30123 32125 33914 35485 36826 37915 38726 39211 39303 38882 37714 50205 50205 50205
50205 50205 50205 50205 50205 50205 50205
50205 50205 50205 50205 50205 50205 50205 50205 0 0 676 5381 9597 13433 16957 20212 23228
26023 28613 31006 33207 35219 37039 38661 40078 41276 42233 42922 43298 43295 42803 41616 39252 50205
50205 50205 50205 50205 50205 50205 50205
50205 50205 50205 50205 50205 50205 50205 0 0 0 4537 8883 12851 16508 19899 23053 25994
28734 31288 33659 35854 37872 39713 41373 42844 44117 45174 45997 46552 46797 46663 46039 44720 42233
50205 50205 50205 50205 50205 50205 50205
50205 50205 50205 50205 50205 50205 0 0 0 3158 7668 11787 15589 19121 22416 25497 28382
31083 33608 35963 38152 40176 42033 43721 45233 46561 47692 48609 49290 49701 49794 49497 48690 47148
44339 50205 50205 50205 50205 50205 50205
50205 50205 50205 50205 50205 0 0 0 1290 5997 10289 14251 17932 21372 24595 27621 30463
33133 35636 37979 40164 42192 44062 45771 47314 48684 49871 50860 51634 52165 52416 52336 51842 50796
48933 45572 50205 50205 50205 50205 50205
50205 50205 50205 50205 50205 0 0 0 3890 8384 12522 16365 19957 23325 26493 29475 32284
34928 37415 39748 41929 43961 45840 47567 49135 50538 51769 52814 53658 54280 54648 54723 54442 53710
52358 50041 50205 50205 50205 50205 50205
50205 50205 50205 50205 0 0 0 1349 6077 10415 14437 18191 21713 25026 28148 31096 33878
36502 38975 41300 43478 45513 47401 49141 50729 52159 53424 54514 55414 56105 56564 56754 56629 56113
55088 53335 50353 50205 50205 50205 50205
50205 50205 50205 0 0 0 0 3361 7931 12153 16085 19769 23234 26503 29591 32510 35270
37878 40340 42658 44834 46871 48765 50516 52121 53573 54867 55992 56936 57683 58212 58492 58483 58127
57328 55933 53626 49557 50205 50205 50205
50205 50205 50205 0 0 0 213 5057 9507 13638 17500 21128 24549 27782 30841 33737 36479
39074 41526 43839 46013 48052 49951 51712 53330 54800 56117 57271 58250 59042 59626 59977 60059 59822
59190 58042 56154 53017 50205 50205 50205
50205 50205 0 0 0 0 1764 6483 10840 14900 18706 22291 25676 28879 31914 34792 37520
40104 42548 44856 47029 49069 50973 52741 54370 55855 57190 58368 59377 60204 60833 61240 61392 61248
60741 59772 58168 55573 50957 50205 50205
50205 50205 0 0 0 0 3047 7671 11957 15961 19723 23272 26628 29808 32825 35687 38402
40977 43416 45720 47892 49933 51841 53616 55253 56750 58100 59296 60329 61186 61850 62301 62509 62436
62025 61191 59789 57547 53790 50205 50205
50205 50205 0 0 0 0 4096 8646 12876 16837 20564 24084 27418 30579 33580 36430 39137
41705 44138 46439 48611 50652 52563 54342 55987 57494 58857 60068 61119 61999 62691 63176 63429 63411
63073 62339 61085 59087 55841 50205 50205
50205 50205 0 0 0 58 4930 9425 13612 17540 21240 24738 28054 31200 34190 37031 39730
42291 44721 47020 49191 51233 53146 54930 56580 58094 59466 60689 61755 62653 63367 63879 64165 64190
63908 63248 62101 60274 57359 50205 50205
50205 0 0 0 0 747 5565 10019 14176 18078 21758 25241 28542 31678 34658 37492 40185
42743 45170 47467 49637 51680 53595 55381 57036 58555 59935 61167 62244 63154 63885 64417 64728 64784
64542 63937 62868 61160 58462 53770 50205
50205 0 0 0 0 1231 6012 10438 14573 18458 22124 25595 28888 32016 34991 37819 40508
43063 45488 47783 49953 51996 53913 55701 57359 58882 60266 61505 62590 63509 64251 64797 65125 65203
64989 64421 63403 61774 59214 54871 50205
50205 0 0 0 0 1517 6277 10687 14810 18684 22342 25807 29094 32218 35188 38014 40701
43254 45677 47973 50142 52186 54103 55892 57552 59078 60464 61707 62796 63721 64469 65024 65361 65452
65254 64707 63720 62136 59654 55495 50205
50205 0 0 0 0 1612 6365 10770 14888 18759 22415 25878 29163 32285 35254 38079 40765
43318 45741 48036 50205 52249 54166 55956 57616 59142 60531 61774 62864 63791 64542 65099 65440 65535
65342 64802 63824 62255 59798 55697 50205
50205 0 0 0 0 1517 6277 10687 14810 18684 22342 25807 29094 32218 35188 38014 40701
43254 45677 47973 50142 52186 54103 55892 57552 59078 60464 61707 62796 63721 64469 65024 65361 65452
65254 64707 63720 62136 59654 55495 50205
50205 0 0 0 0 1231 6012 10438 14573 18458 22124 25595 28888 32016 34991 37819 40508
43063 45488 47783 49953 51996 53913 55701 57359 58882 60266 61505 62590 63509 64251 64797 65125 65203
64989 64421 63403 61774 59214 54871 50205
50205 0 0 0 0 747 5565 10019 14176 18078 21758 25241 28542 31678 34658 37492 40185
42743 45170 47467 49637 51680 53595 55381 57036 58555 59935 61167 62244 63154 63885 64417 64728 64784
64542 63937 62868 61160 58462 53770 50205
50205 50205 0 0 0 58 4930 9425 13612 17540 21240 24738 28054 31200 34190 37031 39730
42291 44721 47020 49191 51233 53146 54930 56580 58094 59466 60689 61755 62653 63367 63879 64165 64190
63908 63248 62101 60274 57359 50205 50205
50205 50205 0 0 0 0 4096 8646 12876 16837 20564 24084 27418 30579 33580 36430 39137
41705 44138 46439 48611 50652 52563 54342 55987 57494 58857 60068 61119 61999 62691 63176 63429 63411
63073 62339 61085 59087 55841 50205 50205
50205 50205 0 0 0 0 3047 7671 11957 15961 19723 23272 26628 29808 32825 35687 38402
40977 43416 45720 47892 49933 51841 53616 55253 56750 58100 59296 60329 61186 61850 62301 62509 62436
62025 61191 59789 57547 53790 50205 50205
50205 50205 0 0 0 0 1764 6483 10840 14900 18706 22291 25676 28879 31914 34792 37520
40104 42548 44856 47029 49069 50973 52741 54370 55855 57190 58368 59377 60204 60833 61240 61392 61248
60741 59772 58168 55573 50957 50205 50205
50205 50205 50205 0 0 0 213 5057 9507 13638 17500 21128 24549 27782 30841 33737 36479
39074 41526 43839 46013 48052 49951 51712 53330 54800 56117 57271 58250 59042 59626 59977 60059 59822
59190 58042 56154 53017 50205 50205 50205
50205 50205 50205 0 0 0 0 3361 7931 12153 16085 19769 23234 26503 29591 32510 35270
37878 40340 42658 44834 46871 48765 50516 52121 53573 54867 55992 56936 57683 58212 58492 58483 58127
57328 55933 53626 49557 50205 50205 50205
50205 50205 50205 50205 0 0 0 1349 6077 10415 14437 18191 21713 25026 28148 31096 33878
36502 38975 41300 43478 45513 47401 49141 50729 52159 53424 54514 55414 56105 56564 56754 56629 56113
55088 53335 50353 50205 50205 50205 50205
50205 50205 50205 50205 50205 0 0 0 3890 8384 12522 16365 19957 23325 26493 29475 32284
34928 37415 39748 41929 43961 45840 47567 49135 50538 51769 52814 53658 54280 54648 54723 54442 53710
52358 50041 50205 50205 50205 50205 50205
50205 50205 50205 50205 50205 0 0 0 1290 5997 10289 14251 17932 21372 24595 27621 30463
33133 35636 37979 40164 42192 44062 45771 47314 48684 49871 50860 51634 52165 52416 52336 51842 50796
48933 45572 50205 50205 50205 50205 50205
50205 50205 50205 50205 50205 50205 0 0 0 3158 7668 11787 15589 19121 22416 25497 28382
31083 33608 35963 38152 40176 42033 43721 45233 46561 47692 48609 49290 49701 49794 49497 48690 47148
44339 50205 50205 50205 50205 50205 50205
50205 50205 50205 50205 50205 50205 50205 0 0 0 4537 8883 12851 16508 19899 23053 25994
28734 31288 33659 35854 37872 39713 41373 42844 44117 45174 45997 46552 46797 46663 46039 44720 42233
50205 50205 50205 50205 50205 50205 50205
50205 50205 50205 50205 50205 50205 50205 50205 0 0 676 5381 9597 13433 16957 20212 23228
26023 28613 31006 33207 35219 37039 38661 40078 41276 42233 42922 43298 43295 42803 41616 39252 50205
50205 50205 50205 50205 50205 50205 50205
50205 50205 50205 50205 50205 50205 50205 50205 50205 50205 0 967 5602 9723 13449 16852 19975
22847 25489 27912 30123 32125 33914 35485 36826 37915 38726 39211 39303 38882 37714 50205 50205 50205
50205 50205 50205 50205 50205 50205 50205
50205 50205 50205 50205 50205 50205 50205 50205 50205 50205 50205 0 358 5021 9101 12747 16042
19033 21753 24221 26447 28434 30179 31671 32892 33811 34377 34510 34060 32707 50205 50205 50205 50205
50205 50205 50205 50205 50205 50205 50205
50205 50205 50205 50205 50205 50205 50205 50205 50205 50205 50205 50205 50205 0 3238 7395 11019
14228 17088 19633 21884 23846 25512 26866 27870 28458 28514 27788 50205 50205 50205 50205 50205 50205
50205 50205 50205 50205 50205 50205 50205
50205 50205 50205 50205 50205 50205 50205 50205 50205 50205 50205 50205 50205 50205 50205 50205 50205
7430 10638 13368 15677 17580 19064 20068 50205 50205 50205 50205 50205 50205 50205 50205 50205 50205
50205 50205 50205 50205 50205 50205 50205
50205 50205 50205 50205 50205 50205 50205 50205 50205 50205 50205 50205 50205 50205 50205 50205 50205
50205 50205 50205 50205 50205 50205 50205 50205 50205 50205 50205 50205 50205 50205 50205 50205 50205
50205 50205 50205 50205 50205 50205 50205
