P2
64 48
65535
9890 11835 16943 30272 50783 37887 28006 24015 22554 22421 23216 24920 27890 33295 44500 47913 12459
0 0 0 0 0 0 0 0 0 0 0 0 0 0 0 0 0
0 0 0 0 0 0 0 0 0 0 0 0 0 0 35380 65045 58353
54278 52192 51198 50967 51471 52946 56029 61708 58642 12033 0 0 0
12383 16514 27363 49219 39174 27350 22666 20937 20694 21471 23267 26572 33080 47606 34710 6594 0
0 0 0 0 0 0 0 0 0 9544 36143 57569 60409 59284 58854 59534 61221
63274 61017 38281 5354 0 0 0 0 0 0 0 0 0 0 0 12210 64924
59331 54362 51921 50781 50502 51033 52639 56072 62276 52121 5211 0 0
16106 24415 44861 42293 27499 21646 19461 19004 19675 21455 24918 32197 49183 27172 4903 0 0
0 0 0 0 0 0 15491 55293 52327 46691 44462 43805 43917 44446 45223 46177 47293
48614 50262 52501 55902 61503 62389 10461 0 0 0 0 0 0 0 0 0 1189
62387 59667 54079 51438 50248 49996 50636 52501 56521 63100 39872 0 0
21916 38152 47147 28886 21094 18186 17383 17850 19494 22890 30372 48954 25088 5209 0 0 0
0 0 0 0 25581 53741 42751 38897 37858 37956 38593 39503 40543 41625 42695 43720 44693
45627 46554 47542 48703 50246 52620 56945 64902 24037 0 0 0 0 0 0 0 0
0 60778 59205 53390 50744 49612 49471 50319 52611 57536 62940 23581 0
31497 50329 32329 21268 17211 15887 16042 17431 20539 27582 46708 26842 6740 0 0 0 0
0 0 15805 53251 38782 34409 33466 33803 34752 36042 37527 39104 40681 42168 43482 44571 45424
46075 46587 47034 47492 48044 48809 50003 52122 56566 65535 5550 0 0 0 0 0 0
0 0 61972 57928 52333 49875 48906 48967 50146 53106 59301 56992 8607
45515 39101 22667 16707 14603 14313 15338 17986 24088 41709 32145 9277 2075 0 0 0 0
4525 41593 40075 31673 29847 29998 31044 32646 34694 37181 40139 43584 47369 51013 53719 54875 54487
53135 51561 50238 49309 48755 48530 48625 49117 50261 52818 59388 48353 0 0 0 0 0
0 0 2435 63749 55976 51005 48891 48181 48546 50229 54221 61599 38346
48307 26316 16986 13660 12748 13304 15381 20297 34417 41355 12965 4592 1006 0 0 614 10043
52343 32480 27226 26431 27178 28809 31256 34865 40811 52430 42388 0 0 0 0 0 0
0 0 29666 64089 55804 51690 49809 48979 48820 49340 50995 55584 64689 0 0 0 0
0 0 0 13940 62746 53625 49535 47867 47506 48300 50747 56318 60857
34263 18664 13274 11461 11425 12866 16578 26728 50150 18448 7602 3449 1512 1049 2900 13454 49469
27902 23764 23432 24578 26834 30714 38986 54009 0 0 0 0 0 0 0 0 0
0 0 0 0 0 43179 58718 52018 49596 48694 48719 49871 53605 64736 0 0 0
0 0 0 0 36513 59015 51181 48047 46887 46964 48373 52011 59607
23119 13846 10616 9807 10559 13168 20032 43427 27445 11385 6140 3833 3147 4677 14121 48485 24855
20777 20583 21989 24926 31357 53484 0 0 0 0 0 0 0 0 0 0 0
0 0 0 0 0 0 0 55898 55487 50250 48501 48130 49022 52563 64261 0 0
0 0 0 0 0 59774 54605 48872 46648 46034 46677 49003 54554
16237 10498 8588 8562 10182 14655 28874 42879 16635 9240 6279 5213 6155 13109 50663 23094 18128
17784 19277 22804 33118 23222 0 0 0 0 0 0 0 0 0 1259 1070 0
0 0 0 0 0 0 0 0 0 59901 50607 48068 47446 48301 52246 63607 0
0 0 0 0 0 12654 60579 50696 46826 45424 45418 46833 50626
11686 7981 6982 7675 10438 18402 47323 25247 13102 8974 7350 7591 11956 43575 23251 15877 15040
16385 20136 34065 10234 0 0 0 0 0 0 55349 41957 40107 40620 41860 43400 45191
47508 51521 62799 0 0 0 0 0 0 0 62790 50261 47293 46635 47721 52919 48506
0 0 0 0 0 0 51200 54206 47544 45103 44464 45187 47767
8402 5978 5691 7158 11643 27114 41911 18603 12142 9680 9178 11493 27344 27956 14310 12444 13361
16793 30923 10459 0 0 0 0 1183 41407 32442 32411 33939 35952 38068 40055 41768 43163
44315 45384 46660 48946 56625 0 0 0 0 0 0 62106 49016 46187 45751 47455 55607
8876 0 0 0 0 0 8761 59716 49049 45085 43744 43885 45606
5859 4322 4664 7076 14457 44408 28372 16283 12372 11039 11864 18823 45474 14222 10203 10360 13014
23718 17035 0 0 0 0 51039 27652 26396 28081 30845 34524 39487 46324 53554 55705 52415
48953 47168 46486 46456 47123 49743 65489 0 0 0 0 0 57652 47084 44873 44944 47971
61761 0 0 0 0 0 0 53815 51768 45427 43223 42819 43892
3783 2915 3880 7559 20275 48023 22761 15750 13283 12954 15849 37084 18404 8734 7609 9230 15918
36257 3555 0 0 111 41091 21642 21813 24417 29463 50110 0 0 0 0 0 0
0 0 64235 49855 46978 46459 47705 58505 0 0 0 0 0 51538 44893 43548 44512
50623 27256 0 0 0 0 0 18418 56116 46231 42887 41923 42471
2018 1699 3339 8831 31656 36285 20635 16117 14660 15456 22390 40878 9140 5426 5802 9542 38774
9631 2741 775 2871 39165 17036 17381 20717 33864 0 0 0 0 0 0 0 0
0 0 0 0 61840 47439 45703 46430 57507 0 0 0 0 55152 46442 42807 42474
45143 59297 0 0 0 0 0 0 59515 47650 42734 41153 41246
469 636 3052 11248 47420 29767 20079 17014 16402 18697 35102 16179 4438 3010 4696 14008 22639
7228 4291 4852 48053 13334 12874 16373 50394 0 0 0 0 49114 38757 40021 42466 45762
55606 0 0 0 0 12982 46944 44486 45419 63388 0 0 0 0 52580 42726 41076
42100 49101 16195 0 0 0 0 0 46161 49875 42770 40480 40153
0 0 3032 15353 50245 26910 20342 18253 18457 23000 50825 6750 1246 1102 4621 40756 13583
8098 7188 16792 11751 8487 11133 45384 0 0 0 32041 27514 30654 34705 38676 41602 43252
44298 45487 50531 0 0 0 13848 44883 42855 45270 0 0 0 0 44374 43725 40065
39999 43663 58712 0 0 0 0 0 20786 52983 43003 39878 39147
0 0 3287 21828 43537 25847 21081 19726 20801 28962 27174 1703 0 0 6721 31164 12819
10171 11918 24828 4846 5714 17429 1108 0 0 19582 20600 26289 1907 0 0 0 0
0 47435 45070 46194 0 0 0 58344 41959 41263 50387 0 0 0 0 47164 39372
38330 40343 52724 0 0 0 0 0 5909 56342 43427 39323 38197
0 0 3800 30965 38592 25735 22114 21359 23404 37452 11310 0 0 0 15088 21490 13994
13016 22229 4126 1043 4761 12022 2081 2025 13083 13465 26735 0 0 0 4272 21150 0
0 0 65240 43887 44367 0 0 0 43374 39160 41061 0 0 0 0 56435 39023
36875 37900 45458 13597 0 0 0 0 0 57231 44013 38787 37273
0 0 4511 41213 36031 26176 23335 23091 26214 48036 3641 0 0 0 42967 20088 15955
16582 48584 0 0 14641 8717 6087 17324 6018 17215 0 0 24489 29627 36578 41560 43560
45124 0 0 63739 41122 45262 0 0 60302 37707 37348 54779 0 0 0 34166 39089
35522 35863 40975 41421 0 0 0 0 0 51820 44692 38240 36354
0 0 5294 48957 34968 26960 24670 24864 29130 52027 0 0 0 0 46332 20805 18312
20976 6370 0 0 26371 11347 13370 0 2405 2490 0 12628 23303 0 0 0 0
59588 43044 0 0 41111 37956 0 0 0 36895 34647 40700 0 0 0 663 39629
34193 34016 37816 56401 0 0 0 0 0 42089 45343 37642 35419
0 0 5948 52595 34827 27967 26069 26623 31979 42295 0 0 0 0 37421 22342 20861
26292 0 0 0 19999 15184 51307 0 32522 7338 2804 8504 0 21948 33004 42122 44496
0 56169 39033 0 0 34435 45672 0 0 37269 32166 35227 0 0 0 0 40548
32818 32250 35323 54248 0 0 0 0 0 33713 45801 36953 34449
0 0 6220 53802 35293 29126 27494 28315 34535 31698 0 0 0 0 35098 24256 23449
32151 0 0 0 21628 19473 0 0 18771 15158 0 8569 3109 0 0 0 0
39097 0 33619 0 0 31029 33222 0 0 39646 29637 31596 2014 0 0 0 41371
31327 30506 33206 50112 0 0 0 0 0 28779 45885 36133 33432
0 0 5863 54334 36201 30393 28918 29897 36579 26078 0 0 0 0 35574 26354 25944
37032 0 0 0 24622 23712 0 0 22639 25157 0 18625 0 12941 7450 43485 0
29621 0 27700 28967 0 27115 27897 0 0 42376 26925 28578 12966 0 0 0 41216
29661 28751 31340 47314 415 0 0 0 0 27028 45433 35150 32355
0 0 4717 54814 37475 31745 30323 31346 37987 25414 0 0 0 0 37640 28546 28258
39148 0 0 0 28083 27469 0 0 28235 31109 0 28677 0 34512 0 0 0
14434 0 19312 17587 0 22140 23649 0 0 38909 23983 25905 14155 0 0 0 39279
27790 26980 29683 46120 1758 0 0 0 0 27987 44341 33986 31218
0 0 2772 54903 39100 33175 31705 32657 38786 30243 0 0 0 0 41252 30811 30372
38804 0 0 0 31948 30659 0 0 35612 33684 0 37095 0 0 43671 31914 19008
603 0 9918 0 0 16434 20913 0 0 29642 20876 23653 7280 0 0 0 35536
25729 25206 28258 46755 2019 0 0 0 0 31497 42578 32643 30023
0 0 174 53190 41122 34692 33069 33846 39132 41858 0 0 0 0 47397 33193 32325
37852 0 0 0 37088 33513 56357 0 0 37029 0 0 42787 0 0 0 0
14175 1880 3421 0 19429 11039 32107 0 0 21320 17769 22298 1339 0 0 3287 30813
23538 23467 27151 49596 1587 0 0 0 0 37573 40208 31142 28778
0 0 0 47085 43655 36327 34427 34946 39235 55002 0 0 0 0 57016 35849 34199
37434 0 0 0 51309 36351 39789 0 0 41701 42474 0 0 44954 41466 35797 28639
0 0 11033 5875 5374 6955 4255 0 4641 15316 14911 23708 0 0 0 15442 26071
21308 21824 26558 52513 940 0 0 0 2831 45495 37391 29520 27503
0 0 0 35115 46908 38131 35807 35994 39286 56190 0 0 0 0 28479 39182 36101
37700 56861 0 0 0 39889 39675 5150 0 0 43925 45129 0 0 0 0 0
0 20733 14429 5689 0 11467 3192 1590 33795 10859 12701 41600 0 0 0 46573 21831
19136 20374 26902 42489 438 0 0 0 6727 51678 34337 27823 26218
0 0 0 20484 51168 40202 37244 37033 39411 51049 0 0 0 0 0 44437 38200
38490 46525 0 0 0 50151 41410 43770 0 0 0 46346 44567 44332 44783 41577 33904
27646 23688 0 0 0 11540 6311 10430 8787 7511 12288 15729 0 0 3565 36672 18216
17121 19273 29219 23780 263 0 0 0 12297 50886 31252 26102 24947
0 0 0 7722 56283 42708 38797 38105 39676 46954 16359 0 0 0 0 56343 40859
39687 42511 10867 0 0 0 45684 43508 46862 0 0 0 0 46930 42238 39009 37020
19249 0 0 0 19461 12117 11674 13623 3210 5423 22438 6366 1645 1951 15528 21853 15186
15369 18818 36483 12945 466 0 0 2370 20966 44272 28289 24404 23721
0 0 0 0 57578 45953 40554 39254 40109 44596 56858 0 0 0 0 12902 45217
41345 42043 49785 0 0 0 0 46529 45045 47038 1207 0 0 0 0 0 0
0 0 0 23420 17888 16534 39900 0 331 6599 20700 5963 4140 6852 50118 14970 12688
14037 19702 50715 8032 1030 0 596 6213 35061 36759 25539 22771 22573
0 0 0 0 39223 50487 42665 40541 40720 43430 55249 0 0 0 0 0 56691
43911 42772 44823 62953 0 0 0 0 48516 45929 46016 48038 64108 0 0 0 0
56111 33230 26833 23337 22575 32573 0 0 106 49993 11238 7512 7565 18399 19495 10845 10723
13421 24049 30107 6021 1925 1259 3184 11794 50087 30480 23046 21239 21539
0 0 0 0 12497 56834 45408 42057 41525 43027 49106 34660 0 0 0 0 1733
49454 44442 44388 47525 37596 0 0 0 0 55466 47129 45395 44394 43359 41916 39776 36976
33906 31043 29126 32503 0 0 0 0 23955 16867 11369 10161 13677 42749 10027 8045 9404
14280 40202 15460 5509 3131 3261 6512 21119 45535 25585 20824 19843 20666
0 0 0 0 0 58498 49333 43957 42565 43140 46345 59208 0 0 0 0 0
59686 48165 45419 45802 49284 37304 0 0 0 0 0 59907 48288 44868 42598 40600 38894
38292 44518 0 0 0 0 0 22568 21474 15277 13414 14737 38590 10710 5739 6169 9100
19259 38412 10763 5871 4659 5715 11272 38258 33652 21772 18874 18618 20017
0 0 0 0 0 27541 55439 46548 43923 43652 45264 51139 41975 0 0 0 0
0 62035 48432 46410 46781 49552 65226 0 0 0 0 0 0 0 0 0 0
0 0 0 0 0 0 52846 24216 18929 16897 17384 29686 12999 3616 3263 5281 11050
41458 18961 9415 6824 6580 8957 19254 49938 25358 18759 17194 17610 19683
0 0 0 0 0 0 61184 50482 45787 44544 45078 47848 57856 0 0 0 0
0 0 60839 49322 47286 47302 48842 54828 6286 0 0 0 0 0 0 0 0
0 0 0 0 7198 36676 26037 22260 20440 20779 30459 14687 1388 474 2012 6117 21207
32642 13799 9515 8273 9078 13780 35244 34845 19935 16351 15796 16878 19811
0 0 0 0 0 0 29866 57059 48563 45906 45487 46686 50792 63401 0 0 0
0 0 0 63418 50807 48133 47554 47963 49590 54590 59421 0 0 0 0 0 0
0 0 45857 41192 32193 27994 25431 24076 24867 36264 11467 0 0 0 2389 12172 48910
18995 12572 10441 10272 12599 22430 49718 23379 16186 14431 14704 16521 20656
0 0 0 0 0 0 0 60728 53216 48006 46435 46560 48321 53790 55267 0 0
0 0 0 0 60737 53733 49330 47883 47370 47340 47719 48590 50053 51880 52980 51826 48204
43564 39252 35661 32741 30412 28734 28115 30406 49937 3493 0 0 0 0 7112 46584 24625
15810 12878 12024 13090 18351 41043 30984 16922 13470 12939 13976 16705 22695
0 0 0 0 0 0 0 15840 61206 51537 48083 47141 47623 49792 56257 41816 0
0 0 0 0 0 0 61926 52177 48991 47468 46503 45729 44967 44096 43024 41698 40128
38390 36604 34916 33519 32778 33737 41551 24972 0 0 0 0 0 3946 38427 29675 18979
15423 14079 14388 17516 30241 43659 18903 12911 11469 11871 13723 17737 26901
13599 0 0 0 0 0 0 0 43568 58180 50965 48464 47883 48562 50906 57568 41689
0 0 0 0 0 0 0 7657 63351 53770 49764 47550 45965 44613 43332 42069 40833
39701 38848 38673 40306 48368 30159 0 0 0 0 0 0 2344 37789 32881 21801 17933
16281 16119 18105 26067 50408 22491 12746 10222 10041 11280 14155 20241 35151
43617 0 0 0 0 0 0 0 0 60177 56555 50968 48980 48574 49293 51529 57473
55546 0 0 0 0 0 0 0 0 0 22897 64251 58785 54256 51739 50521 50612
52850 58582 36334 0 0 0 0 0 0 0 0 3062 46336 33814 24086 20301 18526
18094 19439 25082 46015 27675 12905 9127 8389 9158 11313 15708 25587 47552
61884 19119 0 0 0 0 0 0 0 4165 63987 56016 51299 49546 49169 49783 51657
56255 65471 0 0 0 0 0 0 0 0 0 0 0 0 0 0 0
0 0 0 0 0 0 0 0 0 0 9498 52835 33272 25844 22478 20754 20213
21224 25704 42106 33340 13183 8089 6832 7232 8901 12292 19339 36506 46998
60229 53304 3235 0 0 0 0 0 0 0 11016 64543 56220 51855 50133 49662 50054
51418 54526 61861 40894 0 0 0 0 0 0 0 0 0 0 0 0 0
0 0 0 0 0 0 0 0 0 36365 44824 32445 27257 24484 22945 22432 23333
27319 41256 37353 13198 6982 5299 5418 6754 9515 14940 27342 49876 34471
56425 62798 35624 0 0 0 0 0 0 0 0 13512 64895 57050 52628 50758 50087
50180 50993 52831 56685 64402 31988 0 0 0 0 0 0 0 0 0 0 0
0 0 0 0 0 0 0 30211 51812 38411 32059 28557 26394 25126 24757 25746 29742
42925 38036 12467 5663 3722 3658 4773 7134 11588 21052 43084 42644 26368
53839 58939 62542 19915 0 0 0 0 0 0 0 0 10313 64901 58582 53703 51492
50520 50262 50556 51446 53200 56500 62488 59301 9432 0 0 0 0 0 0 0 0
0 0 0 0 13129 52625 51164 41384 35795 32299 29925 28306 27361 27249 28541 33074 46753
34594 10630 4010 2042 1908 2901 5018 8882 16612 34873 48820 31328 22230
52313 55522 61175 58365 9781 0 0 0 0 0 0 0 0 2592 61043 61075 55297
52486 51085 50429 50250 50455 51055 52146 53929 56719 60716 64186 57908 38258 22668 15985 16130 22683
36903 54647 59211 53073 46561 41645 38008 35246 33112 31483 30337 29766 30051 31950 37765 51798 27053
7670 1981 232 146 1109 3098 6620 13337 28610 50643 36275 25354 20218
51521 53457 57070 62862 52110 3969 0 0 0 0 0 0 0 0 0 42971 64566
57873 54039 51999 50856 50216 49898 49812 49917 50188 50604 51129 51689 52158 52364 52131 51334 49955
48095 45934 43668 41447 39369 37487 35833 34436 33344 32650 32548 33471 36525 44809 50869 17282 3943
0 0 0 0 1345 4703 10875 24335 49053 40644 28381 22475 19410
