P2
64 48
65535
0 0 0 11826 52963 56015 48172 43662 41059 39526 38759 38761 39866 43121 51214 47053 8623
0 0 0 0 0 0 0 0 0 2502 5846 9477 13173 16577 19277 20996 21746
21814 21589 21393 21410 21709 22294 23147 24253 25623 27316 29475 32442 37058 45586 55154 16421 0
0 0 0 0 0 0 0 3176 40616 59227 52712 48795 47028
0 0 5239 45877 58135 49900 45042 42325 40789 40088 40241 41689 45848 55527 29306 0 0
0 0 0 0 0 0 0 3098 11222 24873 44137 50010 41942 34882 30720 29033 29999
34773 44634 50616 41799 33378 29050 27168 26624 26869 27647 28860 30541 32896 36495 42955 55187 27106
0 0 0 0 0 0 0 0 6026 48566 58614 52279 48937
0 0 33465 60238 52101 46628 43662 42037 41330 41544 43173 47900 57597 17656 0 0 0
0 0 0 0 0 3606 23039 52099 38811 28608 22833 18892 15833 13271 11045 9098 7446
6175 5484 5813 8274 16382 41008 47974 36260 31698 30220 30113 30779 32038 33964 36975 42349 53518
35238 0 0 0 0 0 0 0 0 12182 56789 57354 51737
0 18384 60088 54909 48494 45097 43285 42491 42665 44289 49121 58432 12184 0 0 0 0
0 0 0 69 27608 49544 34174 26987 22725 19597 16993 14655 12460 10341 8263 6220 4223
2311 542 0 0 0 0 2767 20543 53261 39602 34359 32876 32885 33740 35340 37994 42837
53288 37880 0 0 0 0 0 0 0 0 23680 61057 55790
4904 51261 58396 50779 46691 44563 43595 43633 45077 49557 59143 11410 0 0 0 0 0
0 0 12863 53712 36997 29677 25661 22826 20524 18500 16630 14836 13051 11206 9237 7109 4831
2463 96 0 0 0 0 0 0 0 21711 51498 39278 35758 35023 35504 36861 39322
44011 54487 34104 0 0 0 0 0 0 0 0 41721 60730
30166 61666 53709 48551 45926 44684 44499 45630 49420 59086 15759 0 0 0 0 0 0
0 38780 44817 34239 29596 26732 24622 22954 21647 20732 20309 20490 21264 22218 22322 20419 16303
10986 5691 1057 0 0 0 0 0 0 0 0 51279 44574 38510 37051 37233 38439
40857 45738 56916 23901 0 0 0 0 0 0 0 9281 58237
58155 57571 50856 47460 45815 45325 46061 48998 57453 27924 0 0 0 0 0 0 0
55573 41828 34402 30888 28693 27215 26414 26695 29459 39751 46587 19526 12038 10769 11760 14015 17416
22566 31844 50137 23559 2716 0 0 0 0 0 0 0 28440 49172 40839 38861 38869
40035 42579 48072 59905 10152 0 0 0 0 0 0 0 30021
61934 53914 49306 47065 46179 46473 48545 54924 49027 0 0 0 0 0 0 0 57975
41810 35634 32718 31033 30261 30942 36005 52645 6740 0 0 0 37 2196 4590 7127 9772
12547 15555 19062 23839 32941 52296 2394 0 0 0 0 0 0 16208 51863 42539 40403
40397 41655 44546 51283 58244 0 0 0 0 0 0 0 3590
58153 51701 48549 47139 46951 48229 52566 61498 690 0 0 0 0 0 0 58879 43199
37342 34743 33467 33484 36708 54557 71 0 0 0 0 0 0 1896 4764 7485 10021
12421 14776 17190 19792 22831 27036 35649 46484 0 0 0 0 0 0 14912 52314 43609
41698 41843 43353 46930 55912 35736 0 0 0 0 0 0 0
55066 50453 48300 47568 48135 50851 59033 24166 0 0 0 0 0 0 55686 45619 39312
36792 35791 36526 43321 17545 0 0 0 0 0 0 379 7965 18384 28545 31517 27329
22552 20325 20128 21095 22738 24908 27818 32714 48212 0 0 0 0 0 0 25490 51116
44240 42830 43274 45249 50108 61574 5805 0 0 0 0 0 0
53108 49810 48401 48303 49807 54833 59270 0 0 0 0 0 0 30693 49369 41520 38795
37876 39006 48697 0 0 0 0 0 0 5982 45317 23524 16446 11946 8307 5164 2560
925 1934 18272 38689 27780 26825 27919 30027 33661 43793 6113 0 0 0 0 0 51696
49373 44687 43903 44798 47584 54894 49236 0 0 0 0 0 0
51929 49563 48764 49333 52128 60592 17154 0 0 0 0 0 0 55668 44136 40772 39702
40752 50450 0 0 0 0 0 0 38871 25040 20005 16347 13059 9849 6585 3219 0
0 0 0 0 0 44094 31832 31231 32648 35691 44604 4245 0 0 0 0 0
60569 47957 45153 45039 46591 50869 61939 6700 0 0 0 0 0
51255 49586 49340 50683 55360 61316 0 0 0 0 0 0 60991 47703 42849 41347 41932
49050 0 0 0 0 0 51376 32017 26224 22951 20435 18607 18040 19853 23370 20779 10396
929 0 0 0 0 0 22301 37211 34403 35293 38158 48239 0 0 0 0 0
11416 54331 47157 45772 46386 48995 56288 45501 0 0 0 0 0
50914 49803 50099 52403 59739 28142 0 0 0 0 0 8739 53895 45326 42962 42872 46965
17055 0 0 0 0 53467 33431 29346 27185 27036 43565 0 0 0 2178 6173 10516
15536 23629 36141 0 0 0 0 0 41278 37106 37807 40996 56120 0 0 0 0
0 62040 50375 46947 46654 48191 52800 63688 0 0 0 0 0
50796 50160 51024 54566 63961 0 0 0 0 0 0 62812 48997 44785 43843 45704 61580
0 0 0 0 56505 36260 32799 31735 39640 0 0 0 0 0 2460 6949 10798
14395 18080 22223 29066 5160 0 0 0 0 42759 39276 40224 44684 44449 0 0 0
0 5255 55912 48621 47250 47966 50995 59886 22320 0 0 0 0
50830 50620 52103 57241 57197 0 0 0 0 0 0 56591 47294 45051 45381 51672 0
0 0 0 41394 39710 36070 35691 57563 0 0 0 0 34547 14649 7995 2944 0
6055 26987 24094 26469 30647 56544 0 0 0 16571 42892 41121 42808 51483 0 0 0
0 0 63612 50967 48106 48084 50087 56238 54741 0 0 0 0
50964 51150 53321 60384 28659 0 0 0 0 0 46347 51956 46806 45780 47784 62874 0
0 0 0 44558 39064 38506 59337 0 0 0 33983 21990 16826 12081 7175 1591 0
0 0 0 32583 31283 34387 58904 0 0 0 56634 43155 42961 46396 55555 0 0
0 0 30982 54306 49194 48416 49675 54061 64611 0 0 0 0
51160 51721 54652 63526 4863 0 0 0 0 0 63780 49999 46874 46844 51752 0 0
0 0 58415 42134 40586 48119 0 0 0 33274 27445 25045 10882 0 0 5940 13139
28157 0 0 0 40882 35559 38551 0 0 0 0 47198 43938 45309 55106 0 0
0 0 0 59041 50498 48882 49550 52795 62617 8798 0 0 0
51386 52303 56050 65055 0 0 0 0 0 0 58536 49166 47223 48201 58986 0 0
0 0 46980 42582 43939 0 0 0 38352 33206 39054 0 0 0 27678 43713 16797
19996 25518 19149 0 0 41624 39040 44339 0 0 0 58873 45492 45372 49981 2683 0
0 0 0 64280 52002 49423 49588 52059 59945 28189 0 0 0
51618 52864 57443 61973 0 0 0 0 0 14063 55278 48851 47708 49836 61416 0 0
0 55323 45375 43897 55332 0 0 51257 37960 43297 0 0 24685 16373 8471 0 0
0 32116 32420 15057 0 0 41720 42366 25414 0 0 0 47694 45880 48372 62408 0
0 0 0 59180 53660 49989 49714 51636 58049 47577 0 0 0
51832 53368 58733 53121 0 0 0 0 0 43447 53570 48782 48231 51700 9044 0 0
0 55544 45389 45762 0 0 0 42366 41417 0 0 32898 31853 0 0 7575 18398
0 0 39587 38604 0 0 49524 43205 49864 0 0 0 50842 46559 47869 60729 0
0 0 0 32046 55369 50530 49873 51400 56816 59282 0 0 0
52009 53782 59809 42446 0 0 0 0 0 60899 52664 48819 48711 53637 0 0 0
0 51003 45808 48184 0 0 38355 43150 63779 0 41295 40087 0 25884 12008 0 0
32158 0 0 41208 51690 0 0 44593 46782 0 0 0 55324 47245 47772 56334 0
0 0 0 10155 56952 50994 50024 51275 56045 63844 0 0 0
52134 54074 60573 34378 0 0 0 0 0 65060 52198 48880 49077 55312 0 0 0
0 49641 46242 51035 0 0 51296 44478 0 0 42431 0 40198 0 0 15763 32806
0 40974 0 46608 45012 0 0 46000 46372 0 0 0 60646 47801 47807 54411 0
0 0 0 0 58175 51331 50140 51215 55599 65173 0 0 0
52197 54220 60955 30441 0 0 0 0 0 65535 52006 48920 49268 56273 0 0 0
0 49228 46495 53244 0 0 48820 45374 0 0 44368 0 43515 0 35968 0 44115
0 44099 0 65033 45096 0 0 46922 46380 0 0 0 63963 48104 47849 53695 0
0 0 0 0 58823 51504 50200 51192 55400 65462 0 0 0
52192 54209 60925 30742 0 0 0 0 0 65523 52019 48916 49253 56195 0 0 0
0 49255 46475 53043 0 0 48942 45297 0 0 44186 0 43054 0 31919 0 42076
0 43778 0 63994 45068 0 0 46843 46376 0 0 0 63715 48080 47845 53746 0
0 0 0 0 58772 51490 50195 51194 55415 65446 0 0 0
52120 54041 60485 35288 0 0 0 0 0 64837 52246 48872 49034 55106 0 0 0
0 49755 46188 50627 0 0 52283 44298 0 0 42094 0 41368 53884 0 13465 34618
0 40523 0 45466 45106 0 0 45815 46386 0 0 0 59923 47735 47800 54594 0
0 0 0 711 58032 51292 50126 51221 55646 65077 0 0 0
51987 53729 59673 43882 0 0 0 0 0 59501 52761 48810 48648 53366 0 0 0
0 51357 45742 47803 0 0 3180 42969 54990 0 42161 37817 0 27874 11205 0 0
31011 0 0 40707 58670 0 0 44384 46948 0 0 0 54598 47152 47773 56766 0
0 0 0 12451 56743 50934 50004 51289 56132 63468 0 0 0
51803 53301 58559 54628 0 0 0 0 0 39493 53753 48783 48157 51424 15405 0 0
0 56855 45349 45462 0 0 0 42449 40710 0 0 32738 28262 0 0 7103 18341
0 0 37199 38516 0 0 47442 43034 51090 0 0 0 50318 46458 47906 61651 0
0 0 0 36220 55128 50456 49850 51426 56960 58141 0 0 0
51585 52786 57248 62796 0 0 0 0 0 10284 55624 48876 47634 49586 63925 0 0
0 37916 45452 43674 52182 0 0 60164 37682 39346 0 0 26263 16007 7656 0 0
0 29392 32143 0 0 0 41202 42359 0 0 0 7820 47331 45793 48508 58002 0
0 0 0 61446 53416 49909 49693 51682 58274 45170 0 0 0
51353 52221 55849 65042 0 0 0 0 0 0 59192 49245 47162 47990 57673 0 0
0 0 47564 42450 43271 0 0 0 39709 32805 33555 0 0 0 2341 10278 14254
19430 25709 0 0 0 39944 38808 45538 0 0 0 56150 45235 45327 50394 0 0
0 0 0 63699 51776 49343 49576 52141 60281 25206 0 0 0
51129 51638 54456 63121 7447 0 0 0 0 0 64256 50189 46843 46673 51039 0 0
0 0 61978 42204 40279 45224 0 0 0 34885 27181 23861 32751 0 473 6754 14911
27579 0 0 0 37294 35192 38870 0 0 0 0 46395 43762 45367 56507 0 0
0 0 0 58274 50299 48809 49556 52937 63032 6451 0 0 0
50940 51071 53139 59916 33067 0 0 0 0 0 38246 52397 46832 45654 47369 62811 0
0 0 0 45652 38974 37989 50505 0 0 0 49414 22406 16681 11673 6544 1030 0
0 0 0 30497 30912 34620 28943 0 0 0 52833 42781 42876 46746 42034 0 0
0 0 39613 53751 49025 48359 49713 54305 64432 0 0 0 0
50819 50549 51940 56827 59679 0 0 0 0 0 0 57637 47438 44980 45117 50454 0
0 0 0 11662 40232 35908 35013 47199 0 0 0 0 24320 19437 10131 5088 3918
51458 22878 23392 26279 31203 24399 0 0 0 48524 42140 40926 42897 53098 0 0 0
0 0 62904 50581 47970 48052 50180 56656 51069 0 0 0 0
50803 50102 50882 54227 63584 1224 0 0 0 0 0 60536 49422 44800 43677 45180 59202
0 0 0 0 56775 36709 32643 31120 34620 0 0 0 0 0 1803 6209 10242
14081 17992 22534 31908 0 0 0 0 6730 41390 38970 40200 45342 25280 0 0 0
0 12618 54914 48347 47148 47973 51185 60538 17806 0 0 0 0
50947 49763 49980 52131 59051 34154 0 0 0 0 0 2422 55120 45512 42892 42591 45912
37353 0 0 0 0 55978 34119 29301 26799 25781 31283 11168 0 0 2889 6810 11313
17075 30266 4536 0 0 0 0 11241 39437 36712 37723 41381 59459 0 0 0 0
0 62603 49809 46751 46593 48263 53170 63512 0 0 0 0 0
51328 49570 49246 50469 54830 62642 0 0 0 0 0 0 56424 48342 42921 41206 41505
47067 4619 0 0 0 0 17860 33779 26481 22851 20072 17794 16134 15220 14244 10947 5012
0 0 0 0 0 0 54465 35600 33993 35194 38470 51113 0 0 0 0 0
21548 53107 46812 45640 46381 49181 56990 39409 0 0 0 0 0
52061 49579 48699 49167 51747 59704 23400 0 0 0 0 0 0 57654 44530 40779 39500
40171 47436 297 0 0 0 0 0 49485 26528 20446 16481 13048 9758 6465 3132 0
0 0 0 0 10331 37305 30822 30892 32588 36054 47327 0 0 0 0 0 0
58783 47360 44934 44972 46673 51276 62535 3032 0 0 0 0 0
53332 49873 48369 48180 49533 54156 61370 0 0 0 0 0 0 18576 50875 41809 38765
37633 38326 45324 8392 0 0 0 0 0 0 44896 29118 18614 13284 9404 6287 3969
3174 7453 47884 31292 26303 26297 27719 30080 34245 47507 0 0 0 0 0 0 58735
48365 44356 43776 44812 47824 55744 42633 0 0 0 0 0 0
55430 50587 48311 47488 47939 50408 57972 31865 0 0 0 0 0 0 45269 46851 39570
36754 35539 35860 40616 40220 0 0 0 0 0 0 0 4279 10708 16575 19522 19455
18615 18481 19233 20644 22536 24908 28125 33951 54365 0 0 0 0 0 0 39867 49538
43770 42641 43237 45395 50678 61890 1966 0 0 0 0 0 0
58694 51948 48621 47105 46816 47933 51860 61435 5150 0 0 0 0 0 0 55083 44414
37629 34730 33247 32933 35048 48305 8079 0 0 0 0 0 0 1664 4445 7139 9709
12184 14636 17164 19915 23215 28082 39670 23941 0 0 0 0 0 0 27861 50161 42990
41451 41765 43439 47335 57120 27912 0 0 0 0 0 0 0
62285 54338 49470 47089 46102 46275 48115 53860 55055 0 0 0 0 0 0 0 54736
43260 36023 32770 30885 29873 30037 33176 48505 16967 1129 0 0 583 2606 4926 7436 10099
12950 16126 20001 25756 38681 33972 0 0 0 0 0 0 0 29710 49347 41804 40105
40287 41705 44860 52292 53859 0 0 0 0 0 0 0 6405
55608 58217 51169 47566 45798 45203 45790 48397 56068 36908 0 0 0 0 0 0 0
46031 43940 35022 31068 28657 26999 25950 25734 27164 32836 48703 35139 19188 15206 15289 17428 21411
28407 42455 43324 12336 0 0 0 0 0 0 0 0 43887 46654 40063 38537 38742
40066 42849 48924 60139 5326 0 0 0 0 0 0 0 34883
25626 61788 54263 48785 45988 44634 44333 45278 48621 57746 23648 0 0 0 0 0 0
0 24221 48506 35398 30029 26871 24589 22772 21288 20118 19291 18828 18651 18444 17614 15570 12225
8103 3887 18 0 0 0 0 0 0 0 5324 55947 42479 37786 36732 37106 38470
41118 46526 58386 16620 0 0 0 0 0 0 0 12929 59974
2526 47010 59148 51232 46873 44594 43514 43424 44643 48560 58278 18520 0 0 0 0 0
0 0 5887 53475 39745 30726 26144 23051 20597 18462 16498 14617 12751 10843 8843 6724 4499
2218 0 0 0 0 0 0 0 1464 36147 47270 37797 35155 34740 35398 36913 39608
44819 56280 25333 0 0 0 0 0 0 0 1040 46604 60090
0 14513 58577 55692 48875 45243 43292 42385 42419 43786 47968 57781 19480 0 0 0 0
0 0 0 0 16589 53248 37497 28483 23544 20102 17329 14891 12637 10485 8398 6368 4407
2554 872 0 0 0 117 6808 33720 48907 37222 33411 32422 32666 33677 35438 38344 43756
55272 28655 0 0 0 0 0 0 0 0 28903 61145 55124
0 0 28274 60430 52827 46964 43786 42029 41206 41272 42626 46671 56361 26139 0 0 0
0 0 0 0 0 891 14485 44907 45363 32259 25009 20401 17011 14286 11997 10066 8507
7435 7120 8200 12411 25471 51257 42258 33728 30567 29645 29809 30643 32044 34143 37450 43510 55598
26105 0 0 0 0 0 0 0 0 16474 58822 56544 51269
0 0 2755 40595 58943 50582 45356 42440 40774 39956 39960 41133 44648 53454 39268 2532 0
0 0 0 0 0 0 0 1390 7678 17336 32089 47419 49683 44178 39808 38403 40473
46194 50594 44542 35628 30087 27327 26213 26070 26550 27485 28829 30653 33214 37202 44583 56405 19114
0 0 0 0 0 0 0 0 9568 52836 57753 51689 48617
0 0 0 8533 48654 57038 48839 43976 41177 39514 38632 38487 39342 42048 48936 53426 14314
0 0 0 0 0 0 0 0 0 1726 4684 7837 11008 13944 16368 18096 19134
19661 19934 20182 20555 21120 21902 22902 24129 25610 27426 29755 33007 38217 48046 50989 10723 0
0 0 0 0 0 0 0 6306 46168 58467 51997 48405 46812
