P2
64 48
65535
51508 53591 57463 63294 46329 90 0 0 0 0 0 0 0 0 0 54733 62896
56634 53318 51551 50575 50057 49846 49873 50110 50546 51174 51965 52838 53635 54128 54075 53306 51794
49667 47171 44567 42052 39738 37671 35870 34349 33140 32315 32037 32663 35094 41902 53230 22535 5642
370 0 0 0 1235 4346 9990 22042 46699 42455 29136 22724 19437
52389 55821 61711 54534 5401 0 0 0 0 0 0 0 0 10659 64592 59481 54412
51975 50780 50264 50209 50558 51355 52757 55068 58728 63393 60983 36866 14479 3870 98 583 5067
15348 35171 56695 56715 49064 42991 38694 35558 33194 31404 30122 29401 29469 30949 35709 48845 33689
9682 2776 624 341 1162 2996 6263 12415 26158 49861 37843 25923 20381
54041 59436 61066 14698 0 0 0 0 0 0 0 0 19891 64916 57270 53011 51097
50299 50179 50625 51741 53911 58081 64782 39218 0 0 0 0 0 0 0 0 0
0 0 0 0 2152 35697 55087 43489 36646 32615 29969 28177 27084 26788 27758 31497 43226
41237 12771 4805 2424 2097 2951 4908 8498 15578 32177 49856 32522 22620
56801 62836 29783 0 0 0 0 0 0 0 0 23171 64048 55910 52040 50427 49917
50157 51171 53391 58159 65479 10096 0 0 0 0 0 0 0 0 0 0 0
0 0 0 0 0 0 0 15611 55058 40498 32742 28739 26335 24904 24365 25077 28402
39567 43986 14493 6398 4074 3829 4808 7001 11143 19805 40427 44498 27179
60694 49060 344 0 0 0 0 0 0 0 19511 63695 55154 51316 49835 49519 50073
51700 55435 64066 18246 0 0 0 0 0 0 0 0 0 0 0 0 0
0 0 0 0 0 0 0 0 0 22119 49142 33695 27585 24478 22755 22075 22718
26072 37930 42786 14909 7616 5607 5564 6764 9341 14386 25736 48719 36018
60959 14871 0 0 0 0 0 0 0 10519 63880 54942 50769 49256 49034 49820 52018
57537 61425 0 0 0 0 0 0 0 0 0 0 0 0 0 0 0
0 0 0 0 0 0 0 0 0 0 4429 50930 35278 26300 22501 20574 19866
20622 24439 38584 38067 14497 8605 7088 7345 8877 12053 18596 34439 48373
38931 0 0 0 0 0 0 0 0 62776 55393 50415 48679 48429 49323 51916 59004
37436 0 0 0 0 0 0 0 0 0 57976 60548 54419 51019 48964 47743 47360
48342 52372 58111 11466 0 0 0 0 0 0 0 645 34882 36524 24605 20323 18340
17740 18814 23680 42400 31099 13849 9530 8592 9233 11241 15364 24517 45846
10387 0 0 0 0 0 0 0 51457 56853 50350 48134 47713 48560 51252 59115 22605
0 0 0 0 0 0 0 41332 58853 51775 48713 46875 45473 44213 42970 41701 40414
39178 38136 37586 38298 43101 53410 0 0 0 0 0 0 789 27758 35841 22282 17923
16072 15738 17414 24333 49009 24586 13402 10529 10195 11311 14015 19720 33578
0 0 0 0 0 0 0 22713 59845 50808 47708 46934 47572 50041 57587 24041 0
0 0 0 0 0 22096 57999 50880 48398 47158 46360 45713 45060 44278 43257 41925 40294
38453 36542 34712 33140 32117 32403 37272 46745 0 0 0 0 0 2689 29528 32231 19334
15359 13835 13964 16695 27797 46879 20105 13364 11698 11975 13699 17488 26062
0 0 0 0 0 0 0 61925 52281 47559 46182 46451 48446 54729 41359 0 0
0 0 0 0 65078 52110 48745 47633 47332 47538 48300 49907 52821 56942 59851 58984 53860
46727 40722 36260 32893 30296 28394 27448 28769 41986 8693 0 0 0 0 5850 38913 26342
15998 12750 11736 12595 17268 37523 33493 17625 13785 13104 14030 16607 22263
0 0 0 0 0 0 36774 55812 48000 45595 45317 46694 51320 61854 0 0 0
0 0 0 59571 49842 47772 47459 48165 50512 58752 6804 0 0 0 0 0 0
0 0 6155 47485 33291 28149 25242 23618 23847 31533 19219 0 0 0 2179 10572 50360
19904 12604 10250 9928 11980 20745 50234 24584 16619 14652 14814 16515 20441
0 0 0 0 0 2262 61094 49709 45399 44314 44986 48062 59366 0 0 0 0
0 0 57406 48560 47007 47294 49361 58476 0 0 0 0 0 0 0 0 0
0 0 0 0 0 43142 26635 22168 20059 19949 26760 21771 2249 804 2109 5813 18514
36752 14169 9425 8021 8658 12914 32159 37015 20551 16634 15950 16933 19723
0 0 0 0 0 33108 54302 46036 43628 43480 45273 51835 29530 0 0 0 0
0 58528 47690 46140 46799 50414 48130 0 0 0 0 0 0 0 0 0 0
0 0 0 0 0 0 27550 25434 18877 16526 16579 25459 17074 4267 3534 5322 10504
36180 20378 9478 6645 6265 8409 17751 50436 26285 19115 17387 17708 19672
0 0 0 0 0 59540 48582 43576 42325 43023 46527 60422 0 0 0 0 0
63151 47294 45109 45777 50225 0 0 0 0 0 0 52528 46514 43955 41910 39900 37958
36580 38198 31859 0 0 0 0 9225 22976 15186 13011 13828 31183 12549 6200 6372 9036
18006 43065 11133 5769 4412 5317 10439 35197 35098 22223 19102 18749 20058
0 0 0 0 15680 55755 44883 41748 41325 42973 49640 24970 0 0 0 0 14120
48168 44050 44267 48136 2137 0 0 0 0 51278 46452 45211 44480 43717 42503 40358 37297
33903 30734 28353 29147 9849 0 0 0 12943 17856 11178 9689 12418 49524 10885 8371 9527
13983 36495 16644 5509 2934 2946 5961 19385 47127 26165 21088 19998 20743
0 0 0 0 43112 49645 42260 40276 40550 43466 56356 0 0 0 0 0 53974
43371 42541 45009 57507 0 0 0 24191 47312 45695 46264 50408 0 0 0 0 0
0 36711 26985 22931 21381 47455 0 0 0 35377 11528 7209 6972 15644 21944 11316 10950
13422 22989 33726 6183 1775 997 2774 10815 48689 31232 23346 21413 21640
0 0 0 0 58077 45348 40215 39015 39966 44769 52914 0 0 0 0 25191 44309
40999 41943 51649 0 0 0 17212 45642 44894 47997 0 0 0 0 0 0 0
0 0 0 24857 17556 15583 44232 0 621 5947 26013 5844 3734 5957 48959 15699 12991
14168 19409 49393 8493 927 0 265 5575 32612 37709 25872 22959 22691
0 0 0 9328 55469 42240 38498 37881 39559 47339 11893 0 0 0 0 53826 40347
39423 42682 0 0 0 0 44567 43281 48254 0 0 0 60949 44632 41320 38073 34958
39440 0 0 0 22536 11715 10583 22873 3783 5602 18727 6767 1338 1412 12823 23229 15558
15571 18792 34858 14009 413 0 0 1904 19418 45286 28651 24601 23852
0 0 0 22497 50402 39815 36969 36819 39317 51692 0 0 0 0 0 43385 37812
38284 47782 0 0 0 47017 41012 44223 0 0 0 45366 44621 45893 61281 61066 35874
27470 22607 26975 0 0 12506 5759 8286 10063 7910 12103 19914 0 0 2588 39981 18662
17365 19366 28641 26006 264 0 0 0 11337 51383 31633 26302 25083
0 0 0 37046 46308 37793 35545 35784 39209 56610 0 0 0 0 36585 38567 35760
37560 45325 0 0 0 39200 39461 0 0 0 43326 45991 0 0 0 0 0
0 22377 13559 32565 0 8410 2909 838 46512 11403 12928 36034 0 0 0 41349 22360
19406 20529 26720 44997 491 0 0 0 6079 51044 34719 28019 26355
0 0 0 48239 43179 36021 34173 34732 39159 53567 0 0 0 0 55700 35380 33873
37383 0 0 0 47324 35867 40149 0 0 40646 42811 0 0 44202 41685 35886 27645
5530 0 12173 4732 6909 7378 5925 0 2360 16033 15266 23103 0 0 0 12915 26677
21588 22012 26553 52367 1028 0 0 0 2362 44264 37748 29705 27638
0 0 575 53541 40734 34409 32817 33624 39034 39747 0 0 0 0 46207 32785 31997
37902 0 0 0 36110 33057 56188 0 15638 36458 0 0 42437 0 0 0 0
13292 18267 3892 0 7294 11736 26566 0 0 22313 18173 22358 1961 0 0 2216 31453
23815 23670 27236 48976 1669 0 0 0 0 36492 40508 31310 28908
0 0 3090 54857 38778 32908 31455 32421 38637 29108 0 0 0 0 40548 30429 30029
38865 0 0 0 31302 30178 0 0 34153 33203 0 35753 0 46245 44636 32752 13953
1837 0 11152 0 0 17224 21065 0 0 30961 21287 23895 8350 0 0 0 36093
25988 25414 28395 46454 2031 0 0 0 0 30783 42795 32788 30144
0 0 4922 54655 37207 31492 30071 31094 37760 25157 0 0 0 0 37193 28179 27892
38964 0 0 0 27521 26924 0 0 27340 30644 0 27323 0 32258 0 0 0
16859 0 20637 31944 0 22878 24160 0 0 39851 24375 26220 14664 0 0 0 39607
28021 27186 29855 46107 1635 0 0 0 0 27645 44461 34104 31329
0 0 5949 54170 35985 30154 28665 29627 36261 26526 0 0 0 0 35335 26002 25552
36413 0 0 0 24116 23089 0 0 21877 23686 0 17049 0 9286 13049 44113 0
31188 0 28602 11673 0 27682 28521 0 0 42134 27279 28936 11810 0 0 0 41262
29860 28953 31538 47534 126 0 0 0 0 27057 45456 35240 32456
0 0 6203 53605 35135 28903 27243 28030 34137 32868 0 0 0 0 35147 23926 23042
31270 0 0 0 21235 18819 0 0 18708 13863 0 7549 7138 38735 0 0 0
40416 0 34313 0 0 31477 34130 0 0 39114 29955 32009 201 0 0 0 41218
31495 30702 33433 50548 0 0 0 0 0 29224 45822 36196 33522
0 0 5862 52186 34744 27765 25822 26328 31529 43972 0 0 0 0 38092 22054 20456
25436 0 0 0 20010 14572 40614 0 12600 6410 5278 7922 0 25571 32936 41448 45593
0 45206 40016 0 0 34851 50854 0 0 37044 32463 35781 0 0 0 0 40335
32962 32444 35590 54763 0 0 0 0 0 34647 45674 36994 34530
0 0 5175 48029 34992 26786 24432 24567 28662 52325 0 0 0 0 48195 20601 17928
20257 8968 0 0 30483 10851 11892 1032 2717 2377 0 13884 20974 0 0 0 0
47209 43401 0 0 40649 38480 0 0 0 36892 34949 41779 0 0 0 3007 39455
34324 34213 38151 55702 0 0 0 0 0 43425 45179 37666 35492
0 0 4394 39745 36224 26043 23112 22800 25759 46501 4482 0 0 0 37698 20070 15617
15998 50630 0 0 10741 8540 5371 33615 6705 13888 0 0 26994 29908 35977 40720 43337
46195 0 0 51119 41313 48482 0 0 57217 37815 37717 58025 0 0 0 42382 38982
35650 36076 41439 37340 0 0 0 0 0 52901 44516 38254 36422
0 0 3706 29473 39063 25666 21915 21082 22978 35995 12846 0 0 0 13108 22029 13741
12545 19918 5394 1514 4681 15075 1686 687 15417 13952 21797 0 0 0 0 0 0
0 0 51766 43843 45411 0 0 0 42781 39344 41735 0 0 0 0 54638 38980
37010 38151 46199 10358 0 0 0 0 0 57327 43844 38796 37339
0 0 3228 20699 44394 25882 20917 19471 20414 27928 30667 2291 0 0 6183 34487 12739
9807 11044 34559 5517 6018 14594 1647 0 0 22007 21050 25733 42978 0 0 0 0
65087 46139 45038 47349 0 0 0 52868 41929 41583 53392 0 0 0 0 46335 39382
38484 40676 53985 0 0 0 0 0 7412 55821 43279 39332 38263
0 0 3012 14612 50796 27132 20234 18029 18114 22263 50520 7696 1647 1346 4532 33722 14017
7868 6676 13625 13592 8984 11200 29680 0 0 0 48300 28410 30871 34507 38098 40938 42840
44208 45903 56682 0 0 0 63286 44546 43015 46218 0 0 0 0 55827 43406 40120
40195 44186 56273 0 0 0 0 0 23840 52402 42883 39891 39218
678 777 3071 10794 45400 30359 20062 16832 16105 18148 32608 18305 4975 3313 4795 12799 26304
7261 3977 4058 32182 14449 13268 16235 34196 0 0 0 0 11739 43200 41982 44281 49242
38290 0 0 0 0 64937 46362 44540 45998 52024 0 0 0 0 51029 42613 41177
42384 50119 10328 0 0 0 0 0 49528 49415 42678 40500 40232
2251 1858 3395 8574 29541 37620 20781 15999 14415 15033 21167 45583 10032 5819 6009 9338 31835
10673 2654 391 1607 50743 18018 17728 20582 29079 0 0 0 0 0 0 0 0
0 0 0 0 54869 46913 45714 46930 62653 0 0 0 0 62087 45983 42802 42642
45638 60537 0 0 0 0 0 221 59409 47320 42670 41185 41339
4051 3097 3970 7435 19140 49338 23239 15731 13099 12624 15141 33166 20607 9314 7910 9309 15052
46456 4098 0 0 0 51830 22800 22199 24432 28571 39288 0 0 0 0 0 0
0 0 58031 48497 46679 46523 48341 63967 0 0 0 0 7824 50346 44745 43627 44811
51722 17675 0 0 0 0 0 22984 55311 46002 42849 41969 42585
6179 4533 4787 7044 13891 41616 29639 16445 12269 10792 11396 17368 49292 15361 10647 10581 12925
21615 24117 0 0 0 0 23715 29811 26994 28285 30738 33923 37823 42355 46566 48533 48073
46998 46329 46144 46402 47397 51061 39653 0 0 0 0 0 55273 46750 44868 45136 48606
62180 0 0 0 0 0 0 56916 51195 45273 43211 42884 44039
8801 6229 5848 7195 11373 25340 44417 19155 12168 9518 8855 10779 23782 31780 15111 12807 13507
16523 27431 16491 0 0 0 0 0 51625 34128 33041 34217 36030 38006 39905 41591 43024
44267 45485 47038 50098 62287 0 0 0 0 0 0 58920 48488 46102 45871 47892 57314
1340 0 0 0 0 0 13331 58828 48686 44988 43758 43978 45803
12219 8289 7177 7766 10335 17623 44616 26848 13373 8925 7137 7166 10805 36755 25554 16534 15350
16470 19745 30317 18964 0 0 0 0 0 0 41095 46856 42115 41839 42804 44307 46279
49196 55249 55486 0 0 0 0 0 0 0 59421 49609 47148 46706 48062 54147 34166
0 0 0 0 0 0 55866 53474 47318 45052 44506 45319 48041
17012 10896 8832 8702 10184 14315 27003 45952 17508 9381 6183 4951 5600 11270 48758 24881 18725
18065 19331 22412 30427 42541 0 0 0 0 0 0 0 0 0 0 0 0
0 0 0 0 0 0 0 0 12186 57030 49966 47895 47491 48601 53263 58890 0
0 0 0 0 0 18995 59570 50265 46690 45414 45497 47023 51023
24354 14397 10930 9999 10636 13044 19285 40253 30204 11945 6214 3705 2837 3980 11458 51126 26539
21377 20863 22048 24635 29893 46721 6798 0 0 0 0 0 0 0 0 0 0
0 0 0 0 0 0 0 65535 53750 49732 48342 48178 49327 53551 63740 0 0
0 0 0 0 0 61834 53867 48619 46576 46066 46806 49287 55126
36230 19503 13701 11716 11565 12866 16278 25322 50167 20306 8019 3490 1366 703 2090 10235 51601
29785 24438 23747 24679 26681 30023 36402 53263 8377 0 0 0 0 0 0 0 0
0 0 0 0 0 64670 55950 51109 49239 48587 48806 50241 54734 63886 0 0 0
0 0 0 0 45437 57934 50772 47904 46869 47044 48578 52444 60198
49409 27728 17614 14008 12955 13391 15291 19765 32129 45705 14393 4951 1040 0 0 0 6931
47716 35027 28099 26839 27355 28792 30976 34084 38797 47033 58491 21240 0 0 0 0 0
0 10061 61299 59714 53614 50730 49351 48778 48800 49516 51524 57112 57476 0 0 0 0
0 0 0 22476 61689 53025 49307 47800 47543 48449 51073 56958 59469
43446 41261 23695 17213 14895 14476 15371 17795 23283 38673 37162 10545 2430 0 0 0 0
2086 29045 44276 33041 30465 30309 31166 32602 34459 36682 39255 42135 45177 48045 50249 51401 51489
50873 50017 49241 48686 48382 48336 48580 49234 50626 53721 61717 27356 0 0 0 0 0
0 0 9279 63806 55169 50685 48771 48180 48650 50482 54746 62030 33393
29762 49863 34148 22076 17638 16136 16165 17410 20247 26512 43502 31876 8028 359 0 0 0
0 0 8863 53322 41609 35571 34065 34132 34914 36075 37446 38916 40396 41802 43067 44145 45026
45735 46325 46859 47411 48071 48975 50386 52932 58423 63467 0 0 0 0 0 0 0
0 3815 63963 56939 51922 49705 48868 49035 50347 53534 60022 53552 5582
20869 35729 48750 30334 21772 18560 17598 17940 19425 22513 29114 45911 30564 6691 0 0 0
0 0 0 0 13814 55538 45817 40361 38688 38476 38934 39727 40687 41715 42753 43768 44752
45716 46701 47779 49083 50873 53728 59092 64708 5554 0 0 0 0 0 0 0 0
3779 63847 58094 52904 50530 49542 49511 50482 52970 58224 62099 18786 0
15446 22954 42187 44499 28710 22245 19801 19193 19738 21350 24489 30885 46121 33759 6841 0 0
0 0 0 0 0 0 5640 41421 56475 49637 46302 45088 44902 45267 45965 46903 48064
49504 51384 54053 58234 64221 46206 0 0 0 0 0 0 0 0 0 0 9459
64640 58509 53547 51191 50154 50013 50773 52816 57143 63407 33934 0 0
11943 15670 25394 47194 41331 28423 23220 21255 20867 21516 23144 26136 31856 44536 42482 9520 0
0 0 0 0 0 0 0 0 0 0 16715 41498 57384 61087 61652 62218 62692
59833 43806 14977 0 0 0 0 0 0 0 0 0 0 0 0 23872 65119
58207 53824 51659 50672 50506 51154 52928 56645 62941 46694 1974 0 0
9591 11309 15888 27766 49793 39914 29011 24550 22864 22587 23255 24797 27489 32262 41870 52391 17686
159 0 0 0 0 0 0 0 0 0 0 0 0 0 0 0 0
0 0 0 0 0 0 0 0 0 0 0 0 0 0 48777 63784 57341
53769 51932 51084 50965 51587 53224 56579 62481 54480 7711 0 0 0
